<svg width="160" height="56" viewBox="0 0 160 56" fill="none" xmlns="http://www.w3.org/2000/svg">
<path d="M20.97 13.97H23.98C24.18 13.97 24.34 13.81 24.34 13.62C24.34 13.42 24.18 13.26 23.98 13.26H20.97C20.78 13.26 20.61 13.42 20.61 13.62C20.61 13.81 20.77 13.97 20.97 13.97ZM22.47 40.38C21.61 40.38 20.9 41.09 20.9 41.95C20.9 42.81 21.6 43.52 22.47 43.52C23.34 43.52 24.04 42.82 24.04 41.95C24.04 41.08 23.34 40.38 22.47 40.38ZM14.79 39.04H30.17V16.29H14.79V39.04ZM64.08 31.57C63.35 31.57 62.69 31.81 62.1 32.29C61.51 32.78 61.12 33.41 60.94 34.2C60.85 34.57 60.81 34.87 60.81 35.1V37.31C60.81 38.28 61.1 39.1 61.7 39.76C62.29 40.42 63.06 40.76 64.01 40.76C65.12 40.76 65.99 40.33 66.61 39.47C67.23 38.61 67.54 37.48 67.54 36.07C67.54 34.78 67.25 33.71 66.67 32.87C66.02 32.01 65.16 31.57 64.08 31.57ZM118.01 31.38C116.83 31.38 115.92 31.91 115.31 32.96C114.77 33.83 114.51 34.89 114.51 36.15C114.51 37.37 114.77 38.42 115.31 39.29C115.94 40.34 116.84 40.87 117.99 40.87C119.11 40.87 120 40.34 120.64 39.26C121.19 38.38 121.47 37.32 121.47 36.1C121.47 34.88 121.21 33.83 120.68 32.96C120.04 31.91 119.16 31.38 118.01 31.38ZM78.7 31.57C77.97 31.57 77.31 31.81 76.72 32.29C76.13 32.78 75.74 33.41 75.55 34.2C75.46 34.57 75.42 34.87 75.42 35.1V37.31C75.42 38.28 75.71 39.1 76.31 39.76C76.9 40.42 77.67 40.76 78.62 40.76C79.74 40.76 80.6 40.33 81.23 39.47C81.85 38.61 82.16 37.48 82.16 36.07C82.16 34.78 81.87 33.71 81.28 32.87C80.64 32.01 79.78 31.57 78.7 31.57ZM48.16 26.81H48.1C47.91 27.6 47.63 28.75 47.22 30.29L45.69 35.11H50.64L49.09 30.29C48.92 29.79 48.61 28.63 48.16 26.81ZM140.43 31.24C139.47 31.24 138.68 31.65 138.08 32.45C137.59 33.09 137.29 33.85 137.2 34.74H143.36C143.38 33.87 143.19 33.11 142.79 32.47C142.27 31.66 141.48 31.24 140.43 31.24ZM61.19 18.11C61.23 17.98 61.23 17.86 61.23 17.73V16.79C60.01 16.78 58.84 17.03 58.84 18.07C58.84 18.75 59.28 19.06 59.82 19.06C60.53 19.05 61.02 18.6 61.19 18.11ZM45.06 13.81C44.88 13.23 44.72 12.59 44.58 12.04H44.55C44.41 12.59 44.26 13.25 44.1 13.81L43.37 16.15H45.8L45.06 13.81ZM152.39 0H6.72C3.02 0 0 3.02 0 6.72V48.58C0 52.28 3.02 55.29 6.72 55.29H152.39C156.1 55.29 159.11 52.28 159.11 48.58V6.72C159.12 3.02 156.1 0 152.39 0ZM143.16 13.13C145.38 13.13 146.12 14.96 146.12 16.46C146.12 16.78 146.09 17.04 146.06 17.19H141.47C141.51 18.43 142.47 18.96 143.58 18.96C144.38 18.96 144.95 18.83 145.48 18.65L145.73 19.83C145.14 20.08 144.32 20.27 143.34 20.27C141.12 20.27 139.81 18.91 139.81 16.81C139.81 14.92 140.96 13.13 143.16 13.13ZM115.7 13.29L115.78 14.32H115.82C116.13 13.78 116.87 13.14 118.01 13.14C119.21 13.14 120.44 13.91 120.44 16.08V20.15H118.71V16.28C118.71 15.3 118.34 14.55 117.4 14.55C116.71 14.55 116.23 15.04 116.05 15.56C115.99 15.7 115.97 15.91 115.97 16.11V20.15H114.24V15.34C114.24 14.55 114.21 13.89 114.18 13.3H115.7V13.29ZM97.52 13.13C99.74 13.13 100.48 14.96 100.48 16.46C100.48 16.78 100.45 17.04 100.42 17.19H95.83C95.87 18.43 96.83 18.96 97.94 18.96C98.74 18.96 99.3 18.83 99.84 18.65L100.09 19.83C99.5 20.08 98.68 20.27 97.7 20.27C95.48 20.27 94.17 18.91 94.17 16.81C94.17 14.92 95.33 13.13 97.52 13.13ZM90.43 10.15H92.16V20.14H90.43V10.15ZM76.71 14.35C76.03 14.35 75.33 14.56 74.87 14.86L74.53 13.73C75.04 13.42 75.92 13.13 77.01 13.13C79.21 13.13 79.84 14.52 79.84 16.03V18.49C79.84 19.11 79.87 19.71 79.95 20.14H78.39L78.26 19.38H78.22C77.81 19.91 77.09 20.3 76.19 20.3C74.81 20.3 74.04 19.3 74.04 18.26C74.04 16.54 75.57 15.66 78.11 15.67V15.56C78.1 15.1 77.91 14.35 76.71 14.35ZM66.47 10.43C67.06 10.43 67.43 10.84 67.44 11.37C67.44 11.88 67.06 12.3 66.45 12.3C65.87 12.3 65.49 11.88 65.49 11.37C65.5 10.84 65.9 10.43 66.47 10.43ZM67.33 13.29V20.14H65.6V13.29H67.33ZM43.53 10.65H45.74L48.82 20.13H46.95L46.09 17.44H43.09L42.27 20.13H40.48L43.53 10.65ZM32 42.1C32 43.77 30.64 45.13 28.97 45.13H15.97C14.3 45.13 12.94 43.78 12.94 42.1V13.22C12.94 11.55 14.3 10.19 15.97 10.19H28.97C30.64 10.19 32 11.55 32 13.22V42.1ZM52.89 42.79L51.17 37.37H45.17L43.53 42.79H40.47L46.4 24.34H50.07L56.04 42.79H52.89ZM53.56 20.14H51.86L49.31 13.29H51.18L52.29 16.77C52.49 17.37 52.63 17.92 52.75 18.49H52.79C52.92 17.93 53.07 17.39 53.25 16.77L54.35 13.29H56.17L53.56 20.14ZM57.13 18.25C57.13 16.53 58.66 15.65 61.2 15.66V15.55C61.2 15.1 61.02 14.35 59.81 14.35C59.13 14.35 58.43 14.56 57.97 14.86L57.63 13.73C58.14 13.42 59.02 13.13 60.11 13.13C62.3 13.13 62.94 14.52 62.94 16.03V18.49C62.94 19.11 62.97 19.71 63.05 20.14H61.49L61.36 19.38H61.32C60.91 19.91 60.19 20.3 59.29 20.3C57.9 20.29 57.13 19.29 57.13 18.25ZM68.7 41.35C67.6 42.51 66.23 43.1 64.6 43.1C62.83 43.1 61.57 42.47 60.8 41.21V48.2H57.85V33.86C57.85 32.44 57.81 30.98 57.74 29.49H60.34L60.5 31.6H60.55C61.54 30.02 63.03 29.22 65.04 29.22C66.61 29.22 67.92 29.84 68.97 31.08C70.02 32.32 70.54 33.96 70.54 35.98C70.55 38.25 69.93 40.03 68.7 41.35ZM71.78 20.14H70.05V10.15H71.78V20.14ZM83.32 41.35C82.22 42.51 80.85 43.1 79.22 43.1C77.46 43.1 76.19 42.47 75.43 41.21V48.2H72.47V33.86C72.47 32.44 72.43 30.98 72.36 29.49H74.95L75.12 31.6H75.17C76.16 30.02 77.65 29.22 79.66 29.22C81.23 29.22 82.54 29.84 83.59 31.08C84.64 32.32 85.17 33.96 85.17 35.98C85.16 38.25 84.55 40.03 83.32 41.35ZM85.35 20.29C84.46 20.29 83.68 19.95 83.18 19.11H83.15L83.07 20.14H81.59C81.62 19.68 81.65 18.92 81.65 18.21V10.15H83.38V14.23H83.41C83.83 13.57 84.58 13.13 85.61 13.13C87.28 13.13 88.48 14.52 88.47 16.6C88.46 19.07 86.89 20.29 85.35 20.29ZM100.23 41.45C99.02 42.53 97.35 43.06 95.2 43.06C93.21 43.06 91.62 42.68 90.42 41.91L91.11 39.45C92.4 40.21 93.83 40.6 95.37 40.6C96.49 40.6 97.35 40.35 97.97 39.85C98.59 39.35 98.9 38.68 98.9 37.83C98.9 37.09 98.64 36.46 98.14 35.95C97.62 35.44 96.78 34.97 95.6 34.53C92.37 33.33 90.76 31.57 90.76 29.25C90.76 27.74 91.32 26.49 92.47 25.52C93.61 24.56 95.12 24.07 97 24.07C98.68 24.07 100.07 24.36 101.19 24.94L100.44 27.35C99.4 26.79 98.22 26.5 96.9 26.5C95.86 26.5 95.04 26.76 94.45 27.26C93.96 27.72 93.71 28.28 93.71 28.93C93.71 29.65 93.99 30.26 94.56 30.74C95.05 31.18 95.95 31.65 97.24 32.16C98.83 32.79 100 33.55 100.75 34.41C101.5 35.27 101.87 36.33 101.87 37.61C101.86 39.19 101.31 40.47 100.23 41.45ZM110.65 31.7H107.39V38.17C107.39 39.81 107.97 40.63 109.12 40.63C109.65 40.63 110.08 40.59 110.43 40.5L110.51 42.74C109.93 42.96 109.16 43.07 108.21 43.07C107.05 43.07 106.13 42.72 105.47 42C104.81 41.29 104.48 40.09 104.48 38.42V31.7H102.54V29.49H104.48V27.06L107.38 26.18V29.49H110.64V31.7H110.65ZM108.98 20.29C107.05 20.29 105.55 18.97 105.55 16.76C105.55 14.51 107.03 13.13 109.1 13.13C111.14 13.13 112.51 14.57 112.51 16.65C112.5 19.17 110.72 20.29 108.98 20.29ZM122.78 41.07C121.55 42.42 119.93 43.09 117.91 43.09C115.95 43.09 114.39 42.44 113.24 41.15C112.08 39.86 111.51 38.22 111.51 36.25C111.51 34.19 112.11 32.5 113.3 31.19C114.5 29.87 116.1 29.22 118.13 29.22C120.09 29.22 121.66 29.86 122.84 31.16C123.97 32.41 124.53 34.04 124.53 36.03C124.52 38.08 123.94 39.75 122.78 41.07ZM125.83 13.29H126.8V12L128.5 11.52V13.28H130.15V14.57H128.5V17.6C128.5 18.44 128.72 18.87 129.39 18.87C129.7 18.87 129.87 18.86 130.07 18.8L130.1 20.11C129.85 20.21 129.38 20.29 128.85 20.29C128.2 20.29 127.68 20.08 127.36 19.73C126.98 19.34 126.81 18.7 126.81 17.8V14.58H125.84V13.29H125.83ZM133.42 32.09C133.13 32.04 132.82 32.01 132.49 32.01C131.45 32.01 130.65 32.4 130.08 33.18C129.59 33.88 129.34 34.74 129.34 35.81V42.79H126.38V33.67C126.38 32.15 126.35 30.75 126.3 29.49H128.87L128.98 32.04H129.06C129.37 31.17 129.86 30.46 130.54 29.94C131.2 29.46 131.91 29.23 132.68 29.23C132.95 29.23 133.2 29.24 133.41 29.28V32.09H133.42ZM133.87 16.03V20.14H132.14V10.15H133.87V14.22H133.9C134.11 13.9 134.41 13.63 134.76 13.45C135.11 13.25 135.52 13.14 135.96 13.14C137.13 13.14 138.35 13.91 138.35 16.11V20.15H136.62V16.3C136.62 15.31 136.25 14.55 135.3 14.55C134.62 14.55 134.15 15 133.95 15.52C133.88 15.66 133.87 15.85 133.87 16.03ZM146.07 36.86H137.2C137.24 38.17 137.66 39.17 138.49 39.86C139.24 40.48 140.2 40.79 141.39 40.79C142.71 40.79 143.9 40.58 144.98 40.16L145.45 42.22C144.2 42.77 142.7 43.04 140.99 43.04C138.93 43.04 137.31 42.44 136.14 41.22C134.96 40.01 134.37 38.38 134.37 36.34C134.37 34.33 134.92 32.66 136.01 31.33C137.17 29.91 138.72 29.2 140.67 29.2C142.59 29.2 144.04 29.91 145.02 31.33C145.8 32.46 146.2 33.86 146.2 35.52C146.17 36.04 146.14 36.49 146.07 36.86ZM84.97 14.48C84.27 14.48 83.62 14.99 83.44 15.75C83.41 15.88 83.38 16.03 83.38 16.2V17.31C83.38 17.45 83.39 17.59 83.42 17.72C83.6 18.42 84.21 18.93 84.95 18.93C86.03 18.93 86.7 18.07 86.7 16.68C86.7 15.47 86.12 14.48 84.97 14.48ZM97.42 14.31C96.35 14.31 95.9 15.28 95.83 15.98H98.84C98.86 15.35 98.58 14.31 97.42 14.31ZM109.05 14.38C107.83 14.38 107.33 15.58 107.33 16.72C107.33 18.04 107.99 19.04 109.03 19.04C110.01 19.04 110.7 18.08 110.7 16.69C110.71 15.62 110.23 14.38 109.05 14.38ZM75.75 18.07C75.75 18.75 76.19 19.06 76.73 19.06C77.43 19.06 77.93 18.61 78.1 18.12C78.14 17.99 78.14 17.87 78.14 17.74V16.8C76.92 16.78 75.75 17.03 75.75 18.07ZM143.06 14.31C141.99 14.31 141.54 15.28 141.47 15.98H144.48C144.49 15.35 144.21 14.31 143.06 14.31Z" fill="#D7C2FF"/>
</svg>
