<svg width="11" height="11" viewBox="0 0 11 11" fill="none" xmlns="http://www.w3.org/2000/svg">
<path d="M2.88243 0.39209C2.97525 0.39209 3.06428 0.428965 3.12992 0.494602C3.19555 0.56024 3.23243 0.649264 3.23243 0.74209V1.39659H6.99093V0.74659C6.99093 0.653764 7.0278 0.56474 7.09344 0.499102C7.15908 0.433465 7.2481 0.39659 7.34093 0.39659C7.43375 0.39659 7.52278 0.433465 7.58842 0.499102C7.65405 0.56474 7.69093 0.653764 7.69093 0.74659V1.39659H9.04593C9.31106 1.39659 9.56534 1.50188 9.75286 1.68931C9.94038 1.87673 10.0458 2.13096 10.0459 2.39609V9.39259C10.0458 9.65772 9.94038 9.91195 9.75286 10.0994C9.56534 10.2868 9.31106 10.3921 9.04593 10.3921H1.04593C0.780799 10.3921 0.526521 10.2868 0.338999 10.0994C0.151477 9.91195 0.0460615 9.65772 0.045929 9.39259L0.045929 2.39609C0.0460615 2.13096 0.151477 1.87673 0.338999 1.68931C0.526521 1.50188 0.780799 1.39659 1.04593 1.39659H2.53243V0.74159C2.53256 0.648851 2.56949 0.559955 2.63512 0.494426C2.70074 0.428896 2.78969 0.39209 2.88243 0.39209V0.39209ZM0.745929 4.26309V9.39259C0.745929 9.43199 0.753689 9.471 0.768765 9.50739C0.783841 9.54379 0.805939 9.57686 0.833797 9.60472C0.861655 9.63258 0.894726 9.65468 0.931124 9.66975C0.967522 9.68483 1.00653 9.69259 1.04593 9.69259H9.04593C9.08533 9.69259 9.12434 9.68483 9.16073 9.66975C9.19713 9.65468 9.2302 9.63258 9.25806 9.60472C9.28592 9.57686 9.30802 9.54379 9.32309 9.50739C9.33817 9.471 9.34593 9.43199 9.34593 9.39259V4.27009L0.745929 4.26309ZM3.37943 7.70159V8.53459H2.54593V7.70159H3.37943ZM5.46243 7.70159V8.53459H4.62943V7.70159H5.46243ZM7.54593 7.70159V8.53459H6.71243V7.70159H7.54593ZM3.37943 5.71309V6.54609H2.54593V5.71309H3.37943ZM5.46243 5.71309V6.54609H4.62943V5.71309H5.46243ZM7.54593 5.71309V6.54609H6.71243V5.71309H7.54593ZM2.53243 2.09609H1.04593C1.00653 2.09609 0.967522 2.10385 0.931124 2.11893C0.894726 2.134 0.861655 2.1561 0.833797 2.18396C0.805939 2.21182 0.783841 2.24489 0.768765 2.28128C0.753689 2.31768 0.745929 2.35669 0.745929 2.39609V3.56359L9.34593 3.57059V2.39609C9.34593 2.35669 9.33817 2.31768 9.32309 2.28128C9.30802 2.24489 9.28592 2.21182 9.25806 2.18396C9.2302 2.1561 9.19713 2.134 9.16073 2.11893C9.12434 2.10385 9.08533 2.09609 9.04593 2.09609H7.69093V2.56059C7.69093 2.65342 7.65405 2.74244 7.58842 2.80808C7.52278 2.87372 7.43375 2.91059 7.34093 2.91059C7.2481 2.91059 7.15908 2.87372 7.09344 2.80808C7.0278 2.74244 6.99093 2.65342 6.99093 2.56059V2.09609H3.23243V2.55609C3.23243 2.64892 3.19555 2.73794 3.12992 2.80358C3.06428 2.86922 2.97525 2.90609 2.88243 2.90609C2.7896 2.90609 2.70058 2.86922 2.63494 2.80358C2.5693 2.73794 2.53243 2.64892 2.53243 2.55609V2.09609Z" fill="#616161"/>
</svg>
