<svg width="7" height="13" viewBox="0 0 7 13" fill="none" xmlns="http://www.w3.org/2000/svg">
<path d="M6.23206 0.504397H4.84138C4.49233 0.482221 4.14308 0.544113 3.81725 0.685889C3.49142 0.827666 3.1966 1.04602 2.9527 1.32621C2.7088 1.60639 2.52152 1.94187 2.4035 2.30998C2.28548 2.67808 2.23948 3.07024 2.2686 3.45994V4.82104H0.869579C0.811673 4.82104 0.756149 4.84677 0.715203 4.89257C0.674256 4.93837 0.651245 5.00049 0.651245 5.06526V7.03381C0.651428 7.09851 0.674487 7.16051 0.715394 7.20627C0.7563 7.25203 0.811729 7.27782 0.869579 7.27803H2.2686V12.2558C2.26879 12.3206 2.29195 12.3827 2.33301 12.4285C2.37406 12.4743 2.42967 12.5 2.48764 12.5H4.31153C4.3695 12.5 4.42511 12.4743 4.46616 12.4285C4.50722 12.3827 4.53038 12.3206 4.53057 12.2558V7.27803H6.1653C6.22321 7.27803 6.27876 7.2523 6.3197 7.2065C6.36065 7.1607 6.38364 7.09858 6.38364 7.03381V5.05982C6.3834 4.9951 6.36044 4.93309 6.31968 4.88715C6.29933 4.86438 6.27514 4.84633 6.24853 4.83405C6.22192 4.82177 6.19339 4.8155 6.1646 4.8156H4.52917V3.66138C4.52917 3.10683 4.64738 2.82527 5.29405 2.82527H6.23136C6.28927 2.82527 6.34481 2.79954 6.38576 2.75374C6.42671 2.70794 6.4497 2.64582 6.4497 2.58105V0.749395C6.4497 0.684685 6.42681 0.622604 6.38604 0.576702C6.34526 0.5308 6.28991 0.504808 6.23206 0.504397Z" fill="white"/>
</svg>
