<svg width="170" height="56" viewBox="0 0 170 56" fill="none" xmlns="http://www.w3.org/2000/svg">
<path d="M73.1504 12.1129C72.8004 12.1129 72.5104 12.2629 72.2704 12.5729C72.0304 12.8829 71.9104 13.2729 71.9104 13.7429C71.9104 14.2329 72.0404 14.6329 72.2904 14.9429C72.5404 15.2529 72.8604 15.4029 73.2204 15.4029C73.5704 15.4029 73.8604 15.2429 74.1004 14.9329C74.3404 14.6229 74.4604 14.2329 74.4604 13.7629C74.4604 13.2729 74.3304 12.8629 74.0804 12.5629C73.8404 12.2629 73.5304 12.1129 73.1504 12.1129Z" fill="#D7C2FF"/>
<path d="M80.0203 12.1432C79.9203 12.1432 79.7803 12.1532 79.6003 12.1732C79.6203 12.6432 79.6403 13.1432 79.6403 13.6532C79.6403 14.2232 79.6503 14.7832 79.6803 15.3332C79.8303 15.3632 79.9903 15.3832 80.1403 15.3832C80.6503 15.3832 81.0303 15.2232 81.2703 14.9132C81.5103 14.5932 81.6403 14.2132 81.6403 13.7632C81.6403 13.3132 81.5103 12.9232 81.2403 12.6132C80.9703 12.2932 80.5603 12.1432 80.0203 12.1432Z" fill="#D7C2FF"/>
<path d="M91.6303 12.0934C91.4603 12.0934 91.2803 12.1134 91.1003 12.1434C91.1303 12.5934 91.1404 13.0934 91.1404 13.6634C91.2004 13.6634 91.2703 13.6734 91.3503 13.6734C92.2103 13.6734 92.6404 13.4034 92.6404 12.8534C92.6404 12.3534 92.3103 12.0934 91.6303 12.0934Z" fill="#D7C2FF"/>
<path d="M87.1204 12.0831C87.1204 12.1731 86.9104 12.8331 86.4904 14.0631H87.7804C87.3804 12.8431 87.1703 12.1831 87.1703 12.0831H87.1204Z" fill="#D7C2FF"/>
<path d="M53.6104 12.0831C53.6104 12.1731 53.4003 12.8331 52.9803 14.0631H54.2704C53.8704 12.8431 53.6604 12.1831 53.6604 12.0831H53.6104Z" fill="#676099"/>
<path d="M68.1304 12.1031C67.9104 12.1031 67.7104 12.1231 67.5404 12.1531C67.5704 12.5231 67.5804 12.9931 67.5804 13.5831C67.7104 13.5831 67.8204 13.5931 67.9104 13.5931C68.6604 13.5931 69.0404 13.3331 69.0404 12.8131C69.0304 12.3331 68.7304 12.1031 68.1304 12.1031Z" fill="#D7C2FF"/>
<path d="M63.0404 12.1432C62.9404 12.1432 62.8004 12.1532 62.6204 12.1732C62.6404 12.6432 62.6604 13.1432 62.6604 13.6532C62.6604 14.2232 62.6703 14.7832 62.7003 15.3332C62.8503 15.3632 63.0104 15.3832 63.1604 15.3832C63.6704 15.3832 64.0504 15.2232 64.2904 14.9132C64.5304 14.5932 64.6604 14.2132 64.6604 13.7632C64.6604 13.3132 64.5304 12.9232 64.2604 12.6132C63.9904 12.2932 63.5904 12.1432 63.0404 12.1432Z" fill="#D7C2FF"/>
<path d="M102.47 12.1129C102.12 12.1129 101.83 12.2629 101.59 12.5729C101.35 12.8829 101.23 13.2729 101.23 13.7429C101.23 14.2329 101.36 14.6329 101.61 14.9429C101.86 15.2529 102.18 15.4029 102.54 15.4029C102.89 15.4029 103.18 15.2429 103.42 14.9329C103.66 14.6229 103.78 14.2329 103.78 13.7629C103.78 13.2729 103.65 12.8629 103.4 12.5629C103.16 12.2629 102.84 12.1129 102.47 12.1129Z" fill="#D7C2FF"/>
<path d="M95.8904 12.0934C95.7204 12.0934 95.5404 12.1134 95.3604 12.1434C95.3904 12.5934 95.4004 13.0934 95.4004 13.6634C95.4604 13.6634 95.5304 13.6734 95.6104 13.6734C96.4704 13.6734 96.9004 13.4034 96.9004 12.8534C96.9004 12.3534 96.5604 12.0934 95.8904 12.0934Z" fill="#D7C2FF"/>
<path d="M86.6403 28.733C85.6503 28.733 84.7903 29.103 84.0603 29.843C83.3303 30.583 82.9703 31.563 82.9703 32.793C82.9703 34.013 83.3303 34.993 84.0603 35.743C84.7903 36.483 85.6503 36.853 86.6403 36.853C87.6303 36.853 88.4904 36.483 89.2204 35.743C89.9504 35.003 90.3103 34.023 90.3103 32.793C90.3103 31.573 89.9504 30.593 89.2204 29.843C88.4904 29.103 87.6303 28.733 86.6403 28.733Z" fill="#D7C2FF"/>
<path d="M74.3803 28.733C73.3903 28.733 72.5303 29.103 71.8003 29.843C71.0703 30.583 70.7103 31.563 70.7103 32.793C70.7103 34.013 71.0703 34.993 71.8003 35.743C72.5303 36.483 73.3803 36.853 74.3803 36.853C75.3703 36.853 76.2303 36.483 76.9603 35.743C77.6903 35.003 78.0503 34.023 78.0503 32.793C78.0503 31.573 77.6903 30.593 76.9603 29.843C76.2303 29.103 75.3703 28.733 74.3803 28.733Z" fill="#D7C2FF"/>
<path d="M132.58 24.0133H129.05V29.7433H132.58C133.47 29.7433 134.18 29.4433 134.71 28.8533C135.25 28.2533 135.51 27.6033 135.51 26.8833C135.51 26.1633 135.24 25.5033 134.71 24.9133C134.18 24.3133 133.46 24.0133 132.58 24.0133Z" fill="#D7C2FF"/>
<path d="M145.37 33.503C144.85 33.943 144.59 34.463 144.59 35.063C144.59 35.613 144.83 36.053 145.3 36.373C145.77 36.693 146.32 36.853 146.93 36.853C147.8 36.853 148.59 36.523 149.3 35.883C150.01 35.233 150.37 34.463 150.37 33.583C149.77 33.093 148.88 32.853 147.69 32.853C146.66 32.843 145.89 33.063 145.37 33.503Z" fill="#D7C2FF"/>
<path d="M115.2 28.733C114.42 28.733 113.74 28.973 113.17 29.463C112.6 29.953 112.2 30.613 111.99 31.433H118.5C118.45 30.793 118.16 30.183 117.62 29.603C117.08 29.023 116.27 28.733 115.2 28.733Z" fill="#D7C2FF"/>
<path d="M98.8104 28.733C97.8304 28.733 96.9903 29.103 96.2903 29.843C95.5903 30.583 95.2404 31.563 95.2404 32.793C95.2404 34.013 95.5903 34.993 96.2903 35.743C96.9903 36.483 97.8304 36.853 98.8104 36.853C99.8004 36.853 100.65 36.483 101.34 35.753C102.04 35.023 102.38 34.033 102.38 32.793C102.38 31.553 102.03 30.573 101.34 29.833C100.65 29.103 99.8104 28.733 98.8104 28.733Z" fill="#D7C2FF"/>
<path d="M161.56 0.353149H7.58035C3.46035 0.353149 0.110352 3.69315 0.110352 7.82315V48.1432C0.110352 52.2631 3.45035 55.6131 7.58035 55.6131H161.56C165.68 55.6131 169.03 52.2732 169.03 48.1432V7.82315C169.02 3.70315 165.68 0.353149 161.56 0.353149ZM94.4404 11.4531H95.0604C95.1504 11.4531 95.3204 11.4531 95.5604 11.4431C95.8104 11.4331 96.0204 11.4331 96.2104 11.4331C96.6604 11.4331 97.0403 11.5331 97.3503 11.7431C97.6603 11.9431 97.8104 12.2531 97.8104 12.6731C97.8104 13.2431 97.6004 13.6531 97.1804 13.9231C96.7604 14.1931 96.2503 14.3231 95.6303 14.3231C95.5203 14.3231 95.4404 14.3231 95.3904 14.3131C95.3904 14.7531 95.4004 15.3431 95.4304 16.0731H94.4304C94.4604 15.3931 94.4803 14.5831 94.4803 13.6531C94.4903 12.8031 94.4704 12.0631 94.4404 11.4531ZM85.7504 13.8031C86.3004 12.3831 86.5804 11.6031 86.5804 11.4531H87.9203C87.9203 11.5831 88.1703 12.3631 88.6703 13.7631C89.1703 15.1731 89.4203 15.9431 89.4203 16.0631H88.2804C88.2804 15.9031 88.1704 15.4631 87.9604 14.7331H86.3203C86.1003 15.4531 85.9904 15.8931 85.9904 16.0631H84.9203C84.9203 15.9731 85.2004 15.2231 85.7504 13.8031ZM78.7003 11.4531H79.3204C79.4204 11.4531 79.5704 11.4531 79.7704 11.4431C79.9704 11.4331 80.1004 11.4331 80.1604 11.4331C81.0104 11.4331 81.6304 11.6431 82.0204 12.0731C82.4004 12.5031 82.6004 13.0131 82.6004 13.6031C82.6004 14.2731 82.3803 14.8631 81.9503 15.3631C81.5203 15.8631 80.9203 16.1131 80.1404 16.1131C79.7904 16.1131 79.3104 16.1031 78.6904 16.0731C78.7204 15.3631 78.7404 14.5531 78.7404 13.6531C78.7404 12.7931 78.7303 12.0531 78.7003 11.4531ZM76.4503 11.4531H77.4503C77.4203 12.0531 77.4004 12.7831 77.4004 13.6531C77.4004 14.5431 77.4203 15.3531 77.4503 16.0731H76.4503C76.4803 15.3431 76.5004 14.5331 76.5004 13.6531C76.5004 12.7931 76.4803 12.0531 76.4503 11.4531ZM71.6004 12.0631C72.0404 11.5831 72.5903 11.3431 73.2504 11.3431C73.8704 11.3431 74.4004 11.5631 74.8204 12.0031C75.2404 12.4431 75.4503 13.0031 75.4503 13.6731C75.4503 14.4031 75.2303 15.0031 74.7803 15.4831C74.3403 15.9631 73.7904 16.2031 73.1304 16.2031C72.5104 16.2031 71.9803 15.9831 71.5603 15.5431C71.1404 15.1031 70.9304 14.5431 70.9304 13.8731C70.9304 13.1431 71.1604 12.5331 71.6004 12.0631ZM61.7204 11.4531H62.3403C62.4403 11.4531 62.5904 11.4531 62.7904 11.4431C62.9904 11.4331 63.1204 11.4331 63.1804 11.4331C64.0304 11.4331 64.6504 11.6431 65.0404 12.0731C65.4204 12.5031 65.6204 13.0131 65.6204 13.6031C65.6204 14.2731 65.4004 14.8631 64.9704 15.3631C64.5404 15.8631 63.9404 16.1131 63.1604 16.1131C62.8104 16.1131 62.3304 16.1031 61.7104 16.0731C61.7404 15.3631 61.7604 14.5531 61.7604 13.6531C61.7704 12.7931 61.7504 12.0531 61.7204 11.4531ZM56.6804 11.4531H57.7303C57.7303 11.5831 58.0204 12.0831 58.6104 12.9531C59.2304 13.8831 59.5904 14.5131 59.6804 14.8431H59.7303C59.6703 14.3131 59.6404 13.8431 59.6404 13.4231C59.6404 12.7831 59.6203 12.1231 59.5903 11.4531H60.4803C60.4503 12.0431 60.4304 12.7731 60.4304 13.6531C60.4304 14.5431 60.4503 15.3431 60.4803 16.0731H59.6004C59.6004 15.9731 59.2704 15.4631 58.6204 14.5331C57.9404 13.5531 57.5504 12.8931 57.4604 12.5331H57.4004C57.4604 13.0531 57.4904 13.5231 57.4904 13.9331C57.4904 14.5131 57.5104 15.2331 57.5404 16.0731H56.6703C56.7104 15.3431 56.7204 14.5331 56.7204 13.6531C56.7304 12.7931 56.7104 12.0531 56.6804 11.4531ZM52.2404 13.8031C52.7904 12.3831 53.0704 11.6031 53.0704 11.4531H54.4104C54.4104 11.5831 54.6604 12.3631 55.1604 13.7631C55.6604 15.1731 55.9104 15.9431 55.9104 16.0631H54.7704C54.7704 15.9031 54.6603 15.4631 54.4503 14.7331H52.8103C52.5903 15.4531 52.4803 15.8931 52.4803 16.0631H51.4104C51.4104 15.9731 51.6904 15.2231 52.2404 13.8031ZM14.8304 12.1631C22.0104 16.1831 29.1904 20.2131 36.3704 24.2231C36.7004 24.4031 36.6904 24.5131 36.4404 24.7631C34.8304 26.3431 33.2404 27.9331 31.6504 29.5331C31.4804 29.7031 31.3703 29.8031 31.1404 29.5731C25.4304 23.7431 19.7104 17.9331 13.9904 12.1131C13.9404 12.0631 13.9003 12.0031 13.8103 11.8831C14.2403 11.8731 14.5404 12.0031 14.8304 12.1631ZM12.6204 47.6432C12.0204 47.1832 11.7904 46.5632 11.7904 45.8232C11.7904 42.7132 11.7903 39.6131 11.7803 36.5031C11.7803 34.3031 11.7803 32.1131 11.7803 29.9131H11.7904C11.7904 24.6731 11.7904 19.4231 11.7904 14.1831C11.7904 13.5431 11.9104 12.9531 12.3704 12.4631C12.5504 12.2731 12.6704 12.2231 12.8904 12.4431C16.4204 16.0431 19.9504 19.6331 23.4904 23.2231C25.7804 25.5531 28.0704 27.8731 30.3704 30.1931C30.5904 30.4131 30.6104 30.5331 30.3804 30.7731C24.7604 36.3632 19.1404 41.9632 13.5404 47.5732C13.1904 47.9332 12.9504 47.8932 12.6204 47.6432ZM35.7504 36.2531C29.0604 39.9131 22.3704 43.5931 15.6904 47.2631C15.5804 47.3232 15.4803 47.4231 15.4203 47.4632C20.6303 42.1931 25.8504 36.9331 31.0504 31.6531C31.3704 31.3231 31.5203 31.3731 31.8103 31.6731C33.1303 33.0532 34.4704 34.4031 35.8204 35.7531C36.0504 35.9831 36.0704 36.0731 35.7504 36.2531ZM44.4604 31.3831C44.1504 31.6131 43.8004 31.8031 43.4604 31.9931C41.4404 33.1131 39.4104 34.2231 37.3904 35.3431C37.1203 35.4931 36.9603 35.4931 36.7303 35.2531C35.2903 33.7731 33.8404 32.2931 32.3904 30.8331C32.1804 30.6231 32.1703 30.5031 32.3904 30.2931C34.0904 28.6231 35.7804 26.9331 37.4604 25.2431C37.6604 25.0431 37.8004 25.0231 38.0504 25.1631C40.0504 26.2931 42.0603 27.4131 44.0603 28.5331C44.6803 28.8832 45.1604 29.3331 45.1904 30.0631C45.1604 30.6631 44.8904 31.0731 44.4604 31.3831ZM65.6904 36.3431C64.1504 37.9631 62.1404 38.7731 59.6604 38.7731C57.2904 38.7731 55.2804 37.9531 53.6204 36.3131C51.9604 34.6731 51.1304 32.6331 51.1304 30.2031C51.1304 27.7731 51.9604 25.7331 53.6204 24.0931C55.2804 22.4531 57.2904 21.6331 59.6604 21.6331C60.8404 21.6331 61.9604 21.8631 63.0303 22.3231C64.1003 22.7831 64.9604 23.3931 65.6004 24.1531L64.1604 25.5931C63.0704 24.2931 61.5803 23.6431 59.6703 23.6431C57.9403 23.6431 56.4504 24.2531 55.1904 25.4631C53.9304 26.6731 53.3004 28.2531 53.3004 30.1931C53.3004 32.1332 53.9304 33.7132 55.1904 34.9231C56.4504 36.1331 57.9403 36.7431 59.6703 36.7431C61.5004 36.7431 63.0304 36.1332 64.2604 34.9132C65.0504 34.1231 65.5104 33.0131 65.6404 31.5931H59.6804V29.6331H67.6404C67.7204 30.0631 67.7504 30.4732 67.7504 30.8731C67.7304 33.1632 67.0504 34.9831 65.6904 36.3431ZM67.5804 14.2231C67.5804 14.8331 67.5904 15.4431 67.6104 16.0631H66.6204C66.6504 15.3531 66.6703 14.5431 66.6703 13.6431C66.6703 12.7831 66.6504 12.0431 66.6204 11.4431H67.2303C67.3003 11.4431 67.4504 11.4431 67.6804 11.4331C67.9104 11.4231 68.1104 11.4231 68.3103 11.4231C69.4003 11.4231 69.9404 11.7931 69.9404 12.5331C69.9404 13.1231 69.6304 13.5331 69.0104 13.7631V13.8131C69.2504 13.8831 69.4604 14.0631 69.6404 14.3731C69.8204 14.6831 70.0604 15.2431 70.3704 16.0531H69.3204C69.0504 15.2131 68.8404 14.7031 68.6904 14.5031C68.5404 14.3031 68.3103 14.2131 67.9803 14.2131C67.8403 14.2231 67.7104 14.2231 67.5804 14.2231ZM78.5204 37.0732C77.4304 38.2132 76.0504 38.7831 74.3704 38.7831C72.6904 38.7831 71.3103 38.2132 70.2204 37.0732C69.1304 35.9332 68.5903 34.5131 68.5903 32.7931C68.5903 31.0831 69.1304 29.6531 70.2204 28.5131C71.3004 27.3731 72.6904 26.8031 74.3704 26.8031C76.0504 26.8031 77.4304 27.3731 78.5204 28.5131C79.6004 29.6531 80.1504 31.0731 80.1504 32.7931C80.1504 34.5031 79.6104 35.9332 78.5204 37.0732ZM90.7903 37.0732C89.7003 38.2132 88.3204 38.7831 86.6404 38.7831C84.9604 38.7831 83.5804 38.2132 82.4904 37.0732C81.4004 35.9332 80.8604 34.5131 80.8604 32.7931C80.8604 31.0831 81.4004 29.6531 82.4904 28.5131C83.5704 27.3731 84.9604 26.8031 86.6404 26.8031C88.3204 26.8031 89.7003 27.3731 90.7903 28.5131C91.8703 29.6531 92.4203 31.0731 92.4203 32.7931C92.4203 34.5031 91.8703 35.9332 90.7903 37.0732ZM91.3803 14.3131C91.2703 14.3131 91.1904 14.3131 91.1404 14.3031C91.1404 14.7431 91.1504 15.3331 91.1804 16.0631H90.1804C90.2104 15.3831 90.2303 14.5731 90.2303 13.6431C90.2303 12.7931 90.2104 12.0531 90.1804 11.4431H90.8004C90.8904 11.4431 91.0604 11.4431 91.3004 11.4331C91.5504 11.4231 91.7603 11.4231 91.9503 11.4231C92.4003 11.4231 92.7804 11.5231 93.0904 11.7331C93.4004 11.9331 93.5504 12.2431 93.5504 12.6631C93.5504 13.2331 93.3403 13.6431 92.9203 13.9131C92.5103 14.1831 91.9903 14.3131 91.3803 14.3131ZM104.41 37.8331C104.41 39.7631 103.85 41.2231 102.74 42.2231C101.62 43.2231 100.26 43.7231 98.6603 43.7231C97.3303 43.7231 96.2504 43.3931 95.4004 42.7231C94.5604 42.0532 93.9604 41.2931 93.5904 40.4431L95.5204 39.6432C95.7304 40.2532 96.1303 40.7631 96.7003 41.1831C97.2703 41.5931 97.9303 41.8032 98.6603 41.8032C99.8203 41.8032 100.73 41.4531 101.4 40.7631C102.07 40.0631 102.4 39.1231 102.4 37.9331V36.8531H102.31C101.94 37.4031 101.42 37.8632 100.75 38.2332C100.08 38.6031 99.3203 38.7831 98.4803 38.7831C97.0303 38.7831 95.7704 38.2132 94.7204 37.0631C93.6704 35.9131 93.1404 34.4931 93.1404 32.8032C93.1404 31.1031 93.6704 29.6831 94.7204 28.5431C95.7704 27.3931 97.0303 26.8231 98.4803 26.8231C99.3203 26.8231 100.08 27.0031 100.75 27.3731C101.42 27.7432 101.94 28.2031 102.31 28.7531H102.4V27.1931H104.42V37.8331H104.41ZM104.1 15.4831C103.66 15.9631 103.11 16.2031 102.45 16.2031C101.83 16.2031 101.3 15.9831 100.88 15.5431C100.46 15.1031 100.25 14.5431 100.25 13.8731C100.25 13.1431 100.47 12.5431 100.92 12.0631C101.36 11.5831 101.91 11.3431 102.57 11.3431C103.19 11.3431 103.72 11.5631 104.14 12.0031C104.56 12.4431 104.77 13.0031 104.77 13.6731C104.77 14.4031 104.55 15.0031 104.1 15.4831ZM108.51 38.4132H106.4V21.9931H108.51V38.4132ZM109.58 16.0731H108.7C108.7 15.9731 108.37 15.4631 107.72 14.5331C107.04 13.5531 106.65 12.8931 106.56 12.5331H106.5C106.56 13.0531 106.59 13.5231 106.59 13.9331C106.59 14.5131 106.61 15.2331 106.64 16.0731H105.77C105.81 15.3431 105.82 14.5331 105.82 13.6531C105.82 12.7931 105.8 12.0531 105.77 11.4531H106.82C106.82 11.5831 107.11 12.0831 107.7 12.9531C108.32 13.8831 108.68 14.5131 108.77 14.8431H108.82C108.76 14.3131 108.73 13.8431 108.73 13.4231C108.73 12.7831 108.71 12.1231 108.68 11.4531H109.57C109.54 12.0431 109.52 12.7731 109.52 13.6531C109.53 14.5431 109.54 15.3431 109.58 16.0731ZM120.73 33.1831H111.86C111.92 34.3131 112.3 35.2131 112.99 35.8631C113.69 36.5231 114.5 36.8531 115.43 36.8531C116.94 36.8531 117.97 36.2132 118.5 34.9231L120.38 35.7031C120.01 36.5731 119.41 37.3032 118.57 37.8932C117.73 38.4832 116.7 38.7731 115.48 38.7731C113.78 38.7731 112.4 38.2032 111.34 37.0732C110.28 35.9431 109.75 34.5131 109.75 32.7831C109.75 31.1432 110.27 29.7431 111.3 28.5631C112.33 27.3831 113.65 26.8031 115.25 26.8031C116.92 26.8031 118.25 27.3431 119.25 28.4331C120.25 29.5131 120.75 30.9731 120.75 32.7931L120.73 33.1831ZM136.14 30.3731C135.12 31.2931 133.92 31.7631 132.53 31.7631H129.05V38.4132H126.94V21.9931H132.53C133.92 21.9931 135.12 22.4531 136.14 23.3831C137.16 24.3131 137.66 25.4731 137.66 26.8831C137.67 28.2831 137.16 29.4531 136.14 30.3731ZM141.15 38.4132H139.04V21.9931H141.15V38.4132ZM152.38 38.4132H150.36V36.8531H150.27C149.43 38.1331 148.2 38.7831 146.58 38.7831C145.39 38.7831 144.39 38.4431 143.59 37.7531C142.79 37.0631 142.39 36.1531 142.39 35.0231C142.39 33.8031 142.86 32.8431 143.81 32.1431C144.76 31.4431 145.93 31.1031 147.32 31.1031C148.56 31.1031 149.57 31.3331 150.37 31.7931V31.4731C150.37 30.6431 150.09 29.9831 149.52 29.4931C148.95 28.9931 148.26 28.7431 147.43 28.7431C146.82 28.7431 146.26 28.8931 145.77 29.1831C145.27 29.4732 144.93 29.8731 144.75 30.3731L142.82 29.5431C143.08 28.8731 143.59 28.2531 144.36 27.6731C145.12 27.1031 146.13 26.8131 147.39 26.8131C148.83 26.8131 150.02 27.2331 150.97 28.0731C151.92 28.9131 152.39 30.1031 152.39 31.6231V38.4132H152.38ZM156.97 43.3631H154.79L157.4 37.7031L152.77 27.1831H155.06L158.41 35.2531H158.46L161.71 27.1831H164L156.97 43.3631Z" fill="#D7C2FF"/>
</svg>
