<svg width="273" height="399" viewBox="0 0 273 399" fill="none" xmlns="http://www.w3.org/2000/svg">
<path d="M132.964 395.984L9.48444 325.373C3.88763 322.242 3.88764 305.546 6.16134 299.98L121.945 240.326C128.242 236.673 138.036 236.326 143.633 239.456L269.911 303.459C274.458 310.763 272.009 327.981 265.538 331.634L154.826 395.288C148.18 398.767 138.386 399.115 132.964 395.984Z" fill="url(#paint0_linear_11_3425)"/>
<path d="M132.964 377.723L9.48447 307.111C3.88766 303.981 4.58727 298.415 11.0586 294.763L121.77 231.108C128.067 227.456 137.861 227.108 143.458 230.238L266.937 300.85C272.534 303.981 271.835 309.546 265.363 313.198L154.652 376.853C148.18 380.505 138.386 380.853 132.964 377.723Z" fill="url(#paint1_linear_11_3425)"/>
<path d="M132.789 369.548L23.8262 307.111C18.2294 303.981 18.929 298.415 25.4003 294.763L122.12 239.282C128.416 235.63 138.211 235.282 143.808 238.413L252.77 300.85C258.367 303.98 257.668 309.546 251.196 313.198L154.477 368.679C148.005 372.331 138.211 372.679 132.789 369.548Z" fill="url(#paint2_linear_11_3425)"/>
<path opacity="0.1" d="M137.162 344.678C184.01 344.678 221.988 326.301 221.988 303.633C221.988 280.964 184.01 262.587 137.162 262.587C90.3133 262.587 52.3351 280.964 52.3351 303.633C52.3351 326.301 90.3133 344.678 137.162 344.678Z" fill="url(#paint3_radial_11_3425)"/>
<path opacity="0.1" d="M189.457 325.547C161.648 339.112 116.348 339.112 88.5393 325.547C60.7302 311.981 60.7302 290.241 88.5393 276.675C116.348 263.109 161.648 263.109 189.457 276.675C217.266 290.241 217.266 311.981 189.457 325.547Z" fill="url(#paint4_radial_11_3425)"/>
<path d="M77.6956 273.718L202.05 274.762V291.98C202.05 301.198 195.928 310.242 183.86 317.198C159.549 331.112 120.196 331.112 95.8852 317.198C83.8171 310.242 77.6956 301.024 77.6956 291.98V273.718Z" fill="url(#paint5_linear_11_3425)"/>
<path d="M83.817 271.631H81.7183V304.395H83.817V271.631Z" fill="#4D0063"/>
<path d="M90.9879 271.631H88.889V309.372H90.9879V271.631Z" fill="#4D0063"/>
<path d="M97.9839 271.631H95.8851V309.372H97.9839V271.631Z" fill="#4D0063"/>
<path d="M105.155 271.631H103.056V309.372H105.155V271.631Z" fill="#4D0063"/>
<path d="M112.326 271.631H110.227V309.372H112.326V271.631Z" fill="#4D0063"/>
<path d="M119.497 271.631H117.398V309.372H119.497V271.631Z" fill="#4D0063"/>
<path d="M126.667 271.631H124.569V309.372H126.667V271.631Z" fill="#4D0063"/>
<path d="M133.839 271.631H131.74V309.372H133.839V271.631Z" fill="#4D0063"/>
<path d="M141.009 271.631H138.911V309.372H141.009V271.631Z" fill="#4D0063"/>
<path d="M148.18 271.631H146.081V309.372H148.18V271.631Z" fill="#4D0063"/>
<path d="M155.176 271.631H153.077V309.372H155.176V271.631Z" fill="#4D0063"/>
<path d="M162.347 271.631H160.248V309.372H162.347V271.631Z" fill="#4D0063"/>
<path d="M169.518 271.631H167.419V309.372H169.518V271.631Z" fill="#4D0063"/>
<path d="M176.689 271.631H174.59V309.372H176.689V271.631Z" fill="#4D0063"/>
<path d="M183.86 271.631H181.761V309.372H183.86V271.631Z" fill="#4D0063"/>
<path d="M191.031 271.631H188.932V309.372H191.031V271.631Z" fill="#4D0063"/>
<path d="M198.202 271.631H196.103V303.622H198.202V271.631Z" fill="#4D0063"/>
<path d="M139.96 311.111C174.348 311.111 202.224 295.149 202.224 275.458C202.224 255.767 174.348 239.804 139.96 239.804C105.572 239.804 77.6956 255.767 77.6956 275.458C77.6956 295.149 105.572 311.111 139.96 311.111Z" fill="url(#paint6_linear_11_3425)"/>
<path d="M139.96 304.85C170.001 304.85 194.354 290.912 194.354 273.718C194.354 256.525 170.001 242.587 139.96 242.587C109.919 242.587 85.566 256.525 85.566 273.718C85.566 290.912 109.919 304.85 139.96 304.85Z" stroke="#4D0063" stroke-width="1.1865" stroke-miterlimit="10"/>
<path d="M133.314 254.413L125.443 249.891L118.272 254.065L125.443 258.24L118.272 262.414L111.101 258.24L103.93 262.414L111.101 266.588L103.93 270.762L139.96 291.458L147.131 287.284L154.302 291.458L161.473 287.284L154.302 283.11L161.473 278.936L168.643 283.11L175.814 278.936L167.944 274.414C170.218 271.805 169.868 268.675 167.419 266.24C164.796 263.805 160.248 262.066 155.176 262.066C155.001 259.109 152.203 256.5 147.83 254.935C143.283 253.196 137.861 253.022 133.314 254.413ZM118.272 270.588L136.287 260.327C138.211 259.109 141.534 259.109 143.458 260.327C145.382 261.544 145.382 263.283 143.458 264.501L125.443 274.762L118.272 270.588ZM157.8 272.675L139.785 282.936L132.614 278.762L150.629 268.501C152.553 267.283 155.876 267.283 157.8 268.501C159.898 269.544 159.898 271.457 157.8 272.675Z" fill="white"/>
<path d="M77.6956 253.544L202.05 254.587V271.805C202.05 281.023 195.928 290.067 183.86 297.024C159.549 310.937 120.196 310.937 95.8852 297.024C83.8171 290.067 77.6956 280.849 77.6956 271.805V253.544Z" fill="url(#paint7_linear_11_3425)"/>
<path d="M83.817 251.283H81.7183V304.395H83.817V251.283Z" fill="#4D0063"/>
<path d="M90.9879 251.283H88.889V312.347H90.9879V251.283Z" fill="#4D0063"/>
<path d="M97.9839 251.283H95.8851V317.192H97.9839V251.283Z" fill="#4D0063"/>
<path d="M105.155 251.283H103.056V320.803H105.155V251.283Z" fill="#4D0063"/>
<path d="M112.326 251.283H110.227V323.314H112.326V251.283Z" fill="#4D0063"/>
<path d="M119.497 251.283H117.398V325.208H119.497V251.283Z" fill="#4D0063"/>
<path d="M126.667 251.283H124.569V326.485H126.667V251.283Z" fill="#4D0063"/>
<path d="M133.839 251.283H131.74V327.634H133.839V251.283Z" fill="#4D0063"/>
<path d="M141.009 251.283H138.911V327.634H141.009V251.283Z" fill="#4D0063"/>
<path d="M148.18 251.283H146.081V327.634H148.18V251.283Z" fill="#4D0063"/>
<path d="M155.176 251.283H153.077V326.418H155.176V251.283Z" fill="#4D0063"/>
<path d="M162.347 251.283H160.248V325.225H162.347V251.283Z" fill="#4D0063"/>
<path d="M169.518 251.283H167.419V323.288H169.518V251.283Z" fill="#4D0063"/>
<path d="M176.689 251.283H174.59V320.904H176.689V251.283Z" fill="#4D0063"/>
<path d="M183.86 251.283H181.761V317.278H183.86V251.283Z" fill="#4D0063"/>
<path d="M191.031 251.283H188.932V312.509H191.031V251.283Z" fill="#4D0063"/>
<path d="M198.202 251.283H196.103V304.463H198.202V251.283Z" fill="#4D0063"/>
<path d="M139.96 290.763C174.348 290.763 202.224 274.8 202.224 255.109C202.224 235.418 174.348 219.455 139.96 219.455C105.572 219.455 77.6956 235.418 77.6956 255.109C77.6956 274.8 105.572 290.763 139.96 290.763Z" fill="url(#paint8_linear_11_3425)"/>
<path d="M139.96 284.675C170.001 284.675 194.354 270.737 194.354 253.544C194.354 236.35 170.001 222.412 139.96 222.412C109.919 222.412 85.566 236.35 85.566 253.544C85.566 270.737 109.919 284.675 139.96 284.675Z" stroke="#4D0063" stroke-width="1.1865" stroke-miterlimit="10"/>
<path d="M133.314 234.065L125.443 229.543L118.272 233.717L125.443 237.891L118.272 242.065L111.101 237.891L103.93 242.065L111.101 246.239L103.93 250.413L139.96 271.11L147.131 266.935L154.302 271.11L161.473 266.935L154.302 262.761L161.473 258.587L168.643 262.761L175.814 258.587L167.944 254.065C170.218 251.457 169.868 248.326 167.419 245.891C164.796 243.456 160.248 241.717 155.176 241.717C155.001 238.76 152.203 236.152 147.83 234.586C143.283 233.021 137.861 232.847 133.314 234.065ZM118.272 250.239L136.287 239.978C138.211 238.76 141.534 238.76 143.458 239.978C145.382 241.195 145.382 242.935 143.458 244.152L125.443 254.413L118.272 250.239ZM157.8 252.326L139.785 262.587L132.614 258.413L150.629 248.152C152.553 246.935 155.876 246.935 157.8 248.152C159.898 249.37 159.898 251.109 157.8 252.326Z" fill="white"/>
<path d="M77.6956 233.195L202.05 234.239V251.457C202.05 260.674 195.928 269.718 183.86 276.675C159.549 290.589 120.196 290.589 95.8852 276.675C83.8171 269.718 77.6956 260.5 77.6956 251.457V233.195Z" fill="url(#paint9_linear_11_3425)"/>
<path d="M83.817 230.934H81.7183V289.023H83.817V230.934Z" fill="#4D0063"/>
<path d="M90.9879 230.934H88.889V289.023H90.9879V230.934Z" fill="#4D0063"/>
<path d="M97.9839 230.934H95.8851V289.023H97.9839V230.934Z" fill="#4D0063"/>
<path d="M105.155 230.934H103.056V289.023H105.155V230.934Z" fill="#4D0063"/>
<path d="M112.326 230.934H110.227V289.023H112.326V230.934Z" fill="#4D0063"/>
<path d="M119.497 230.934H117.398V289.023H119.497V230.934Z" fill="#4D0063"/>
<path d="M126.667 230.934H124.569V289.023H126.667V230.934Z" fill="#4D0063"/>
<path d="M133.839 230.934H131.74V289.023H133.839V230.934Z" fill="#4D0063"/>
<path d="M141.009 230.934H138.911V289.023H141.009V230.934Z" fill="#4D0063"/>
<path d="M148.18 230.934H146.081V289.023H148.18V230.934Z" fill="#4D0063"/>
<path d="M155.176 230.934H153.077V289.023H155.176V230.934Z" fill="#4D0063"/>
<path d="M162.347 230.934H160.248V289.023H162.347V230.934Z" fill="#4D0063"/>
<path d="M169.518 230.934H167.419V289.023H169.518V230.934Z" fill="#4D0063"/>
<path d="M176.689 230.934H174.59V289.023H176.689V230.934Z" fill="#4D0063"/>
<path d="M183.86 230.934H181.761V289.023H183.86V230.934Z" fill="#4D0063"/>
<path d="M191.031 230.934H188.932V289.023H191.031V230.934Z" fill="#4D0063"/>
<path d="M198.202 230.934H196.103V289.023H198.202V230.934Z" fill="#4D0063"/>
<path d="M139.96 270.414C174.348 270.414 202.224 254.451 202.224 234.76C202.224 215.069 174.348 199.107 139.96 199.107C105.572 199.107 77.6956 215.069 77.6956 234.76C77.6956 254.451 105.572 270.414 139.96 270.414Z" fill="url(#paint10_linear_11_3425)"/>
<path d="M178.263 255.283C157.1 267.457 122.645 267.457 101.482 255.283C80.319 243.108 80.319 223.282 101.482 211.107C122.645 198.933 157.1 198.933 178.263 211.107C199.601 223.282 199.601 243.108 178.263 255.283Z" stroke="#4D0063" stroke-width="1.1865" stroke-miterlimit="10"/>
<path d="M133.314 213.89L125.443 209.368L118.272 213.542L125.443 217.716L118.272 221.89L111.101 217.716L103.93 221.89L111.101 226.064L103.93 230.238L139.96 250.935L147.131 246.761L154.302 250.935L161.473 246.761L154.302 242.587L161.473 238.413L168.643 242.587L175.814 238.413L167.944 233.891C170.218 231.282 169.868 228.151 167.419 225.716C164.796 223.282 160.248 221.542 155.176 221.542C155.001 218.586 152.203 215.977 147.83 214.412C143.283 212.672 137.861 212.499 133.314 213.89ZM118.272 229.891L136.287 219.629C138.211 218.412 141.534 218.412 143.458 219.629C145.382 220.847 145.382 222.586 143.458 223.803L125.443 234.065L118.272 229.891ZM157.8 231.978L139.785 242.239L132.614 238.065L150.629 227.804C152.553 226.586 155.876 226.586 157.8 227.804C159.898 229.021 159.898 230.934 157.8 231.978Z" fill="white"/>
<path d="M77.6952 212.846L202.049 213.89V231.108C202.049 240.326 195.928 249.37 183.86 256.326C159.548 270.24 120.196 270.24 95.8848 256.326C83.8167 249.37 77.6952 240.152 77.6952 231.108V212.846Z" fill="url(#paint11_linear_11_3425)"/>
<path d="M83.817 210.759H81.7183V268.849H83.817V210.759Z" fill="#4D0063"/>
<path d="M90.9879 210.759H88.889V268.849H90.9879V210.759Z" fill="#4D0063"/>
<path d="M97.9839 210.759H95.8851V268.849H97.9839V210.759Z" fill="#4D0063"/>
<path d="M105.155 210.759H103.056V268.849H105.155V210.759Z" fill="#4D0063"/>
<path d="M112.326 210.759H110.227V268.849H112.326V210.759Z" fill="#4D0063"/>
<path d="M119.497 210.759H117.398V268.849H119.497V210.759Z" fill="#4D0063"/>
<path d="M126.667 210.759H124.569V268.849H126.667V210.759Z" fill="#4D0063"/>
<path d="M133.839 210.759H131.74V268.849H133.839V210.759Z" fill="#4D0063"/>
<path d="M141.009 210.759H138.911V268.849H141.009V210.759Z" fill="#4D0063"/>
<path d="M148.18 210.759H146.081V268.849H148.18V210.759Z" fill="#4D0063"/>
<path d="M155.176 210.759H153.077V268.849H155.176V210.759Z" fill="#4D0063"/>
<path d="M162.347 210.759H160.248V268.849H162.347V210.759Z" fill="#4D0063"/>
<path d="M169.518 210.759H167.419V268.849H169.518V210.759Z" fill="#4D0063"/>
<path d="M176.689 210.759H174.59V268.849H176.689V210.759Z" fill="#4D0063"/>
<path d="M183.86 210.759H181.761V268.849H183.86V210.759Z" fill="#4D0063"/>
<path d="M191.031 210.759H188.932V268.849H191.031V210.759Z" fill="#4D0063"/>
<path d="M198.202 210.759H196.103V268.849H198.202V210.759Z" fill="#4D0063"/>
<path d="M183.86 239.804C159.549 253.718 120.196 253.718 95.8851 239.804C71.574 225.89 71.574 203.281 95.8851 189.367C120.196 175.454 159.549 175.454 183.86 189.367C208.171 203.281 208.171 225.89 183.86 239.804Z" fill="url(#paint12_linear_11_3425)"/>
<path d="M139.96 243.978C170.001 243.978 194.354 230.04 194.354 212.846C194.354 195.653 170.001 181.715 139.96 181.715C109.919 181.715 85.5659 195.653 85.5659 212.846C85.5659 230.04 109.919 243.978 139.96 243.978Z" stroke="#4D0063" stroke-width="1.1865" stroke-miterlimit="10"/>
<path d="M133.314 193.541L125.443 189.019L118.272 193.193L125.443 197.368L118.272 201.542L111.101 197.368L103.93 201.542L111.101 205.716L103.93 209.89L139.96 230.586L147.131 226.412L154.302 230.586L161.473 226.412L154.302 222.238L161.473 218.064L168.643 222.238L175.814 218.064L167.944 213.542C170.218 210.933 169.868 207.803 167.419 205.368C164.796 202.933 160.248 201.194 155.176 201.194C155.001 198.237 152.203 195.628 147.83 194.063C143.283 192.324 137.861 192.324 133.314 193.541ZM118.272 209.716L136.287 199.455C138.211 198.237 141.534 198.237 143.458 199.455C145.382 200.672 145.382 202.411 143.458 203.629L125.443 213.89L118.272 209.716ZM157.8 211.803L139.785 222.064L132.614 217.89L150.629 207.629C152.553 206.411 155.876 206.411 157.8 207.629C159.898 208.672 159.898 210.585 157.8 211.803Z" fill="white"/>
<path d="M77.6952 192.672L202.049 193.715V210.933C202.049 220.151 195.928 229.195 183.86 236.152C159.548 250.065 120.196 250.065 95.8848 236.152C83.8167 229.195 77.6952 219.977 77.6952 210.933V192.672Z" fill="url(#paint13_linear_11_3425)"/>
<path d="M83.817 190.411H81.7183V248.5H83.817V190.411Z" fill="#4D0063"/>
<path d="M90.9877 190.411H88.8889V248.5H90.9877V190.411Z" fill="#4D0063"/>
<path d="M97.9838 190.411H95.885V248.5H97.9838V190.411Z" fill="#4D0063"/>
<path d="M105.155 190.411H103.056V248.5H105.155V190.411Z" fill="#4D0063"/>
<path d="M112.325 190.411H110.227V248.5H112.325V190.411Z" fill="#4D0063"/>
<path d="M119.497 190.411H117.398V248.5H119.497V190.411Z" fill="#4D0063"/>
<path d="M126.667 190.411H124.569V248.5H126.667V190.411Z" fill="#4D0063"/>
<path d="M133.838 190.411H131.74V248.5H133.838V190.411Z" fill="#4D0063"/>
<path d="M141.009 190.411H138.911V248.5H141.009V190.411Z" fill="#4D0063"/>
<path d="M148.18 190.411H146.081V248.5H148.18V190.411Z" fill="#4D0063"/>
<path d="M155.176 190.411H153.077V248.5H155.176V190.411Z" fill="#4D0063"/>
<path d="M162.347 190.411H160.248V248.5H162.347V190.411Z" fill="#4D0063"/>
<path d="M169.518 190.411H167.419V248.5H169.518V190.411Z" fill="#4D0063"/>
<path d="M176.689 190.411H174.59V248.5H176.689V190.411Z" fill="#4D0063"/>
<path d="M183.86 190.411H181.761V248.5H183.86V190.411Z" fill="#4D0063"/>
<path d="M191.031 190.411H188.932V248.5H191.031V190.411Z" fill="#4D0063"/>
<path d="M198.202 190.411H196.103V248.5H198.202V190.411Z" fill="#4D0063"/>
<path d="M183.86 219.455C159.549 233.369 120.196 233.369 95.8849 219.455C71.5738 205.542 71.5738 182.932 95.8849 169.019C120.196 155.105 159.549 155.105 183.86 169.019C208.171 182.932 208.171 205.542 183.86 219.455Z" fill="url(#paint14_linear_11_3425)"/>
<path d="M139.96 223.803C170.001 223.803 194.354 209.865 194.354 192.672C194.354 175.478 170.001 161.54 139.96 161.54C109.919 161.54 85.5659 175.478 85.5659 192.672C85.5659 209.865 109.919 223.803 139.96 223.803Z" stroke="#4D0063" stroke-width="1.1865" stroke-miterlimit="10"/>
<path d="M133.314 173.193L125.443 168.671L118.272 172.845L125.443 177.019L118.272 181.193L111.101 177.019L103.93 181.193L111.101 185.367L103.93 189.541L139.96 210.238L147.131 206.064L154.302 210.238L161.472 206.064L154.302 201.889L161.472 197.715L168.643 201.889L175.814 197.715L167.944 193.193C170.217 190.585 169.868 187.454 167.419 185.019C164.796 182.584 160.248 180.845 155.176 180.845C155.001 177.888 152.203 175.28 147.83 173.714C143.283 172.149 137.861 171.975 133.314 173.193ZM118.272 189.367L136.287 179.106C138.211 177.888 141.534 177.888 143.458 179.106C145.382 180.323 145.382 182.063 143.458 183.28L125.443 193.541L118.272 189.367ZM157.8 191.454L139.785 201.716L132.614 197.541L150.629 187.28C152.553 186.063 155.876 186.063 157.8 187.28C159.898 188.498 159.898 190.237 157.8 191.454Z" fill="white"/>
<g opacity="0.5">
<path opacity="0.5" d="M206.072 114.929H205.722C205.548 114.929 205.548 114.756 205.548 114.756V114.408C205.548 114.234 205.722 114.234 205.722 114.234H206.072C206.247 114.234 206.247 114.408 206.247 114.408V114.756C206.247 114.756 206.247 114.929 206.072 114.929Z" fill="white"/>
<path opacity="0.5" d="M202.399 166.41H202.05C201.875 166.41 201.875 166.236 201.875 166.236V165.888C201.875 165.714 202.05 165.714 202.05 165.714H202.399C202.574 165.714 202.574 165.888 202.574 165.888V166.236C202.574 166.236 202.574 166.41 202.399 166.41Z" fill="white"/>
<path opacity="0.5" d="M178.613 155.279H178.263C178.088 155.279 178.088 155.105 178.088 155.105V154.757C178.088 154.583 178.263 154.583 178.263 154.583H178.613C178.788 154.583 178.788 154.757 178.788 154.757V154.931C178.963 155.105 178.788 155.279 178.613 155.279Z" fill="white"/>
<path opacity="0.5" d="M162.697 158.931H162.347C162.172 158.931 162.172 158.757 162.172 158.757V158.409C162.172 158.236 162.347 158.236 162.347 158.236H162.697C162.872 158.236 162.872 158.409 162.872 158.409V158.757C163.047 158.757 162.872 158.931 162.697 158.931Z" fill="white"/>
<path opacity="0.5" d="M154.477 142.583L154.127 142.409C153.952 142.409 153.952 142.235 153.952 142.061L154.127 141.713C154.127 141.539 154.302 141.539 154.477 141.539L154.827 141.713C155.002 141.713 155.002 141.887 155.002 142.061L154.827 142.409C154.827 142.583 154.652 142.583 154.477 142.583Z" fill="white"/>
<path opacity="0.5" d="M141.884 173.714L141.534 173.541C141.359 173.541 141.359 173.367 141.359 173.193L141.534 172.845C141.534 172.671 141.709 172.671 141.884 172.671L142.234 172.845C142.409 172.845 142.409 173.019 142.409 173.193L142.234 173.541C142.234 173.714 142.059 173.714 141.884 173.714Z" fill="white"/>
<path opacity="0.5" d="M122.82 128.843L122.47 128.669C122.295 128.669 122.295 128.495 122.295 128.321L122.47 127.973C122.47 127.8 122.645 127.8 122.82 127.8L123.17 127.973C123.344 127.973 123.344 128.147 123.344 128.321L123.17 128.669C122.995 128.843 122.82 128.843 122.82 128.843Z" fill="white"/>
<path opacity="0.5" d="M90.6384 142.931L90.2885 142.757C90.1136 142.757 90.1136 142.583 90.1136 142.409L90.2885 142.061C90.2885 141.887 90.4635 141.887 90.6384 141.887L90.9882 142.061C91.1631 142.061 91.163 142.235 91.163 142.409L90.9882 142.757C90.8133 142.931 90.8133 143.104 90.6384 142.931Z" fill="white"/>
<path opacity="0.5" d="M106.379 189.715L106.029 189.541C105.854 189.541 105.854 189.367 105.854 189.193L106.029 188.845C106.029 188.672 106.204 188.672 106.379 188.672L106.729 188.845C106.904 188.845 106.904 189.019 106.904 189.193L106.729 189.541C106.554 189.715 106.554 189.889 106.379 189.715Z" fill="white"/>
<path opacity="0.5" d="M112.326 157.888L111.976 157.714C111.801 157.714 111.801 157.54 111.801 157.366L111.976 157.018C111.976 156.844 112.151 156.844 112.326 156.844L112.676 157.018C112.85 157.018 112.85 157.192 112.85 157.366L112.676 157.714C112.676 157.888 112.501 157.888 112.326 157.888Z" fill="white"/>
<path opacity="0.5" d="M90.6384 119.277L90.2885 119.104C90.1136 119.104 90.1136 118.93 90.1136 118.756L90.2885 118.408C90.2885 118.234 90.4635 118.234 90.6384 118.234L90.9882 118.408C91.1631 118.408 91.163 118.582 91.163 118.756L90.9882 119.104C90.8133 119.277 90.8133 119.277 90.6384 119.277Z" fill="white"/>
<path opacity="0.5" d="M65.1028 150.409L64.753 150.235C64.5781 150.235 64.5781 150.061 64.5781 149.887L64.753 149.54C64.753 149.366 64.9279 149.366 65.1028 149.366L65.4526 149.54C65.6275 149.54 65.6275 149.713 65.6275 149.887L65.4526 150.235C65.4526 150.409 65.2777 150.409 65.1028 150.409Z" fill="white"/>
<path opacity="0.5" d="M65.1028 126.756L64.753 126.582C64.5781 126.582 64.5781 126.408 64.5781 126.234L64.753 125.886C64.753 125.712 64.9279 125.712 65.1028 125.712L65.4526 125.886C65.6275 125.886 65.6275 126.06 65.6275 126.234L65.4526 126.582C65.4526 126.756 65.2777 126.756 65.1028 126.756Z" fill="white"/>
<path opacity="0.5" d="M221.988 142.583L221.638 142.409C221.463 142.409 221.463 142.235 221.463 142.061L221.638 141.713C221.638 141.539 221.813 141.539 221.988 141.539L222.338 141.713C222.513 141.713 222.513 141.887 222.513 142.061L222.338 142.409C222.163 142.583 221.988 142.583 221.988 142.583Z" fill="white"/>
<path opacity="0.5" d="M224.087 126.756L223.737 126.582C223.562 126.582 223.562 126.408 223.562 126.234L223.737 125.886C223.737 125.712 223.912 125.712 224.087 125.712L224.437 125.886C224.612 125.886 224.612 126.06 224.612 126.234L224.437 126.582C224.262 126.756 224.087 126.756 224.087 126.756Z" fill="white"/>
<path opacity="0.5" d="M192.78 149.192L192.43 149.018C192.255 149.018 192.255 148.844 192.255 148.67L192.43 148.322C192.43 148.148 192.605 148.148 192.78 148.148L193.13 148.322C193.304 148.322 193.305 148.496 193.305 148.67L193.13 149.018C192.955 149.018 192.78 149.192 192.78 149.192Z" fill="white"/>
<path opacity="0.5" d="M179.662 121.538L179.312 121.364C179.138 121.364 179.138 121.191 179.138 121.017L179.312 120.669C179.312 120.495 179.487 120.495 179.662 120.495L180.012 120.669C180.187 120.669 180.187 120.843 180.187 121.017L180.012 121.364C179.837 121.538 179.662 121.538 179.662 121.538Z" fill="white"/>
<path opacity="0.5" d="M144.857 201.889H144.507C144.332 201.889 144.332 201.716 144.332 201.716V201.368C144.332 201.194 144.507 201.194 144.507 201.194H144.857C145.032 201.194 145.032 201.368 145.032 201.368V201.716C145.032 201.889 145.032 201.889 144.857 201.889Z" fill="white"/>
<path opacity="0.5" d="M184.559 176.323L184.21 176.149C184.035 176.149 184.035 175.975 184.035 175.801L184.21 175.454C184.21 175.28 184.384 175.28 184.559 175.28L184.909 175.454C185.084 175.454 185.084 175.628 185.084 175.801L184.909 176.149C184.909 176.323 184.734 176.323 184.559 176.323Z" fill="white"/>
<path opacity="0.5" d="M91.3376 163.627L90.9878 163.453C90.8129 163.453 90.8129 163.279 90.8129 163.105L90.9878 162.757C90.9878 162.584 91.1627 162.584 91.3376 162.584L91.6874 162.757C91.8623 162.757 91.8623 162.931 91.8623 163.105L91.6874 163.453C91.6874 163.627 91.5125 163.627 91.3376 163.627Z" fill="white"/>
<path opacity="0.5" d="M160.248 192.15L159.898 191.976C159.723 191.976 159.724 191.802 159.724 191.628L159.898 191.28C159.898 191.106 160.073 191.106 160.248 191.106L160.598 191.28C160.773 191.28 160.773 191.454 160.773 191.628L160.598 191.976C160.423 192.15 160.248 192.15 160.248 192.15Z" fill="white"/>
<path opacity="0.5" d="M168.294 132.321L167.944 132.148C167.769 132.148 167.769 131.974 167.769 131.8L167.944 131.452C167.944 131.278 168.119 131.278 168.294 131.278L168.644 131.452C168.818 131.452 168.818 131.626 168.818 131.8L168.644 132.148C168.469 132.321 168.469 132.495 168.294 132.321Z" fill="white"/>
</g>
<g opacity="0.5">
<path opacity="0.5" d="M160.598 29.1869H160.248C160.074 29.1869 160.074 29.013 160.074 29.013V28.6651C160.074 28.4912 160.248 28.4912 160.248 28.4912H160.598C160.773 28.4912 160.773 28.6651 160.773 28.6651V29.013C160.773 29.1869 160.598 29.1869 160.598 29.1869Z" fill="white"/>
<path opacity="0.5" d="M156.75 80.8411H156.4C156.226 80.8411 156.226 80.6672 156.226 80.6672V80.1455C156.226 79.9715 156.4 79.9715 156.4 79.9715H156.75C156.925 79.9715 156.925 80.1455 156.925 80.1455V80.4933C157.1 80.6672 156.925 80.8411 156.75 80.8411Z" fill="white"/>
<path opacity="0.5" d="M134.713 54.9271H134.363C134.188 54.9271 134.188 54.7531 134.188 54.7531V54.4053C134.188 54.2314 134.363 54.2314 134.363 54.2314H134.713C134.888 54.2314 134.888 54.4053 134.888 54.4053V54.7531L134.713 54.9271Z" fill="white"/>
<path opacity="0.5" d="M117.223 73.1886H116.873C116.698 73.1886 116.698 73.0147 116.698 73.0147V72.6669C116.698 72.493 116.873 72.493 116.873 72.493H117.223C117.398 72.493 117.398 72.6669 117.398 72.6669V73.0147C117.398 73.1886 117.223 73.1886 117.223 73.1886Z" fill="white"/>
<path opacity="0.5" d="M102.531 41.0135L102.181 40.8395C102.007 40.8395 102.007 40.6656 102.007 40.4917L102.181 40.1439C102.181 39.9699 102.356 39.9699 102.531 39.9699L102.881 40.1439C103.056 40.1439 103.056 40.3178 103.056 40.4917L102.881 40.8395C102.706 41.0135 102.706 41.1874 102.531 41.0135Z" fill="white"/>
<path opacity="0.5" d="M96.4097 88.1458L96.0599 87.9719C95.885 87.9719 95.885 87.7979 95.885 87.624L96.0599 87.2762C96.0599 87.1022 96.2348 87.1022 96.4097 87.1022L96.7595 87.2762C96.9344 87.2762 96.9344 87.4501 96.9344 87.624L96.7595 87.9719C96.5846 88.1458 96.5846 88.1458 96.4097 88.1458Z" fill="white"/>
<path opacity="0.5" d="M77.1707 43.2744L76.8209 43.1005C76.646 43.1005 76.646 42.9266 76.646 42.7526L76.8209 42.4048C76.8209 42.2309 76.9958 42.2309 77.1707 42.2309L77.5205 42.4048C77.6954 42.4048 77.6954 42.5787 77.6954 42.7526L77.5205 43.1005C77.3456 43.2744 77.3456 43.2744 77.1707 43.2744Z" fill="white"/>
<path opacity="0.5" d="M60.9052 104.146L60.5555 103.972C60.3806 103.972 60.3806 103.799 60.3806 103.625L60.5555 103.277C60.5555 103.103 60.7303 103.103 60.9052 103.103L61.255 103.277C61.4299 103.277 61.4299 103.451 61.4299 103.625L61.255 103.972C61.0802 104.146 60.9052 104.146 60.9052 104.146Z" fill="white"/>
<path opacity="0.5" d="M66.8518 72.1451L66.502 71.9712C66.3271 71.9712 66.3271 71.7973 66.3271 71.6234L66.502 71.2755C66.502 71.1016 66.6769 71.1016 66.8518 71.1016L67.2016 71.2755C67.3765 71.2755 67.3765 71.4494 67.3765 71.6234L67.2016 71.9712C67.0267 72.1451 67.0267 72.319 66.8518 72.1451Z" fill="white"/>
<path opacity="0.5" d="M176.339 56.8402L175.989 56.6662C175.814 56.6662 175.814 56.4923 175.814 56.3184L175.989 55.9706C175.989 55.7966 176.164 55.7966 176.339 55.7966L176.689 55.9706C176.864 55.9706 176.864 56.1445 176.864 56.3184L176.689 56.6662C176.689 56.8402 176.514 57.0141 176.339 56.8402Z" fill="white"/>
<path opacity="0.5" d="M190.681 88.6675L190.331 88.4936C190.156 88.4936 190.156 88.3197 190.156 88.1458L190.331 87.7979C190.331 87.624 190.506 87.624 190.681 87.624L191.031 87.7979C191.206 87.7979 191.206 87.9718 191.206 88.1458L191.031 88.4936C190.856 88.6675 190.681 88.8415 190.681 88.6675Z" fill="white"/>
<path opacity="0.5" d="M224.087 85.7109L223.737 85.537C223.562 85.537 223.562 85.3631 223.562 85.1891L223.737 84.8413C223.737 84.6674 223.912 84.6674 224.087 84.6674L224.437 84.8413C224.611 84.8413 224.611 85.0152 224.611 85.1891L224.437 85.537C224.437 85.7109 224.262 85.8848 224.087 85.7109Z" fill="white"/>
<path opacity="0.5" d="M246.299 75.9714L245.949 75.7975C245.775 75.7975 245.775 75.6235 245.775 75.4496L245.949 75.1018C245.949 74.9279 246.124 74.9279 246.299 74.9279L246.649 75.1018C246.824 75.1018 246.824 75.2757 246.824 75.4496L246.649 75.7975C246.474 75.9714 246.299 75.9714 246.299 75.9714Z" fill="white"/>
<path opacity="0.5" d="M99.3831 116.321H99.0333C98.8584 116.321 98.8584 116.147 98.8584 116.147V115.799C98.8584 115.625 99.0333 115.625 99.0333 115.625H99.3831C99.558 115.625 99.558 115.799 99.558 115.799V116.147L99.3831 116.321Z" fill="white"/>
<path opacity="0.5" d="M139.085 90.5807L138.736 90.4068C138.561 90.4068 138.561 90.2328 138.561 90.0589L138.736 89.7111C138.736 89.5372 138.911 89.5372 139.085 89.5372L139.435 89.7111C139.61 89.7111 139.61 89.885 139.61 90.0589L139.435 90.4068C139.26 90.5807 139.085 90.7546 139.085 90.5807Z" fill="white"/>
<path opacity="0.5" d="M45.8637 77.8845L45.5139 77.7106C45.339 77.7106 45.339 77.5366 45.339 77.3627L45.5139 77.0149C45.5139 76.841 45.6888 76.841 45.8637 76.841L46.2135 77.0149C46.3884 77.0149 46.3884 77.1888 46.3884 77.3627L46.2135 77.7106C46.0386 77.8845 45.8637 77.8845 45.8637 77.8845Z" fill="white"/>
<path opacity="0.5" d="M114.6 106.581L114.25 106.407C114.075 106.407 114.075 106.233 114.075 106.06L114.25 105.712C114.25 105.538 114.425 105.538 114.6 105.538L114.949 105.712C115.124 105.712 115.124 105.886 115.124 106.06L114.949 106.407C114.774 106.581 114.774 106.581 114.6 106.581Z" fill="white"/>
<path opacity="0.5" d="M153.952 49.1877L153.602 49.0138C153.427 49.0138 153.427 48.8399 153.427 48.6659L153.602 48.3181C153.602 48.1442 153.777 48.1442 153.952 48.1442L154.302 48.3181C154.477 48.3181 154.477 48.492 154.477 48.6659L154.302 49.0138C154.127 49.1877 154.127 49.1877 153.952 49.1877Z" fill="white"/>
</g>
<path opacity="0.8" d="M183.86 219.803C159.724 233.717 120.371 233.717 96.2351 219.803C83.6423 212.499 77.5207 202.933 78.0454 193.367C62.8291 164.671 40.7917 137.539 0.214905 65.1883C66.502 -10.4669 170.917 -27.5111 271.485 53.0139C281.804 61.3621 210.62 175.106 202.05 193.367C202.574 202.933 196.628 212.672 183.86 219.803Z" fill="url(#paint15_linear_11_3425)"/>
<defs>
<linearGradient id="paint0_linear_11_3425" x1="285.953" y1="363.771" x2="26.6666" y2="281.893" gradientUnits="userSpaceOnUse">
<stop stop-color="#000053"/>
<stop offset="0.5425" stop-color="#23007F"/>
<stop offset="1" stop-color="#4F34D7"/>
</linearGradient>
<linearGradient id="paint1_linear_11_3425" x1="138.253" y1="289.277" x2="138.253" y2="437.44" gradientUnits="userSpaceOnUse">
<stop offset="0.0873016" stop-color="#EB5757"/>
<stop offset="0.9709" stop-color="#3C53D7"/>
</linearGradient>
<linearGradient id="paint2_linear_11_3425" x1="91.0721" y1="245.493" x2="201.904" y2="384.5" gradientUnits="userSpaceOnUse">
<stop stop-color="#3C53D7"/>
<stop offset="1" stop-color="#1A1B6E"/>
</linearGradient>
<radialGradient id="paint3_radial_11_3425" cx="0" cy="0" r="1" gradientUnits="userSpaceOnUse" gradientTransform="translate(137.108 303.686) scale(69.2041 58.0582)">
<stop stop-color="#2F3C9E"/>
<stop offset="0.1211" stop-color="#253184"/>
<stop offset="0.2995" stop-color="#192364"/>
<stop offset="0.4722" stop-color="#11194D"/>
<stop offset="0.635" stop-color="#0C1340"/>
<stop offset="0.7778" stop-color="#0A113B"/>
<stop offset="1" stop-color="#000020"/>
</radialGradient>
<radialGradient id="paint4_radial_11_3425" cx="0" cy="0" r="1" gradientUnits="userSpaceOnUse" gradientTransform="translate(138.992 301.118) scale(58.2653 48.8811)">
<stop stop-color="#2F3C9E"/>
<stop offset="0.1211" stop-color="#253184"/>
<stop offset="0.2995" stop-color="#192364"/>
<stop offset="0.4722" stop-color="#11194D"/>
<stop offset="0.635" stop-color="#0C1340"/>
<stop offset="0.7778" stop-color="#0A113B"/>
<stop offset="1" stop-color="#000020"/>
</radialGradient>
<linearGradient id="paint5_linear_11_3425" x1="139.892" y1="295.452" x2="139.892" y2="348.095" gradientUnits="userSpaceOnUse">
<stop offset="0.0873016" stop-color="#EB5757"/>
<stop offset="0.9709" stop-color="#3C53D7"/>
</linearGradient>
<linearGradient id="paint6_linear_11_3425" x1="139.98" y1="268.548" x2="139.98" y2="338.173" gradientUnits="userSpaceOnUse">
<stop offset="0.0873016" stop-color="#EB5757"/>
<stop offset="0.9709" stop-color="#3C53D7"/>
</linearGradient>
<linearGradient id="paint7_linear_11_3425" x1="139.892" y1="275.277" x2="139.892" y2="327.92" gradientUnits="userSpaceOnUse">
<stop offset="0.0873016" stop-color="#EB5757"/>
<stop offset="0.9709" stop-color="#3C53D7"/>
</linearGradient>
<linearGradient id="paint8_linear_11_3425" x1="139.98" y1="248.2" x2="139.98" y2="317.824" gradientUnits="userSpaceOnUse">
<stop offset="0.0873016" stop-color="#EB5757"/>
<stop offset="0.9709" stop-color="#3C53D7"/>
</linearGradient>
<linearGradient id="paint9_linear_11_3425" x1="139.892" y1="254.928" x2="139.892" y2="307.572" gradientUnits="userSpaceOnUse">
<stop offset="0.0873016" stop-color="#EB5757"/>
<stop offset="0.9709" stop-color="#3C53D7"/>
</linearGradient>
<linearGradient id="paint10_linear_11_3425" x1="139.98" y1="227.851" x2="139.98" y2="297.476" gradientUnits="userSpaceOnUse">
<stop offset="0.0873016" stop-color="#EB5757"/>
<stop offset="0.9709" stop-color="#3C53D7"/>
</linearGradient>
<linearGradient id="paint11_linear_11_3425" x1="139.892" y1="234.58" x2="139.892" y2="287.223" gradientUnits="userSpaceOnUse">
<stop offset="0.0873016" stop-color="#EB5757"/>
<stop offset="0.9709" stop-color="#3C53D7"/>
</linearGradient>
<linearGradient id="paint12_linear_11_3425" x1="139.892" y1="207.676" x2="139.892" y2="277.301" gradientUnits="userSpaceOnUse">
<stop offset="0.0873016" stop-color="#EB5757"/>
<stop offset="0.9709" stop-color="#3C53D7"/>
</linearGradient>
<linearGradient id="paint13_linear_11_3425" x1="139.892" y1="214.405" x2="139.892" y2="267.048" gradientUnits="userSpaceOnUse">
<stop offset="0.0873016" stop-color="#EB5757"/>
<stop offset="0.9709" stop-color="#3C53D7"/>
</linearGradient>
<linearGradient id="paint14_linear_11_3425" x1="139.892" y1="187.328" x2="139.892" y2="256.952" gradientUnits="userSpaceOnUse">
<stop offset="0.0873016" stop-color="#EB5757"/>
<stop offset="0.9709" stop-color="#3C53D7"/>
</linearGradient>
<linearGradient id="paint15_linear_11_3425" x1="134.195" y1="19.5265" x2="146.233" y2="243.472" gradientUnits="userSpaceOnUse">
<stop stop-color="#F1EBF9" stop-opacity="0"/>
<stop offset="0.252" stop-color="#F2EEFA" stop-opacity="0"/>
<stop offset="0.2989" stop-color="#F3F0FA" stop-opacity="0"/>
<stop offset="0.4873" stop-color="#EDF9FD" stop-opacity="0.137"/>
<stop offset="0.5741" stop-color="#E9FFFF" stop-opacity="0.2"/>
<stop offset="1" stop-color="#E6FFFF"/>
</linearGradient>
</defs>
</svg>
