<svg width="67" height="71" viewBox="0 0 67 71" fill="none" xmlns="http://www.w3.org/2000/svg">
<path d="M66.3396 49.0127C66.3396 60.6872 56.8776 70.1492 45.2031 70.1492C33.5286 70.1492 24.0666 60.6872 24.0666 49.0127C24.0666 37.3382 33.5286 27.8762 45.2031 27.8762C56.8776 27.8291 66.3396 37.3382 66.3396 49.0127Z" fill="#C08ACF" stroke="#280074" stroke-miterlimit="10"/>
<path d="M62.5265 49.0127C62.5265 58.5689 54.7592 66.3362 45.2031 66.3362C35.6469 66.3362 27.8796 58.5689 27.8796 49.0127C27.8796 39.4566 35.6469 31.6893 45.2031 31.6893C54.7592 31.6893 62.5265 39.4095 62.5265 49.0127Z" fill="#C08ACF" stroke="#280074" stroke-miterlimit="10"/>
<path d="M45.156 27.8292C33.4815 27.8762 24.0666 37.3382 24.0666 49.0128C24.0666 60.6873 33.5286 70.1493 45.156 70.1493V27.8292Z" fill="#C08ACF"/>
<path d="M66.3396 49.0127C66.3396 60.6872 56.8776 70.1492 45.2031 70.1492C33.5286 70.1492 24.0666 60.6872 24.0666 49.0127C24.0666 37.3382 33.5286 27.8762 45.2031 27.8762C56.8776 27.8291 66.3396 37.3382 66.3396 49.0127Z" stroke="#280074" stroke-miterlimit="10"/>
<path d="M62.5266 49.0127C62.5266 58.5689 54.7592 66.3362 45.2031 66.3362C35.6469 66.3362 27.8796 58.5689 27.8796 49.0127C27.8796 39.4566 35.6469 31.6893 45.2031 31.6893C54.7592 31.6893 62.5266 39.4095 62.5266 49.0127Z" stroke="#280074" stroke-miterlimit="10"/>
<path d="M44.4499 27.8292V31.6893" stroke="#280074" stroke-miterlimit="10"/>
<path d="M44.4499 66.3362V70.1493" stroke="#280074" stroke-miterlimit="10"/>
<path d="M44.4499 27.8292V31.6893" stroke="#280074" stroke-miterlimit="10"/>
<path d="M44.4499 66.3362V70.1493" stroke="#280074" stroke-miterlimit="10"/>
<path d="M66.9045 49.0128H63.0914" stroke="#280074" stroke-miterlimit="10"/>
<path d="M28.4445 49.0128H24.6315" stroke="#280074" stroke-miterlimit="10"/>
<path d="M66.9045 49.0128H63.0914" stroke="#280074" stroke-miterlimit="10"/>
<path d="M28.4445 49.0128H24.6315" stroke="#280074" stroke-miterlimit="10"/>
<path d="M60.7377 34.043L58.0074 36.7734" stroke="#280074" stroke-miterlimit="10"/>
<path d="M33.5286 61.2521L30.7982 63.9825" stroke="#280074" stroke-miterlimit="10"/>
<path d="M60.7377 34.043L58.0074 36.7734" stroke="#280074" stroke-miterlimit="10"/>
<path d="M33.5286 61.2521L30.7982 63.9825" stroke="#280074" stroke-miterlimit="10"/>
<path d="M60.7377 63.9825L58.0074 61.2521" stroke="#280074" stroke-miterlimit="10"/>
<path d="M33.5286 36.7734L30.7982 34.043" stroke="#280074" stroke-miterlimit="10"/>
<path d="M60.7377 63.9825L58.0074 61.2521" stroke="#280074" stroke-miterlimit="10"/>
<path d="M33.5286 36.7734L30.7982 34.043" stroke="#280074" stroke-miterlimit="10"/>
<path d="M56.4068 30.7007L54.4768 33.996" stroke="#280074" stroke-miterlimit="10"/>
<path d="M37.0592 63.9825L35.1291 67.2778" stroke="#280074" stroke-miterlimit="10"/>
<path d="M56.4068 30.7007L54.4768 33.996" stroke="#280074" stroke-miterlimit="10"/>
<path d="M37.0592 63.9825L35.1291 67.2778" stroke="#280074" stroke-miterlimit="10"/>
<path d="M64.08 59.6046L60.7377 57.7216" stroke="#280074" stroke-miterlimit="10"/>
<path d="M30.7982 40.304L27.4559 38.3739" stroke="#280074" stroke-miterlimit="10"/>
<path d="M64.08 59.6046L60.7377 57.7216" stroke="#280074" stroke-miterlimit="10"/>
<path d="M30.7982 40.304L27.4559 38.3739" stroke="#280074" stroke-miterlimit="10"/>
<path d="M65.6335 43.5521L61.9617 44.5407" stroke="#280074" stroke-miterlimit="10"/>
<path d="M28.4445 53.4378L24.7727 54.4264" stroke="#280074" stroke-miterlimit="10"/>
<path d="M65.6335 43.5521L61.9617 44.5407" stroke="#280074" stroke-miterlimit="10"/>
<path d="M28.4445 53.4378L24.7727 54.4264" stroke="#280074" stroke-miterlimit="10"/>
<path d="M49.8635 69.4431L48.8749 65.7713" stroke="#280074" stroke-miterlimit="10"/>
<path d="M39.9778 32.2542L39.0363 28.5353" stroke="#280074" stroke-miterlimit="10"/>
<path d="M49.8635 69.4431L48.8749 65.7713" stroke="#280074" stroke-miterlimit="10"/>
<path d="M39.9778 32.2542L39.0363 28.5353" stroke="#280074" stroke-miterlimit="10"/>
<path d="M51.6523 28.6765L50.5696 32.3483" stroke="#280074" stroke-miterlimit="10"/>
<path d="M40.9664 65.6301L39.8836 69.349" stroke="#280074" stroke-miterlimit="10"/>
<path d="M51.6523 28.6765L50.5696 32.3483" stroke="#280074" stroke-miterlimit="10"/>
<path d="M40.9664 65.6301L39.8836 69.349" stroke="#280074" stroke-miterlimit="10"/>
<path d="M66.1042 54.85L62.4324 53.8144" stroke="#280074" stroke-miterlimit="10"/>
<path d="M29.1036 44.2111L25.4317 43.1284" stroke="#280074" stroke-miterlimit="10"/>
<path d="M66.1042 54.85L62.4324 53.8144" stroke="#280074" stroke-miterlimit="10"/>
<path d="M29.1036 44.2111L25.4317 43.1284" stroke="#280074" stroke-miterlimit="10"/>
<path d="M63.7034 38.7975L60.3611 40.6335" stroke="#280074" stroke-miterlimit="10"/>
<path d="M30.045 57.392L26.7027 59.2279" stroke="#280074" stroke-miterlimit="10"/>
<path d="M63.7034 38.7975L60.3611 40.6335" stroke="#280074" stroke-miterlimit="10"/>
<path d="M30.045 57.392L26.7027 59.2279" stroke="#280074" stroke-miterlimit="10"/>
<path d="M55.9832 67.5131L54.1473 64.1708" stroke="#280074" stroke-miterlimit="10"/>
<path d="M37.3887 33.8547L35.5528 30.4653" stroke="#280074" stroke-miterlimit="10"/>
<path d="M55.9832 67.5131L54.1473 64.1708" stroke="#280074" stroke-miterlimit="10"/>
<path d="M37.3887 33.8547L35.5528 30.4653" stroke="#280074" stroke-miterlimit="10"/>
<path d="M30.2333 49.7659C30.2333 41.4808 36.9179 34.7962 45.2031 34.7962" stroke="white" stroke-miterlimit="10" stroke-linecap="round" stroke-linejoin="round"/>
<path d="M47.4626 34.7962C47.4626 34.7962 50.2401 34.8904 52.9233 36.7733" stroke="white" stroke-miterlimit="10" stroke-linecap="round" stroke-linejoin="round"/>
<path d="M52.4526 50.7545C51.8406 50.0013 50.8991 49.4835 49.6752 49.2011C50.5225 48.9186 51.1345 48.542 51.5582 48.0242C52.2172 47.271 52.5467 46.3766 52.5467 45.3409C52.5467 44.117 52.076 43.0814 51.1816 42.234C50.4754 41.575 49.5339 41.1984 48.4041 41.0571V39.4566H46.4741V40.963H44.497V39.4566H42.5669V40.963H37.0592V58.5689H42.5669V60.1224H44.497V58.5689H46.4741V60.1224H48.4041V58.4277C48.5924 58.4277 48.7337 58.3806 48.922 58.3806C49.8635 58.2394 50.5225 58.0511 50.9933 57.8157C51.7464 57.392 52.3113 56.8271 52.735 56.074C53.1587 55.3678 53.3941 54.5205 53.3941 53.6261C53.347 52.4021 53.0645 51.5077 52.4526 50.7545ZM42.5669 44.4936H44.9677C45.768 44.4936 46.3799 44.6348 46.7095 44.9173C47.039 45.1997 47.2273 45.6234 47.2273 46.1412C47.2273 46.7061 47.039 47.1298 46.7095 47.4122C46.3799 47.6947 45.768 47.8359 44.9206 47.8359H42.5669V44.4936ZM42.5669 54.7559V51.2253H45.3443C46.2858 51.2253 46.9448 51.3665 47.3214 51.696C47.698 52.0255 47.8863 52.4492 47.8863 52.967C47.8863 53.5319 47.698 53.9556 47.3214 54.2851C46.9448 54.6146 46.2858 54.8029 45.3443 54.8029H42.5669V54.7559Z" fill="#280074"/>
<path d="M43.885 21.9448C43.885 33.7135 34.3288 43.2696 22.5602 43.2696C10.7915 43.2696 1.23535 33.7135 1.23535 21.9448C1.23535 10.1761 10.7915 0.619995 22.5602 0.619995C34.3288 0.619995 43.885 10.1761 43.885 21.9448Z" fill="#C08ACF" stroke="#280074" stroke-miterlimit="10"/>
<path d="M40.0249 21.9448C40.0249 31.5951 32.2105 39.4095 22.5602 39.4095C12.9099 39.4095 5.09547 31.5951 5.09547 21.9448C5.09547 12.2945 12.9099 4.4801 22.5602 4.4801C32.2105 4.4801 40.0249 12.2945 40.0249 21.9448Z" fill="#C08ACF" stroke="#280074" stroke-miterlimit="10"/>
<path d="M22.5131 0.619995C10.7444 0.66707 1.23535 10.1761 1.23535 21.9448C1.23535 33.7135 10.7444 43.2225 22.5131 43.2696V0.619995Z" fill="#C08ACF"/>
<path d="M43.885 21.9448C43.885 33.7135 34.3288 43.2696 22.5602 43.2696C10.7915 43.2696 1.23535 33.7135 1.23535 21.9448C1.23535 10.1761 10.7915 0.619995 22.5602 0.619995C34.3288 0.619995 43.885 10.1761 43.885 21.9448Z" stroke="#280074" stroke-miterlimit="10"/>
<path d="M40.0249 21.9448C40.0249 31.5951 32.2105 39.4095 22.5602 39.4095C12.9099 39.4095 5.09547 31.5951 5.09547 21.9448C5.09547 12.2945 12.9099 4.4801 22.5602 4.4801C32.2105 4.4801 40.0249 12.2945 40.0249 21.9448Z" stroke="#280074" stroke-miterlimit="10"/>
<path d="M21.807 0.619995V4.48012" stroke="#280074" stroke-miterlimit="10"/>
<path d="M21.807 39.4095V43.2696" stroke="#280074" stroke-miterlimit="10"/>
<path d="M21.807 0.619995V4.48012" stroke="#280074" stroke-miterlimit="10"/>
<path d="M21.807 39.4095V43.2696" stroke="#280074" stroke-miterlimit="10"/>
<path d="M44.4499 21.9448H40.5898" stroke="#280074" stroke-miterlimit="10"/>
<path d="M5.66037 21.9448H1.80025" stroke="#280074" stroke-miterlimit="10"/>
<path d="M44.4499 21.9448H40.5898" stroke="#280074" stroke-miterlimit="10"/>
<path d="M5.66037 21.9448H1.80025" stroke="#280074" stroke-miterlimit="10"/>
<path d="M38.1889 6.88092L35.4586 9.61125" stroke="#280074" stroke-miterlimit="10"/>
<path d="M10.7915 34.2784L8.06117 37.0087" stroke="#280074" stroke-miterlimit="10"/>
<path d="M38.1889 6.88092L35.4586 9.61125" stroke="#280074" stroke-miterlimit="10"/>
<path d="M10.7915 34.2784L8.06117 37.0087" stroke="#280074" stroke-miterlimit="10"/>
<path d="M38.1889 37.0087L35.4586 34.2784" stroke="#280074" stroke-miterlimit="10"/>
<path d="M10.7915 9.61125L8.06117 6.88092" stroke="#280074" stroke-miterlimit="10"/>
<path d="M38.1889 37.0087L35.4586 34.2784" stroke="#280074" stroke-miterlimit="10"/>
<path d="M10.7915 9.61125L8.06117 6.88092" stroke="#280074" stroke-miterlimit="10"/>
<path d="M33.811 3.49158L31.881 6.83388" stroke="#280074" stroke-miterlimit="10"/>
<path d="M14.3692 37.0558L12.4391 40.351" stroke="#280074" stroke-miterlimit="10"/>
<path d="M33.811 3.49158L31.881 6.83388" stroke="#280074" stroke-miterlimit="10"/>
<path d="M14.3692 37.0558L12.4391 40.351" stroke="#280074" stroke-miterlimit="10"/>
<path d="M41.5783 32.6307L38.236 30.7007" stroke="#280074" stroke-miterlimit="10"/>
<path d="M8.01411 13.1889L4.67181 11.2118" stroke="#280074" stroke-miterlimit="10"/>
<path d="M41.5783 32.6307L38.236 30.7007" stroke="#280074" stroke-miterlimit="10"/>
<path d="M8.01411 13.1889L4.67181 11.2118" stroke="#280074" stroke-miterlimit="10"/>
<path d="M43.1318 16.4841L39.4129 17.4727" stroke="#280074" stroke-miterlimit="10"/>
<path d="M5.66038 26.4169L1.94148 27.4054" stroke="#280074" stroke-miterlimit="10"/>
<path d="M43.1318 16.4841L39.4129 17.4727" stroke="#280074" stroke-miterlimit="10"/>
<path d="M5.66038 26.4169L1.94148 27.4054" stroke="#280074" stroke-miterlimit="10"/>
<path d="M27.2676 42.5164L26.2791 38.7975" stroke="#280074" stroke-miterlimit="10"/>
<path d="M17.2878 5.04501L16.2992 1.32611" stroke="#280074" stroke-miterlimit="10"/>
<path d="M27.2676 42.5164L26.2791 38.7975" stroke="#280074" stroke-miterlimit="10"/>
<path d="M17.2878 5.04501L16.2992 1.32611" stroke="#280074" stroke-miterlimit="10"/>
<path d="M29.0565 1.46735L27.9738 5.13917" stroke="#280074" stroke-miterlimit="10"/>
<path d="M18.2764 38.7034L17.1937 42.4223" stroke="#280074" stroke-miterlimit="10"/>
<path d="M29.0565 1.46735L27.9738 5.13917" stroke="#280074" stroke-miterlimit="10"/>
<path d="M18.2764 38.7034L17.1937 42.4223" stroke="#280074" stroke-miterlimit="10"/>
<path d="M43.6025 27.8292L39.8836 26.7935" stroke="#280074" stroke-miterlimit="10"/>
<path d="M6.36648 17.0961L2.64758 16.0134" stroke="#280074" stroke-miterlimit="10"/>
<path d="M43.6025 27.8292L39.8836 26.7935" stroke="#280074" stroke-miterlimit="10"/>
<path d="M6.36648 17.0961L2.64758 16.0134" stroke="#280074" stroke-miterlimit="10"/>
<path d="M41.2017 11.6354L37.8124 13.5184" stroke="#280074" stroke-miterlimit="10"/>
<path d="M7.26091 30.3712L3.87154 32.2541" stroke="#280074" stroke-miterlimit="10"/>
<path d="M41.2017 11.6354L37.8124 13.5184" stroke="#280074" stroke-miterlimit="10"/>
<path d="M7.26091 30.3712L3.87154 32.2541" stroke="#280074" stroke-miterlimit="10"/>
<path d="M33.4344 40.5864L31.5514 37.197" stroke="#280074" stroke-miterlimit="10"/>
<path d="M14.6987 6.64554L12.8157 3.25616" stroke="#280074" stroke-miterlimit="10"/>
<path d="M33.4344 40.5864L31.5514 37.197" stroke="#280074" stroke-miterlimit="10"/>
<path d="M14.6987 6.64554L12.8157 3.25616" stroke="#280074" stroke-miterlimit="10"/>
<path d="M7.4492 22.698C7.4492 14.3658 14.1809 7.63409 22.5131 7.63409" stroke="white" stroke-miterlimit="10" stroke-linecap="round" stroke-linejoin="round"/>
<path d="M24.8197 7.63409C24.8197 7.63409 27.6442 7.72824 30.3275 9.61123" stroke="white" stroke-miterlimit="10" stroke-linecap="round" stroke-linejoin="round"/>
<path d="M29.9038 17.8493L25.1493 18.6025C24.9139 17.9905 24.6785 17.5668 24.4902 17.3315C24.3019 17.0961 23.9724 16.8607 23.5487 16.6254V20.3443C26.1378 21.0504 27.8796 21.7565 28.7269 22.5568C29.8567 23.5924 30.4687 24.9105 30.4687 26.464C30.4687 27.4055 30.2804 28.2528 29.8567 29.006C29.4331 29.7592 28.9152 30.4182 28.2562 30.9361C27.5972 31.4539 26.9381 31.8305 26.1849 32.0658C25.4788 32.3012 24.5844 32.4424 23.5017 32.4895V34.8903H21.6187V32.4895C20.3477 32.3954 19.3591 32.16 18.5588 31.8775C17.7586 31.5951 17.0995 31.1714 16.5346 30.6536C16.0639 30.1358 15.5931 29.5709 15.3107 28.9589C15.0282 28.3469 14.7929 27.6408 14.6046 26.7935L19.7828 26.1815C19.924 27.0289 20.1594 27.6408 20.3947 28.0174C20.6772 28.394 21.1009 28.7235 21.6658 29.006V24.4868C19.924 24.0161 18.7 23.5924 17.9939 23.2629C17.2878 22.9334 16.6758 22.3685 16.1109 21.5682C15.5931 20.815 15.3107 19.8735 15.3107 18.7437C15.3107 17.2373 15.8285 15.9663 16.9112 14.9307C17.9939 13.895 19.5474 13.3301 21.6658 13.236V11.965H23.5487V13.236C25.4788 13.3772 26.9381 13.8009 27.9267 14.6011C28.9623 15.4014 29.6214 16.4841 29.9038 17.8493ZM21.7128 16.5312C21.1479 16.7195 20.7713 16.9549 20.583 17.1903C20.3477 17.4727 20.2535 17.7551 20.2535 18.1317C20.2535 18.5083 20.3477 18.8379 20.583 19.1203C20.8184 19.4028 21.195 19.6381 21.7128 19.8264V16.5312ZM23.5487 29.1472C24.2549 29.006 24.8198 28.7235 25.1493 28.3469C25.4788 27.9703 25.6671 27.5467 25.6671 27.0759C25.6671 26.6523 25.5259 26.3227 25.2434 25.9461C24.961 25.6166 24.3961 25.2871 23.5958 25.0046V29.1472H23.5487Z" fill="#280074"/>
<path d="M44.7323 6.69263C55.4654 10.694 63.468 20.5796 64.5037 32.772" stroke="#280074" stroke-miterlimit="10"/>
<path d="M26.5615 65.0652C14.228 61.9583 4.6718 51.3665 3.54201 37.9973" stroke="#280074" stroke-miterlimit="10"/>
<path d="M21.0067 57.7215L30.1863 66.4303L18.3235 67.3247L23.9253 64.4061L21.0067 57.7215Z" fill="#280074"/>
<path d="M48.5924 14.7424L40.8722 4.6684L52.735 5.65696L46.7565 7.6341L48.5924 14.7424Z" fill="#280074"/>
</svg>
