<svg width="67" height="71" viewBox="0 0 67 71" fill="none" xmlns="http://www.w3.org/2000/svg">
<path d="M51.4999 0.610352H12.5057V70.159H51.4999V0.610352Z" fill="#4D0063" stroke="#280074" stroke-miterlimit="10"/>
<path d="M40.262 2.59619H23.7888V4.35635H40.262V2.59619Z" fill="#280074"/>
<path d="M12.5057 0.610352V70.159H32.0028V68.1732V65.6458V63.66V5.62002V4.35632V2.59617V0.610352H12.5057Z" fill="#4D0063"/>
<path d="M49.4239 5.62H14.5818V63.66H49.4239V5.62Z" fill="white" stroke="#280074" stroke-miterlimit="10" stroke-linecap="round" stroke-linejoin="round"/>
<path d="M32.3639 5.62H14.5818V63.66H32.3639V5.62Z" fill="#C08ACF"/>
<path d="M36.0647 66.9095C36.0647 67.5864 35.5231 68.1732 34.801 68.1732H29.2046C28.5276 68.1732 27.9409 67.6316 27.9409 66.9095C27.9409 66.2325 28.4825 65.6458 29.2046 65.6458H34.801C35.5231 65.6458 36.0647 66.2325 36.0647 66.9095Z" fill="white" stroke="#280074" stroke-miterlimit="10" stroke-linecap="round" stroke-linejoin="round"/>
<path d="M29.1144 65.6458C28.4825 65.6458 27.9861 66.1873 27.9861 66.9095C27.9861 67.6316 28.4825 68.1732 29.1144 68.1732H32.048V65.6909H29.1144V65.6458Z" fill="#C08ACF"/>
<path d="M27.7604 27.5091V20.7845L26.2259 18.573V10.9005" stroke="#280074" stroke-miterlimit="10"/>
<path d="M36.3355 27.5091V22.4092L37.87 20.1977V11.1713" stroke="#280074" stroke-miterlimit="10"/>
<path d="M33.8081 27.5091V21.0101L35.3426 19.4304V13.6084" stroke="#280074" stroke-miterlimit="10"/>
<path d="M30.2878 27.5091V21.0101L28.7533 19.4304V13.6084" stroke="#280074" stroke-miterlimit="10"/>
<path d="M32.048 27.5091V15.2783" stroke="#280074" stroke-miterlimit="10"/>
<path d="M32.9958 16.0907C32.9958 16.6775 32.4993 17.1739 31.9126 17.1739C31.3259 17.1739 30.8294 16.6775 30.8294 16.0907C30.8294 15.504 31.3259 15.0076 31.9126 15.0076C32.5444 15.0076 32.9958 15.504 32.9958 16.0907Z" fill="#280074"/>
<path d="M29.7913 13.0668C29.7913 13.6535 29.2949 14.15 28.7082 14.15C28.1215 14.15 27.625 13.6535 27.625 13.0668C27.625 12.4801 28.1215 11.9836 28.7082 11.9836C29.2949 11.9836 29.7913 12.4801 29.7913 13.0668Z" fill="#280074"/>
<path d="M36.3806 13.0668C36.3806 13.6535 35.8842 14.15 35.2975 14.15C34.7107 14.15 34.2143 13.6535 34.2143 13.0668C34.2143 12.4801 34.7107 11.9836 35.2975 11.9836C35.9293 11.9836 36.3806 12.4801 36.3806 13.0668Z" fill="#280074"/>
<path d="M38.908 10.404C38.908 10.9907 38.4116 11.4871 37.8249 11.4871C37.2382 11.4871 36.7417 10.9907 36.7417 10.404C36.7417 9.81726 37.2382 9.3208 37.8249 9.3208C38.4567 9.36593 38.908 9.81726 38.908 10.404Z" fill="#280074"/>
<path d="M27.3091 10.404C27.3091 10.9907 26.8127 11.4871 26.2259 11.4871C25.6392 11.4871 25.1428 10.9907 25.1428 10.404C25.1428 9.81726 25.6392 9.3208 26.2259 9.3208C26.8127 9.36593 27.3091 9.81726 27.3091 10.404Z" fill="#280074"/>
<path d="M36.3355 43.2151V49.9849L37.87 52.1964V59.8237" stroke="#280074" stroke-miterlimit="10"/>
<path d="M27.7604 43.2151V48.3602L26.2259 50.5716V59.5981" stroke="#280074" stroke-miterlimit="10"/>
<path d="M30.2878 43.2151V49.7141L28.7533 51.2937V57.1158" stroke="#280074" stroke-miterlimit="10"/>
<path d="M33.8081 43.2151V49.7141L35.3426 51.2937V57.1158" stroke="#280074" stroke-miterlimit="10"/>
<path d="M32.048 43.2151V55.491" stroke="#280074" stroke-miterlimit="10"/>
<path d="M31.0551 54.6786C31.0551 54.0919 31.5515 53.5955 32.1382 53.5955C32.7249 53.5955 33.2214 54.0919 33.2214 54.6786C33.2214 55.2654 32.7249 55.7618 32.1382 55.7618C31.5515 55.7618 31.0551 55.2654 31.0551 54.6786Z" fill="#280074"/>
<path d="M34.3046 57.7026C34.3046 57.1158 34.801 56.6194 35.3877 56.6194C35.9745 56.6194 36.4709 57.1158 36.4709 57.7026C36.4709 58.2893 35.9745 58.7857 35.3877 58.7857C34.801 58.7857 34.3046 58.2893 34.3046 57.7026Z" fill="#280074"/>
<path d="M27.6702 57.7026C27.6702 57.1158 28.1666 56.6194 28.7533 56.6194C29.3401 56.6194 29.8365 57.1158 29.8365 57.7026C29.8365 58.2893 29.3401 58.7857 28.7533 58.7857C28.1666 58.7857 27.6702 58.2893 27.6702 57.7026Z" fill="#280074"/>
<path d="M25.1879 60.3202C25.1879 59.7335 25.6843 59.2371 26.271 59.2371C26.8578 59.2371 27.3542 59.7335 27.3542 60.3202C27.3542 60.907 26.8578 61.4034 26.271 61.4034C25.6392 61.4034 25.1879 60.907 25.1879 60.3202Z" fill="#280074"/>
<path d="M36.7869 60.3202C36.7869 59.7335 37.2833 59.2371 37.87 59.2371C38.4568 59.2371 38.9532 59.7335 38.9532 60.3202C38.9532 60.907 38.4568 61.4034 37.87 61.4034C37.2382 61.4034 36.7869 60.907 36.7869 60.3202Z" fill="#280074"/>
<path d="M44.8655 31.0294H51.6354L53.8468 29.4949H61.4742" stroke="#280074" stroke-miterlimit="10"/>
<path d="M44.8655 39.5594H49.9655L52.177 41.0939H61.2034" stroke="#280074" stroke-miterlimit="10"/>
<path d="M44.8655 37.0771H51.3646L52.9442 38.5665H58.7663" stroke="#280074" stroke-miterlimit="10"/>
<path d="M44.8655 33.5117H51.3646L52.9442 32.0223H58.7663" stroke="#280074" stroke-miterlimit="10"/>
<path d="M44.8655 35.317H57.0964" stroke="#280074" stroke-miterlimit="10"/>
<path d="M56.3291 36.2647C55.7424 36.2647 55.2459 35.7683 55.2459 35.1816C55.2459 34.5948 55.7424 34.0984 56.3291 34.0984C56.9158 34.0984 57.4123 34.5948 57.4123 35.1816C57.3671 35.8134 56.9158 36.2647 56.3291 36.2647Z" fill="#280074"/>
<path d="M59.353 33.0152C58.7662 33.0152 58.2698 32.5188 58.2698 31.932C58.2698 31.3453 58.7662 30.8489 59.353 30.8489C59.9397 30.8489 60.4361 31.3453 60.4361 31.932C60.391 32.5639 59.9397 33.0152 59.353 33.0152Z" fill="#280074"/>
<path d="M59.353 39.6496C58.7662 39.6496 58.2698 39.1532 58.2698 38.5665C58.2698 37.9797 58.7662 37.4833 59.353 37.4833C59.9397 37.4833 60.4361 37.9797 60.4361 38.5665C60.391 39.1532 59.9397 39.6496 59.353 39.6496Z" fill="#280074"/>
<path d="M61.9706 42.1771C61.3839 42.1771 60.8875 41.6806 60.8875 41.0939C60.8875 40.5072 61.3839 40.0107 61.9706 40.0107C62.5573 40.0107 63.0538 40.5072 63.0538 41.0939C63.0538 41.6806 62.5573 42.1771 61.9706 42.1771Z" fill="#280074"/>
<path d="M61.9706 30.5329C61.3839 30.5329 60.8875 30.0365 60.8875 29.4497C60.8875 28.863 61.3839 28.3666 61.9706 28.3666C62.5573 28.3666 63.0538 28.863 63.0538 29.4497C63.0538 30.0816 62.5573 30.5329 61.9706 30.5329Z" fill="#280074"/>
<path d="M19.1402 31.0294H12.4155L10.204 29.4949H2.53156" stroke="#280074" stroke-miterlimit="10"/>
<path d="M19.1402 39.5594H14.0402L11.8287 41.0939H2.80231" stroke="#280074" stroke-miterlimit="10"/>
<path d="M19.1402 37.0771H12.6411L11.0615 38.5665H5.23944" stroke="#280074" stroke-miterlimit="10"/>
<path d="M19.1402 33.5117H12.6411L11.0615 32.0223H5.23944" stroke="#280074" stroke-miterlimit="10"/>
<path d="M19.1402 35.317H6.90936" stroke="#280074" stroke-miterlimit="10"/>
<path d="M7.72172 36.2647C8.30844 36.2647 8.80489 35.7683 8.80489 35.1816C8.80489 34.5948 8.30844 34.0984 7.72172 34.0984C7.135 34.0984 6.63855 34.5948 6.63855 35.1816C6.63855 35.8134 7.08987 36.2647 7.72172 36.2647Z" fill="#280074"/>
<path d="M4.69786 33.0152C5.28458 33.0152 5.78103 32.5188 5.78103 31.932C5.78103 31.3453 5.28458 30.8489 4.69786 30.8489C4.11114 30.8489 3.61469 31.3453 3.61469 31.932C3.61469 32.5639 4.11114 33.0152 4.69786 33.0152Z" fill="#280074"/>
<path d="M4.69786 39.6496C5.28458 39.6496 5.78103 39.1532 5.78103 38.5665C5.78103 37.9797 5.28458 37.4833 4.69786 37.4833C4.11114 37.4833 3.61469 37.9797 3.61469 38.5665C3.61469 39.1532 4.11114 39.6496 4.69786 39.6496Z" fill="#280074"/>
<path d="M2.03508 42.1771C2.62179 42.1771 3.11825 41.6806 3.11825 41.0939C3.11825 40.5072 2.62179 40.0107 2.03508 40.0107C1.44836 40.0107 0.951904 40.5072 0.951904 41.0939C0.997036 41.6806 1.44836 42.1771 2.03508 42.1771Z" fill="#280074"/>
<path d="M2.03508 30.5329C2.62179 30.5329 3.11825 30.0365 3.11825 29.4497C3.11825 28.863 2.62179 28.3666 2.03508 28.3666C1.44836 28.3666 0.951904 28.863 0.951904 29.4497C0.997036 30.0816 1.44836 30.5329 2.03508 30.5329Z" fill="#280074"/>
<path d="M44.685 43.7567C44.685 46.0584 42.8346 47.9088 40.5328 47.9088H23.6083C21.3065 47.9088 19.4561 46.0584 19.4561 43.7567V26.8321C19.4561 24.5303 21.3065 22.6799 23.6083 22.6799H40.5328C42.8346 22.6799 44.685 24.5303 44.685 26.8321V43.7567Z" fill="#4D0063" stroke="#280074" stroke-miterlimit="10"/>
<path d="M31.8675 22.6349H23.6083C21.3065 22.6349 19.4561 24.4853 19.4561 26.787V43.7116C19.4561 46.0134 21.3065 47.8638 23.6083 47.8638H31.9126V22.6349H31.8675Z" fill="#4D0063"/>
<path d="M38.2762 36.0843C37.8249 35.4976 37.0576 35.0914 36.0647 34.8206C36.7417 34.5949 37.2382 34.279 37.5541 33.8728C38.0505 33.2861 38.3213 32.564 38.3213 31.7516C38.3213 30.7587 37.9603 29.9463 37.2382 29.2693C36.6966 28.7729 35.9293 28.457 35.0267 28.3216V27.0579H33.4922V28.2764H31.9126V27.0579H30.3781V28.2764H26.0002V42.2674H30.3781V43.486H31.9126V42.2674H33.4922V43.486H35.0267V42.132C35.1621 42.132 35.2975 42.0869 35.4329 42.0869C36.155 41.9966 36.6966 41.8161 37.0576 41.6356C37.6444 41.3196 38.0957 40.8232 38.4567 40.2816C38.7727 39.6949 38.9532 39.063 38.9532 38.3409C38.9532 37.3931 38.7275 36.671 38.2762 36.0843ZM30.4232 31.1198H32.3188C32.9957 31.1198 33.4471 31.2552 33.7179 31.4808C33.9886 31.7065 34.124 32.0224 34.124 32.4286C34.124 32.8799 33.9886 33.1958 33.7179 33.4215C33.4471 33.6472 32.9957 33.7826 32.3188 33.7826H30.4232V31.1198ZM30.4232 39.2887V36.4454H32.6347C33.4019 36.4454 33.9435 36.5808 34.2143 36.8064C34.5302 37.0772 34.6656 37.3931 34.6656 37.7993C34.6656 38.2506 34.5302 38.6117 34.2143 38.8825C33.8984 39.1533 33.4019 39.2887 32.6347 39.2887H30.4232Z" fill="#C08ACF"/>
<path d="M63.1892 54.0469H49.4239C47.9797 54.0469 46.8062 55.2203 46.8062 56.6645V67.5414C46.8062 68.9856 47.9797 70.1591 49.4239 70.1591H63.1892C64.6334 70.1591 65.8069 68.9856 65.8069 67.5414V56.6645C65.8069 55.2203 64.6334 54.0469 63.1892 54.0469Z" fill="#EB5757" stroke="#280074" stroke-miterlimit="10"/>
<path d="M63.5954 54.0469H61.068V49.8947C61.068 47.277 58.9467 45.1558 56.3291 45.1558C53.7114 45.1558 51.6353 47.277 51.6353 49.8947V54.0469H49.0628V49.8947C49.0628 45.8779 52.3123 42.6284 56.3291 42.6284C60.3458 42.6284 63.5954 45.8779 63.5954 49.8947V54.0469Z" fill="#4D0063" stroke="#280074" stroke-miterlimit="10"/>
<path d="M56.2388 42.6284C52.2672 42.6736 49.0628 45.9231 49.0628 49.8947V54.0469H51.6353V49.8947C51.6353 47.3222 53.7114 45.2461 56.284 45.201V42.6284H56.2388Z" fill="#4D0063"/>
<path d="M49.4239 54.0469C47.9797 54.0469 46.8062 55.2203 46.8062 56.6645V67.5414C46.8062 68.9856 47.9797 70.1591 49.4239 70.1591H56.3291V54.0469H49.4239Z" fill="#EB5757"/>
<path d="M58.7662 60.23C58.7662 58.876 57.6831 57.7928 56.3291 57.7928C54.9751 57.7928 53.892 58.876 53.892 60.23C53.892 61.268 54.5238 62.1707 55.4716 62.5317L55.1557 66.4131H57.5477L57.2317 62.5317C58.0892 62.1255 58.7662 61.268 58.7662 60.23Z" fill="#280074"/>
<path d="M53.8017 55.4911H50.4168C49.1982 55.4911 48.2504 56.484 48.2504 57.7026V60.8618" stroke="white" stroke-miterlimit="10" stroke-linecap="round" stroke-linejoin="round"/>
<path d="M54.9751 55.4911H57.0512" stroke="white" stroke-miterlimit="10" stroke-linecap="round" stroke-linejoin="round"/>
<path d="M50.2363 49.4434C50.6876 46.9612 52.4929 44.9302 54.8849 44.163" stroke="white" stroke-miterlimit="10" stroke-linecap="round" stroke-linejoin="round"/>
<path d="M56.3291 43.9373C56.3291 43.9373 57.1866 43.8471 58.2698 44.3435" stroke="white" stroke-miterlimit="10" stroke-linecap="round" stroke-linejoin="round"/>
</svg>
