<svg width="114" height="71" viewBox="0 0 114 71" fill="none" xmlns="http://www.w3.org/2000/svg">
<path d="M21.6621 47.5624L12.9932 55.7596V70.0898H21.6621V47.5624Z" fill="#C08ACF"/>
<path d="M30.331 42.196H27.4414L21.6621 47.5625V70.0898H30.331V42.196Z" fill="#280074"/>
<path d="M38.9998 42.196H30.3309V70.0898H38.9998V42.196Z" fill="#C08ACF"/>
<path d="M47.6098 42.196H38.9409V70.0898H47.6098V42.196Z" fill="#280074"/>
<path d="M56.2198 35.4141L49.0252 42.1959H47.6099V70.0898H56.2198V35.4141Z" fill="#C08ACF"/>
<path d="M64.8888 28.5734H63.4734L56.2198 35.4141V70.0898H64.8888V28.5734Z" fill="#280074"/>
<path d="M73.5576 28.5734H64.8887V70.0898H73.5576V28.5734Z" fill="#C08ACF"/>
<path d="M82.2265 28.5734H73.5576V70.0898H82.2265V28.5734Z" fill="#280074"/>
<path d="M90.8365 23.1479L84.9983 28.5734H82.1676V70.0898H90.8365V23.1479Z" fill="#C08ACF"/>
<path d="M99.4464 15.0098L90.8364 23.1479V70.0898H99.4464V15.0098Z" fill="#280074"/>
<path d="M103.928 10.8228L85.0572 28.5734H63.4734L49.0252 42.196H27.4414L10.0446 58.5902" stroke="#4D0063" stroke-miterlimit="10"/>
<path d="M94.1389 12.5329L106.405 8.52283L101.451 19.5506L101.569 13.1227L94.1389 12.5329Z" fill="#4D0063"/>
<path d="M46.4894 23.3838C45.9586 26.1555 45.0151 29.0451 44.1305 31.345C44.6612 31.345 45.6638 31.404 46.1945 32.4655C46.9022 33.8808 48.2585 36.8884 49.1431 38.8345H49.9098V30.4605C49.9098 25.5658 47.374 23.7966 46.4894 23.3838Z" fill="#280074" stroke="#4D0063" stroke-miterlimit="10"/>
<path d="M29.8003 23.3838C30.3311 26.1555 31.2746 29.0451 32.1592 31.345C31.6284 31.345 30.6259 31.404 30.0952 32.4655C29.3875 33.8808 28.0311 36.8884 27.1466 38.8345H26.3799V30.4605C26.3209 25.5658 28.8567 23.7966 29.8003 23.3838Z" fill="#280074" stroke="#4D0063" stroke-miterlimit="10"/>
<path d="M29.8003 23.3838C30.3311 26.1555 31.2746 29.0451 32.1592 31.345C31.6284 31.345 30.6259 31.404 30.0952 32.4655C29.3875 33.8808 28.0311 36.8884 27.1466 38.8345H26.3799V30.4605C26.3209 25.5658 28.8567 23.7966 29.8003 23.3838Z" fill="#280074"/>
<path d="M36.4641 1.50512C33.9873 4.68962 29.2106 11.6483 29.2106 19.7275C29.2106 26.7452 34.1053 36.2987 34.1053 36.2987H38.0564H41.9486C41.9486 36.2987 46.8433 26.7452 46.8433 19.7275C46.8433 11.7073 42.1255 4.74859 39.5897 1.56409C38.7051 0.384649 37.4077 0.384649 36.4641 1.50512Z" fill="white" stroke="#4D0063" stroke-miterlimit="10"/>
<path d="M42.1256 36.2987H34.1643V38.1268H42.1256V36.2987Z" fill="#280074" stroke="#4D0063" stroke-miterlimit="10"/>
<path d="M42.1255 38.1268C42.1255 38.1268 46.1356 42.1959 44.6613 47.8572C44.6613 47.8572 43.7178 44.9676 42.4204 43.7292C42.4204 43.7292 43.8357 46.6188 41.123 50.57C38.4103 54.5211 36.1693 56.7031 37.5846 58.4722C37.5846 58.4722 31.8054 49.7444 34.695 43.9651C34.695 43.9651 32.4541 47.5624 32.572 49.9802C32.572 49.9802 30.9208 42.9036 34.1643 38.1858H42.1255V38.1268Z" fill="#EB5757" stroke="#4D0063" stroke-miterlimit="10"/>
<path d="M37.9975 54.8749V38.1268H34.1053C30.8618 42.9036 32.5131 49.9213 32.5131 49.9213C32.3361 47.5624 34.6361 43.9061 34.6361 43.9061C32.1002 48.9777 36.1693 56.2903 37.2898 58.0594C36.818 57.1749 37.2308 56.1723 37.9975 54.8749Z" fill="#EB5757"/>
<path d="M35.4616 38.1268C35.4616 38.1268 33.8694 39.4242 34.2822 42.019C34.2822 42.019 34.5181 41.1344 35.6975 40.6037C35.6975 40.6037 35.1078 45.3804 36.9949 47.9752C36.9949 47.9752 37.1129 44.083 38.7051 43.4933C40.3563 42.9036 42.0076 40.7216 41.064 38.1268H35.4616Z" fill="#EB7A2C" stroke="#4D0063" stroke-miterlimit="10"/>
<path d="M37.9975 38.1268H35.4616C35.4616 38.1268 33.8694 39.4242 34.2822 42.019C34.2822 42.019 34.5181 41.1344 35.6975 40.6037C35.6975 40.6037 35.1078 45.3804 36.9949 47.9752C36.9949 47.9752 37.0539 45.3214 37.9975 44.083V38.1268Z" fill="#EB7A2C"/>
<path d="M38.0564 0.679504C37.5257 0.738477 37.0539 0.974365 36.5821 1.50512C34.0463 4.68961 29.2106 11.6483 29.2106 19.7275C29.2106 26.7452 34.1642 36.2987 34.1642 36.2987H38.0564V0.679504Z" fill="#C3C5CA"/>
<path d="M38.0564 6.04597C39.5897 6.04597 40.946 5.69214 42.1255 5.04345C41.2409 3.62811 40.3563 2.44867 39.6486 1.56409C38.7051 0.384643 37.4667 0.384643 36.5231 1.56409C35.8154 2.44867 34.9309 3.62811 33.9873 5.10242C35.1078 5.69214 36.5231 6.04597 38.0564 6.04597Z" fill="#EB5757" stroke="#4D0063" stroke-miterlimit="10"/>
<path d="M37.8205 0.679504C37.7615 0.679504 37.7615 0.679504 37.8205 0.679504C37.7615 0.679504 37.7615 0.679504 37.7026 0.679504H37.6436H37.5846H37.5257H37.4667H37.4077H37.3487H37.2898H37.2308H37.1718H37.1128H37.0539H36.9949C36.9949 0.679504 36.9359 0.679504 36.9359 0.738477C36.9359 0.738477 36.877 0.738477 36.877 0.797449C36.877 0.797449 36.877 0.797449 36.818 0.856421C36.818 0.856421 36.759 0.856421 36.759 0.915393C36.759 0.915393 36.7 0.915393 36.7 0.974365C36.7 0.974365 36.6411 0.974365 36.6411 1.03334C36.6411 1.03334 36.5821 1.03334 36.5821 1.09231C36.5821 1.09231 36.5231 1.09231 36.5231 1.15128L36.4642 1.21025C36.4642 1.21025 36.4642 1.21025 36.4052 1.26923L36.3462 1.3282C36.3462 1.3282 36.3462 1.3282 36.2872 1.38717L36.2283 1.44614C36.2283 1.44614 36.2283 1.44614 36.2283 1.50512C36.1693 1.56409 36.1693 1.56409 36.1103 1.62306C36.1103 1.62306 36.1103 1.62306 36.1103 1.68203C36.1103 1.741 36.0513 1.741 36.0513 1.79998L35.9924 1.85895C35.9924 1.91792 35.9334 1.91792 35.9334 1.97689L35.8744 2.03586C35.8744 2.03586 35.8155 2.09484 35.8155 2.15381C35.8155 2.15381 35.7565 2.21278 35.7565 2.27175C35.7565 2.33073 35.6975 2.33073 35.6975 2.3897C35.6975 2.44867 35.6385 2.44867 35.6385 2.50764L35.5796 2.56661C35.5796 2.62559 35.5206 2.62559 35.5206 2.68456L35.4616 2.74353C35.4027 2.8025 35.4027 2.86148 35.3437 2.92045C35.3437 2.92045 35.3437 2.97942 35.2847 2.97942C35.2257 3.03839 35.1668 3.09736 35.1078 3.21531C35.1078 3.21531 35.1078 3.21531 35.1078 3.27428C35.0488 3.33325 35.0488 3.39223 34.9898 3.4512C35.1668 3.33325 35.1078 3.33325 35.1078 3.33325C35.0488 3.39223 35.0488 3.4512 34.9898 3.51017L34.9309 3.56914C34.8719 3.62811 34.8719 3.68709 34.8129 3.74606L34.754 3.80503C34.695 3.864 34.695 3.92298 34.636 3.98195L34.577 4.04092C34.5181 4.09989 34.5181 4.15886 34.4591 4.21784C34.4591 4.21784 34.4591 4.27681 34.4001 4.27681C34.3412 4.33578 34.3411 4.39475 34.2822 4.45373C34.2822 4.45373 34.2822 4.45373 34.2822 4.5127C34.1642 4.68961 34.0463 4.86653 33.9283 5.04345C35.0488 5.63317 36.4052 5.987 37.8795 6.04597V0.679504C37.8795 0.679504 37.8795 0.679504 37.8205 0.679504Z" fill="#EB5757"/>
<path d="M43.6588 18.4891C43.6588 21.6146 41.123 24.0915 38.0565 24.0915C34.9309 24.0915 32.4541 21.5557 32.4541 18.4891C32.4541 15.3636 34.9899 12.8868 38.0565 12.8868C41.123 12.8278 43.6588 15.3636 43.6588 18.4891Z" fill="#EB5757" stroke="#4D0063" stroke-miterlimit="10"/>
<path d="M38.0565 12.8278C34.9309 12.8278 32.3951 15.3636 32.3951 18.4301C32.3951 21.5556 34.9309 24.0325 37.9975 24.0325V12.8278H38.0565Z" fill="#EB5757"/>
<path d="M42.1845 18.4891C42.1845 20.789 40.2974 22.6761 37.9975 22.6761C35.6975 22.6761 33.8104 20.789 33.8104 18.4891C33.8104 16.1892 35.6975 14.3021 37.9975 14.3021C40.3563 14.3021 42.1845 16.1892 42.1845 18.4891Z" fill="#280074" stroke="#4D0063" stroke-miterlimit="10"/>
<path d="M38.0564 14.3021C35.7565 14.3021 33.8694 16.1892 33.8694 18.4891C33.8694 20.789 35.7565 22.6761 38.0564 22.6761V14.3021Z" fill="#280074"/>
<path d="M37.7026 40.2498C37.7616 40.4857 37.7616 40.7806 37.8206 41.0165H38.4693C38.5282 40.7806 38.5872 40.4857 38.5872 40.2498C38.7052 39.5422 38.8231 38.7755 38.8821 38.0679C39 36.5936 39.059 35.1782 39.059 33.7039C39.059 32.2296 39 30.8143 38.8821 29.34C38.8231 28.6323 38.7052 27.8657 38.5872 27.158C38.5282 26.8632 38.4693 26.5683 38.4103 26.2734H37.8206C37.7616 26.5683 37.7026 26.8632 37.6437 27.158C37.5257 27.8657 37.4078 28.6323 37.3488 29.34C37.2308 30.8143 37.1719 32.2296 37.1719 33.7039C37.1719 35.1782 37.2308 36.5936 37.3488 38.0679C37.4667 38.8345 37.5847 39.5422 37.7026 40.2498Z" fill="#280074" stroke="#4D0063" stroke-miterlimit="10"/>
<path d="M37.9975 26.2734H37.8206C37.7616 26.5683 37.7026 26.8632 37.6437 27.158C37.5257 27.8657 37.4078 28.6323 37.3488 29.34C37.2308 30.8143 37.1719 32.2296 37.1719 33.7039C37.1719 35.1782 37.2308 36.5936 37.3488 38.0679C37.4078 38.7755 37.5257 39.5422 37.6437 40.2498C37.7026 40.4857 37.7026 40.7806 37.7616 41.0165H37.9385V26.2734H37.9975Z" fill="#280074"/>
<path d="M0.903809 70.0897H113.128" stroke="#4D0063" stroke-miterlimit="10"/>
</svg>
