<svg width="12" height="13" viewBox="0 0 12 13" fill="none" xmlns="http://www.w3.org/2000/svg">
<path d="M8.84595 4.81836C9.9353 4.81846 10.4698 5.17078 10.7727 5.66309C11.11 6.21113 11.2258 7.03215 11.2258 8.09961V12H9.82446V8.59961C9.82446 8.15633 9.82567 7.52785 9.62817 7.01172C9.52422 6.74019 9.35584 6.47202 9.08228 6.27441C8.80607 6.07505 8.4656 5.97854 8.07446 5.97852C7.69525 5.97852 7.36017 6.05567 7.08032 6.22559C6.79715 6.39754 6.60895 6.64077 6.48755 6.90625C6.26 7.40391 6.24829 8.02826 6.24829 8.53418V12H4.84595V4.98828H6.15161V6.08008H6.99146L7.13013 5.80762C7.38126 5.31602 7.89497 4.81836 8.84595 4.81836ZM2.75122 4.9873V12H1.3479V4.9873H2.75122ZM2.04907 1H2.05005C2.16454 1.00005 2.27824 1.0236 2.38501 1.06934C2.46516 1.10371 2.54076 1.15038 2.60864 1.20801L2.67407 1.26953C2.73689 1.33459 2.79095 1.40917 2.83325 1.49121L2.87134 1.5752C2.90592 1.66172 2.92792 1.75328 2.93677 1.84668L2.94165 1.94043V1.94141C2.94149 2.48298 2.51887 2.89648 2.0481 2.89648C1.57913 2.89647 1.15672 2.48378 1.15649 1.94043L1.16138 1.84668C1.1703 1.75307 1.19206 1.6609 1.22681 1.57422C1.26149 1.4878 1.30811 1.40794 1.3645 1.33691L1.42407 1.26855C1.48686 1.2037 1.55824 1.14981 1.63501 1.10742L1.71313 1.06934C1.79333 1.03503 1.87771 1.01258 1.96313 1.00391L2.04907 1Z" fill="white" stroke="white"/>
</svg>
