<svg width="15" height="15" viewBox="0 0 15 15" fill="none" xmlns="http://www.w3.org/2000/svg">
<path d="M7.51086 1C8.88209 1 9.34869 1.00501 9.79602 1.02148L10.2697 1.04199L10.2823 1.04297C10.7213 1.05231 11.1563 1.12907 11.5734 1.27051L11.7511 1.33496C12.0835 1.46894 12.3904 1.6642 12.6564 1.91211L12.7687 2.02246C13.024 2.28668 13.2308 2.59749 13.379 2.93945L13.4396 3.08789C13.6195 3.5836 13.715 4.10846 13.7218 4.63867V4.64941L13.7228 4.66016C13.7433 5.02337 13.7536 5.26173 13.7589 5.64648L13.7648 7.51172C13.7648 8.93082 13.7594 9.41416 13.7433 9.87793L13.7238 10.3691L13.7228 10.3809C13.7126 10.906 13.6177 11.4225 13.4406 11.9121C13.2903 12.3127 13.0615 12.6756 12.7697 12.9775C12.4779 13.2794 12.1292 13.5136 11.7472 13.667C11.2784 13.8483 10.7839 13.9468 10.2843 13.957H10.2638C9.56556 13.9994 9.34635 14 7.51184 14C6.14042 14 5.67365 13.9943 5.22571 13.9775L4.75208 13.957H4.74622C4.30651 13.9421 3.87123 13.8587 3.4552 13.7109L3.27747 13.6436H3.27551C2.89333 13.4905 2.54488 13.2558 2.25305 12.9541C1.99762 12.69 1.79109 12.379 1.6427 12.0371L1.58215 11.8887C1.405 11.3982 1.31009 10.8816 1.29993 10.3574V10.3477L1.29895 10.3389L1.27551 9.85449C1.25814 9.39546 1.25793 8.91132 1.25793 7.4873C1.25794 6.06851 1.26326 5.58518 1.27942 5.12109L1.29993 4.62988V4.61719C1.30949 4.09421 1.40484 3.57697 1.58215 3.08789C1.71329 2.73738 1.90538 2.41579 2.14661 2.13867L2.25305 2.02246C2.54361 1.72181 2.89025 1.4881 3.27063 1.33496C3.74086 1.15235 4.23703 1.05375 4.7384 1.04297L4.74817 1.04199H4.75793C5.45657 1.00036 5.67609 1 7.51086 1ZM11.1115 2.42676C10.9809 2.42676 10.8516 2.44651 10.7277 2.48535L10.6056 2.53027C10.4857 2.58167 10.3744 2.65137 10.2755 2.73535L10.1808 2.82422C10.0904 2.91778 10.0137 3.0236 9.95422 3.13867L9.90051 3.25684C9.83615 3.41763 9.80288 3.5896 9.80286 3.7627C9.80286 3.91782 9.83051 4.06784 9.87903 4.20801C9.19904 3.6851 8.36815 3.39551 7.50598 3.39551C5.29845 3.39568 3.53934 5.24148 3.53918 7.4834C3.53918 9.72545 5.29835 11.5721 7.50598 11.5723C8.49779 11.5723 9.44903 11.1898 10.1759 10.5088L10.3175 10.3682C11.0596 9.60029 11.4738 8.56222 11.4738 7.4834C11.4737 6.59154 11.1904 5.72794 10.673 5.02148C10.8093 5.07085 10.9563 5.09956 11.1115 5.09961C11.8501 5.09961 12.42 4.48487 12.42 3.7627C12.42 3.63295 12.4008 3.50407 12.3644 3.37988L12.3224 3.25684C12.2741 3.13627 12.2086 3.02343 12.1281 2.92188L12.0421 2.82422C11.9516 2.73061 11.8482 2.65076 11.7345 2.58789L11.6173 2.53027C11.4575 2.46186 11.2855 2.42676 11.1115 2.42676Z" fill="white" stroke="white"/>
</svg>
