<svg width="124" height="32" viewBox="0 0 124 32" fill="none" xmlns="http://www.w3.org/2000/svg">
<path d="M6.86275 15.158C6.86275 10.256 10.817 6.30175 15.719 6.26907L16.536 2.70698C16.2745 2.6743 16.0131 2.6743 15.7516 2.6743C8.88889 2.6743 3.30066 8.26254 3.30066 15.1253C3.30066 18.1645 4.37909 20.9423 6.20916 23.0991L8.66014 20.4194C7.54902 19.0142 6.86275 17.1841 6.86275 15.158Z" fill="url(#paint0_linear_11_4372)"/>
<path d="M21.7322 21.7266C20.1636 23.1645 18.072 24.0469 15.7518 24.0469C13.2681 24.0469 11.0132 23.0011 9.37924 21.3671L6.96094 24.0142C9.21584 26.2691 12.3204 27.6416 15.7518 27.6416C19.0851 27.6416 22.1243 26.3344 24.3466 24.1776L21.7322 21.7266Z" fill="url(#paint1_linear_11_4372)"/>
<path d="M17.6798 2.87038L16.8955 6.36712C18.7583 6.59587 20.4249 7.41287 21.7321 8.62202L24.6079 6.43248C22.7779 4.56973 20.3596 3.29522 17.6798 2.87038Z" fill="url(#paint2_linear_11_4372)"/>
<path d="M12.5165 8.52399C10.0328 9.73314 8.3335 12.2822 8.3335 15.2233C8.3335 18.1645 10.0328 20.7135 12.5165 21.9227" stroke="url(#paint3_linear_11_4372)" stroke-miterlimit="10"/>
<path d="M12.5164 10.1907C13.4369 10.1907 14.1831 9.44446 14.1831 8.52399C14.1831 7.60351 13.4369 6.85732 12.5164 6.85732C11.5959 6.85732 10.8497 7.60351 10.8497 8.52399C10.8497 9.44446 11.5959 10.1907 12.5164 10.1907Z" fill="url(#paint4_radial_11_4372)"/>
<path d="M11.7319 8.52398C11.7319 8.94881 12.0914 9.30829 12.5162 9.30829C12.9411 9.30829 13.3006 8.94881 13.3006 8.52398C13.3006 8.09914 12.9411 7.73966 12.5162 7.73966C12.0587 7.73966 11.7319 8.09914 11.7319 8.52398Z" fill="url(#paint5_linear_11_4372)"/>
<path d="M12.5164 23.1645C13.4369 23.1645 14.1831 22.4183 14.1831 21.4978C14.1831 20.5774 13.4369 19.8312 12.5164 19.8312C11.5959 19.8312 10.8497 20.5774 10.8497 21.4978C10.8497 22.4183 11.5959 23.1645 12.5164 23.1645Z" fill="url(#paint6_radial_11_4372)"/>
<path d="M11.7319 21.4978C11.7319 21.9227 12.0914 22.2822 12.5162 22.2822C12.9411 22.2822 13.3006 21.9227 13.3006 21.4978C13.3006 21.073 12.9411 20.7135 12.5162 20.7135C12.0587 20.7135 11.7319 21.073 11.7319 21.4978Z" fill="url(#paint7_linear_11_4372)"/>
<path d="M24.7061 26.073C22.2551 28.0991 19.1505 29.2756 15.7518 29.2756" stroke="url(#paint8_linear_11_4372)" stroke-miterlimit="10"/>
<path d="M5.55542 5.48477C8.10444 2.77235 11.7319 1.10568 15.7515 1.10568C19.1502 1.10568 22.2874 2.31483 24.7057 4.3083" stroke="url(#paint9_linear_11_4372)" stroke-miterlimit="10"/>
<path d="M1.66663 15.1907C1.66663 12.3148 2.54898 9.6351 4.01957 7.3802" stroke="url(#paint10_linear_11_4372)" stroke-miterlimit="10"/>
<path d="M13.2679 29.0795C7.38551 28.0338 2.77767 23.3606 1.82996 17.4456" stroke="url(#paint11_linear_11_4372)" stroke-miterlimit="10"/>
<path d="M24.7057 27.805C25.6262 27.805 26.3724 27.0588 26.3724 26.1384C26.3724 25.2179 25.6262 24.4717 24.7057 24.4717C23.7853 24.4717 23.0391 25.2179 23.0391 26.1384C23.0391 27.0588 23.7853 27.805 24.7057 27.805Z" fill="url(#paint12_radial_11_4372)"/>
<path d="M24.7059 26.9227C25.1391 26.9227 25.4903 26.5715 25.4903 26.1384C25.4903 25.7052 25.1391 25.354 24.7059 25.354C24.2728 25.354 23.9216 25.7052 23.9216 26.1384C23.9216 26.5715 24.2728 26.9227 24.7059 26.9227Z" fill="url(#paint13_linear_11_4372)"/>
<path d="M16.1437 31.1057C17.0642 31.1057 17.8104 30.3595 17.8104 29.439C17.8104 28.5186 17.0642 27.7724 16.1437 27.7724C15.2232 27.7724 14.4771 28.5186 14.4771 29.439C14.4771 30.3595 15.2232 31.1057 16.1437 31.1057Z" fill="url(#paint14_radial_11_4372)"/>
<path d="M16.1439 30.2233C16.5771 30.2233 16.9282 29.8722 16.9282 29.439C16.9282 29.0058 16.5771 28.6547 16.1439 28.6547C15.7108 28.6547 15.3596 29.0058 15.3596 29.439C15.3596 29.8722 15.7108 30.2233 16.1439 30.2233Z" fill="url(#paint15_linear_11_4372)"/>
<path d="M13.0393 30.7462C13.9598 30.7462 14.706 30 14.706 29.0795C14.706 28.1591 13.9598 27.4129 13.0393 27.4129C12.1189 27.4129 11.3727 28.1591 11.3727 29.0795C11.3727 30 12.1189 30.7462 13.0393 30.7462Z" fill="url(#paint16_radial_11_4372)"/>
<path d="M13.0392 29.8638C13.4724 29.8638 13.8235 29.5127 13.8235 29.0795C13.8235 28.6464 13.4724 28.2952 13.0392 28.2952C12.606 28.2952 12.2549 28.6464 12.2549 29.0795C12.2549 29.5127 12.606 29.8638 13.0392 29.8638Z" fill="url(#paint17_linear_11_4372)"/>
<path d="M1.96073 19.5697C2.88121 19.5697 3.6274 18.8235 3.6274 17.9031C3.6274 16.9826 2.88121 16.2364 1.96073 16.2364C1.04026 16.2364 0.294067 16.9826 0.294067 17.9031C0.294067 18.8235 1.04026 19.5697 1.96073 19.5697Z" fill="url(#paint18_radial_11_4372)"/>
<path d="M1.96095 18.6874C2.39411 18.6874 2.74526 18.3362 2.74526 17.9031C2.74526 17.4699 2.39411 17.1188 1.96095 17.1188C1.52778 17.1188 1.17664 17.4699 1.17664 17.9031C1.17664 18.3362 1.52778 18.6874 1.96095 18.6874Z" fill="url(#paint19_linear_11_4372)"/>
<path d="M1.66667 16.4652C2.58714 16.4652 3.33333 15.719 3.33333 14.7985C3.33333 13.878 2.58714 13.1318 1.66667 13.1318C0.746192 13.1318 0 13.878 0 14.7985C0 15.719 0.746192 16.4652 1.66667 16.4652Z" fill="url(#paint20_radial_11_4372)"/>
<path d="M1.66652 15.5828C2.09968 15.5828 2.45083 15.2317 2.45083 14.7985C2.45083 14.3653 2.09968 14.0142 1.66652 14.0142C1.23335 14.0142 0.882202 14.3653 0.882202 14.7985C0.882202 15.2317 1.23335 15.5828 1.66652 15.5828Z" fill="url(#paint21_linear_11_4372)"/>
<path d="M3.88883 9.40635C4.80931 9.40635 5.5555 8.66015 5.5555 7.73968C5.5555 6.81921 4.80931 6.07301 3.88883 6.07301C2.96836 6.07301 2.22217 6.81921 2.22217 7.73968C2.22217 8.66015 2.96836 9.40635 3.88883 9.40635Z" fill="url(#paint22_radial_11_4372)"/>
<path d="M3.88905 8.52398C4.32221 8.52398 4.67336 8.17283 4.67336 7.73967C4.67336 7.3065 4.32221 6.95535 3.88905 6.95535C3.45589 6.95535 3.10474 7.3065 3.10474 7.73967C3.10474 8.17283 3.45589 8.52398 3.88905 8.52398Z" fill="url(#paint23_linear_11_4372)"/>
<path d="M4.15027 5.2887C4.15027 6.20373 4.9019 6.95536 5.81693 6.95536C6.73197 6.95536 7.4836 6.20373 7.4836 5.2887C7.4836 4.37367 6.73197 3.62203 5.81693 3.62203C4.86922 3.65471 4.15027 4.37367 4.15027 5.2887Z" fill="url(#paint24_radial_11_4372)"/>
<path d="M4.99988 5.28869C4.99988 5.71352 5.35936 6.073 5.78419 6.073C6.20903 6.073 6.56851 5.71352 6.56851 5.28869C6.56851 4.86385 6.20903 4.50437 5.78419 4.50437C5.35936 4.53705 4.99988 4.86385 4.99988 5.28869Z" fill="url(#paint25_linear_11_4372)"/>
<path d="M24.8365 6.04032C25.7569 6.04032 26.5031 5.29413 26.5031 4.37365C26.5031 3.45318 25.7569 2.70699 24.8365 2.70699C23.916 2.70699 23.1698 3.45318 23.1698 4.37365C23.1698 5.29413 23.916 6.04032 24.8365 6.04032Z" fill="url(#paint26_radial_11_4372)"/>
<path d="M24.8367 5.15797C25.2698 5.15797 25.621 4.80683 25.621 4.37366C25.621 3.9405 25.2698 3.58935 24.8367 3.58935C24.4035 3.58935 24.0524 3.9405 24.0524 4.37366C24.0524 4.80683 24.4035 5.15797 24.8367 5.15797Z" fill="url(#paint27_linear_11_4372)"/>
<path d="M27.1629 16.0657C27.1629 14.679 27.4629 13.4457 28.0629 12.3657C28.6629 11.2723 29.4963 10.4257 30.5629 9.82568C31.6429 9.21235 32.8629 8.90568 34.2229 8.90568C35.8896 8.90568 37.3163 9.34568 38.5029 10.2257C39.6896 11.1057 40.4829 12.3057 40.8829 13.8257H37.1229C36.8429 13.239 36.4429 12.7923 35.9229 12.4857C35.4163 12.179 34.8363 12.0257 34.1829 12.0257C33.1296 12.0257 32.2763 12.3923 31.6229 13.1257C30.9696 13.859 30.6429 14.839 30.6429 16.0657C30.6429 17.2923 30.9696 18.2723 31.6229 19.0057C32.2763 19.739 33.1296 20.1057 34.1829 20.1057C34.8363 20.1057 35.4163 19.9523 35.9229 19.6457C36.4429 19.339 36.8429 18.8923 37.1229 18.3057H40.8829C40.4829 19.8257 39.6896 21.0257 38.5029 21.9057C37.3163 22.7723 35.8896 23.2057 34.2229 23.2057C32.8629 23.2057 31.6429 22.9057 30.5629 22.3057C29.4963 21.6923 28.6629 20.8457 28.0629 19.7657C27.4629 18.6857 27.1629 17.4523 27.1629 16.0657ZM46.3973 13.8057C46.7973 13.1923 47.2973 12.7123 47.8973 12.3657C48.4973 12.0057 49.164 11.8257 49.8973 11.8257V15.4457H48.9573C48.104 15.4457 47.464 15.6323 47.0373 16.0057C46.6106 16.3657 46.3973 17.0057 46.3973 17.9257V23.1057H42.9773V11.9457H46.3973V13.8057ZM62.932 11.9457L55.932 28.4057H52.252L54.812 22.7257L50.272 11.9457H54.092L56.672 18.9257L59.232 11.9457H62.932ZM67.5887 13.5257C67.922 13.0057 68.382 12.5857 68.9687 12.2657C69.5554 11.9457 70.242 11.7857 71.0287 11.7857C71.9487 11.7857 72.782 12.019 73.5287 12.4857C74.2754 12.9523 74.862 13.619 75.2887 14.4857C75.7287 15.3523 75.9487 16.359 75.9487 17.5057C75.9487 18.6523 75.7287 19.6657 75.2887 20.5457C74.862 21.4123 74.2754 22.0857 73.5287 22.5657C72.782 23.0323 71.9487 23.2657 71.0287 23.2657C70.2554 23.2657 69.5687 23.1057 68.9687 22.7857C68.382 22.4657 67.922 22.0523 67.5887 21.5457V28.4257H64.1687V11.9457H67.5887V13.5257ZM72.4687 17.5057C72.4687 16.6523 72.2287 15.9857 71.7487 15.5057C71.282 15.0123 70.702 14.7657 70.0087 14.7657C69.3287 14.7657 68.7487 15.0123 68.2687 15.5057C67.802 15.999 67.5687 16.6723 67.5687 17.5257C67.5687 18.379 67.802 19.0523 68.2687 19.5457C68.7487 20.039 69.3287 20.2857 70.0087 20.2857C70.6887 20.2857 71.2687 20.039 71.7487 19.5457C72.2287 19.039 72.4687 18.359 72.4687 17.5057ZM83.9629 20.2057V23.1057H82.2229C80.9829 23.1057 80.0163 22.8057 79.3229 22.2057C78.6296 21.5923 78.2829 20.599 78.2829 19.2257V14.7857H76.9229V11.9457H78.2829V9.22568H81.7029V11.9457H83.9429V14.7857H81.7029V19.2657C81.7029 19.599 81.7829 19.839 81.9429 19.9857C82.1029 20.1323 82.3696 20.2057 82.7429 20.2057H83.9629ZM90.9479 23.2657C89.8546 23.2657 88.8679 23.0323 87.9879 22.5657C87.1213 22.099 86.4346 21.4323 85.9279 20.5657C85.4346 19.699 85.1879 18.6857 85.1879 17.5257C85.1879 16.379 85.4413 15.3723 85.9479 14.5057C86.4546 13.6257 87.1479 12.9523 88.0279 12.4857C88.9079 12.019 89.8946 11.7857 90.9879 11.7857C92.0813 11.7857 93.0679 12.019 93.9479 12.4857C94.8279 12.9523 95.5213 13.6257 96.0279 14.5057C96.5346 15.3723 96.7879 16.379 96.7879 17.5257C96.7879 18.6723 96.5279 19.6857 96.0079 20.5657C95.5013 21.4323 94.8013 22.099 93.9079 22.5657C93.0279 23.0323 92.0413 23.2657 90.9479 23.2657ZM90.9479 20.3057C91.6013 20.3057 92.1546 20.0657 92.6079 19.5857C93.0746 19.1057 93.3079 18.419 93.3079 17.5257C93.3079 16.6323 93.0813 15.9457 92.6279 15.4657C92.1879 14.9857 91.6413 14.7457 90.9879 14.7457C90.3213 14.7457 89.7679 14.9857 89.3279 15.4657C88.8879 15.9323 88.6679 16.619 88.6679 17.5257C88.6679 18.419 88.8813 19.1057 89.3079 19.5857C89.7479 20.0657 90.2946 20.3057 90.9479 20.3057ZM109.622 11.9457V23.1057H106.202V21.5857C105.856 22.079 105.382 22.479 104.782 22.7857C104.196 23.079 103.542 23.2257 102.822 23.2257C101.969 23.2257 101.216 23.039 100.562 22.6657C99.909 22.279 99.4023 21.7257 99.0423 21.0057C98.6823 20.2857 98.5023 19.439 98.5023 18.4657V11.9457H101.902V18.0057C101.902 18.7523 102.096 19.3323 102.482 19.7457C102.869 20.159 103.389 20.3657 104.042 20.3657C104.709 20.3657 105.236 20.159 105.622 19.7457C106.009 19.3323 106.202 18.7523 106.202 18.0057V11.9457H109.622ZM116.619 23.2657C115.646 23.2657 114.779 23.099 114.019 22.7657C113.259 22.4323 112.659 21.979 112.219 21.4057C111.779 20.819 111.532 20.1657 111.479 19.4457H114.859C114.899 19.8323 115.079 20.1457 115.399 20.3857C115.719 20.6257 116.112 20.7457 116.579 20.7457C117.006 20.7457 117.332 20.6657 117.559 20.5057C117.799 20.3323 117.919 20.1123 117.919 19.8457C117.919 19.5257 117.752 19.2923 117.419 19.1457C117.086 18.9857 116.546 18.8123 115.799 18.6257C114.999 18.439 114.332 18.2457 113.799 18.0457C113.266 17.8323 112.806 17.5057 112.419 17.0657C112.032 16.6123 111.839 16.0057 111.839 15.2457C111.839 14.6057 112.012 14.0257 112.359 13.5057C112.719 12.9723 113.239 12.5523 113.919 12.2457C114.612 11.939 115.432 11.7857 116.379 11.7857C117.779 11.7857 118.879 12.1323 119.679 12.8257C120.492 13.519 120.959 14.439 121.079 15.5857H117.919C117.866 15.199 117.692 14.8923 117.399 14.6657C117.119 14.439 116.746 14.3257 116.279 14.3257C115.879 14.3257 115.572 14.4057 115.359 14.5657C115.146 14.7123 115.039 14.919 115.039 15.1857C115.039 15.5057 115.206 15.7457 115.539 15.9057C115.886 16.0657 116.419 16.2257 117.139 16.3857C117.966 16.599 118.639 16.8123 119.159 17.0257C119.679 17.2257 120.132 17.559 120.519 18.0257C120.919 18.479 121.126 19.0923 121.139 19.8657C121.139 20.519 120.952 21.1057 120.579 21.6257C120.219 22.1323 119.692 22.5323 118.999 22.8257C118.319 23.119 117.526 23.2657 116.619 23.2657Z" fill="white"/>
<defs>
<linearGradient id="paint0_linear_11_4372" x1="9.92043" y1="10.9076" x2="9.92043" y2="30.8506" gradientUnits="userSpaceOnUse">
<stop offset="0.0873016" stop-color="#EB5757"/>
<stop offset="0.9709" stop-color="#3C53D7"/>
</linearGradient>
<linearGradient id="paint1_linear_11_4372" x1="15.6565" y1="23.8964" x2="15.6565" y2="30.0229" gradientUnits="userSpaceOnUse">
<stop offset="0.0873016" stop-color="#EB5757"/>
<stop offset="0.9709" stop-color="#3C53D7"/>
</linearGradient>
<linearGradient id="paint2_linear_11_4372" x1="20.753" y1="5.18889" x2="20.753" y2="10.8048" gradientUnits="userSpaceOnUse">
<stop offset="0.0873016" stop-color="#EB5757"/>
<stop offset="0.9709" stop-color="#3C53D7"/>
</linearGradient>
<linearGradient id="paint3_linear_11_4372" x1="10.4257" y1="13.925" x2="10.4257" y2="27.0076" gradientUnits="userSpaceOnUse">
<stop offset="0.0873016" stop-color="#EB5757"/>
<stop offset="0.9709" stop-color="#3C53D7"/>
</linearGradient>
<radialGradient id="paint4_radial_11_4372" cx="0" cy="0" r="1" gradientUnits="userSpaceOnUse" gradientTransform="translate(12.5313 8.52337) scale(1.51239)">
<stop stop-color="#7F00FE"/>
<stop offset="1" stop-color="#450528" stop-opacity="0"/>
</radialGradient>
<linearGradient id="paint5_linear_11_4372" x1="12.5165" y1="8.37198" x2="12.5165" y2="9.9036" gradientUnits="userSpaceOnUse">
<stop offset="0.0873016" stop-color="#EB5757"/>
<stop offset="0.9709" stop-color="#3C53D7"/>
</linearGradient>
<radialGradient id="paint6_radial_11_4372" cx="0" cy="0" r="1" gradientUnits="userSpaceOnUse" gradientTransform="translate(12.5313 21.4972) scale(1.51239)">
<stop stop-color="#7F00FE"/>
<stop offset="1" stop-color="#450528" stop-opacity="0"/>
</radialGradient>
<linearGradient id="paint7_linear_11_4372" x1="12.5165" y1="21.3459" x2="12.5165" y2="22.8775" gradientUnits="userSpaceOnUse">
<stop offset="0.0873016" stop-color="#EB5757"/>
<stop offset="0.9709" stop-color="#3C53D7"/>
</linearGradient>
<linearGradient id="paint8_linear_11_4372" x1="20.2304" y1="27.364" x2="20.2304" y2="30.491" gradientUnits="userSpaceOnUse">
<stop offset="0.0873016" stop-color="#EB5757"/>
<stop offset="0.9709" stop-color="#3C53D7"/>
</linearGradient>
<linearGradient id="paint9_linear_11_4372" x1="15.1337" y1="2.87091" x2="15.1337" y2="7.14667" gradientUnits="userSpaceOnUse">
<stop offset="0.0873016" stop-color="#EB5757"/>
<stop offset="0.9709" stop-color="#3C53D7"/>
</linearGradient>
<linearGradient id="paint10_linear_11_4372" x1="2.84347" y1="10.5286" x2="2.84347" y2="18.1548" gradientUnits="userSpaceOnUse">
<stop offset="0.0873016" stop-color="#EB5757"/>
<stop offset="0.9709" stop-color="#3C53D7"/>
</linearGradient>
<linearGradient id="paint11_linear_11_4372" x1="7.55074" y1="22.1353" x2="7.55074" y2="33.4948" gradientUnits="userSpaceOnUse">
<stop offset="0.0873016" stop-color="#EB5757"/>
<stop offset="0.9709" stop-color="#3C53D7"/>
</linearGradient>
<radialGradient id="paint12_radial_11_4372" cx="0" cy="0" r="1" gradientUnits="userSpaceOnUse" gradientTransform="translate(24.7206 26.1377) scale(1.51239)">
<stop stop-color="#7F00FE"/>
<stop offset="1" stop-color="#450528" stop-opacity="0"/>
</radialGradient>
<linearGradient id="paint13_linear_11_4372" x1="24.7062" y1="25.9864" x2="24.7062" y2="27.518" gradientUnits="userSpaceOnUse">
<stop offset="0.0873016" stop-color="#EB5757"/>
<stop offset="0.9709" stop-color="#3C53D7"/>
</linearGradient>
<radialGradient id="paint14_radial_11_4372" cx="0" cy="0" r="1" gradientUnits="userSpaceOnUse" gradientTransform="translate(16.1586 29.4384) scale(1.51239)">
<stop stop-color="#7F00FE"/>
<stop offset="1" stop-color="#450528" stop-opacity="0"/>
</radialGradient>
<linearGradient id="paint15_linear_11_4372" x1="16.1442" y1="29.287" x2="16.1442" y2="30.8186" gradientUnits="userSpaceOnUse">
<stop offset="0.0873016" stop-color="#EB5757"/>
<stop offset="0.9709" stop-color="#3C53D7"/>
</linearGradient>
<radialGradient id="paint16_radial_11_4372" cx="0" cy="0" r="1" gradientUnits="userSpaceOnUse" gradientTransform="translate(13.0542 29.0789) scale(1.51239)">
<stop stop-color="#7F00FE"/>
<stop offset="1" stop-color="#450528" stop-opacity="0"/>
</radialGradient>
<linearGradient id="paint17_linear_11_4372" x1="13.0394" y1="28.9275" x2="13.0394" y2="30.4592" gradientUnits="userSpaceOnUse">
<stop offset="0.0873016" stop-color="#EB5757"/>
<stop offset="0.9709" stop-color="#3C53D7"/>
</linearGradient>
<radialGradient id="paint18_radial_11_4372" cx="0" cy="0" r="1" gradientUnits="userSpaceOnUse" gradientTransform="translate(1.9756 17.9024) scale(1.51239)">
<stop stop-color="#7F00FE"/>
<stop offset="1" stop-color="#450528" stop-opacity="0"/>
</radialGradient>
<linearGradient id="paint19_linear_11_4372" x1="1.9612" y1="17.7511" x2="1.9612" y2="19.2827" gradientUnits="userSpaceOnUse">
<stop offset="0.0873016" stop-color="#EB5757"/>
<stop offset="0.9709" stop-color="#3C53D7"/>
</linearGradient>
<radialGradient id="paint20_radial_11_4372" cx="0" cy="0" r="1" gradientUnits="userSpaceOnUse" gradientTransform="translate(1.68154 14.7979) scale(1.51239)">
<stop stop-color="#7F00FE"/>
<stop offset="1" stop-color="#450528" stop-opacity="0"/>
</radialGradient>
<linearGradient id="paint21_linear_11_4372" x1="1.66677" y1="14.6465" x2="1.66677" y2="16.1781" gradientUnits="userSpaceOnUse">
<stop offset="0.0873016" stop-color="#EB5757"/>
<stop offset="0.9709" stop-color="#3C53D7"/>
</linearGradient>
<radialGradient id="paint22_radial_11_4372" cx="0" cy="0" r="1" gradientUnits="userSpaceOnUse" gradientTransform="translate(3.9037 7.73906) scale(1.51239)">
<stop stop-color="#7F00FE"/>
<stop offset="1" stop-color="#450528" stop-opacity="0"/>
</radialGradient>
<linearGradient id="paint23_linear_11_4372" x1="3.8893" y1="7.58767" x2="3.8893" y2="9.11929" gradientUnits="userSpaceOnUse">
<stop offset="0.0873016" stop-color="#EB5757"/>
<stop offset="0.9709" stop-color="#3C53D7"/>
</linearGradient>
<radialGradient id="paint24_radial_11_4372" cx="0" cy="0" r="1" gradientUnits="userSpaceOnUse" gradientTransform="translate(5.8318 5.28808) scale(1.51239)">
<stop stop-color="#7F00FE"/>
<stop offset="1" stop-color="#450528" stop-opacity="0"/>
</radialGradient>
<linearGradient id="paint25_linear_11_4372" x1="5.78444" y1="5.13669" x2="5.78444" y2="6.66831" gradientUnits="userSpaceOnUse">
<stop offset="0.0873016" stop-color="#EB5757"/>
<stop offset="0.9709" stop-color="#3C53D7"/>
</linearGradient>
<radialGradient id="paint26_radial_11_4372" cx="0" cy="0" r="1" gradientUnits="userSpaceOnUse" gradientTransform="translate(24.8513 4.37303) scale(1.51239)">
<stop stop-color="#7F00FE"/>
<stop offset="1" stop-color="#450528" stop-opacity="0"/>
</radialGradient>
<linearGradient id="paint27_linear_11_4372" x1="24.8369" y1="4.22167" x2="24.8369" y2="5.75328" gradientUnits="userSpaceOnUse">
<stop offset="0.0873016" stop-color="#EB5757"/>
<stop offset="0.9709" stop-color="#3C53D7"/>
</linearGradient>
</defs>
</svg>
