<svg width="154" height="42" viewBox="0 0 154 42" fill="none" xmlns="http://www.w3.org/2000/svg">
<path d="M9.15038 20.166C9.15038 13.63 14.4227 8.35769 20.9587 8.31412L22.048 3.56466C21.6994 3.52109 21.3508 3.52109 21.0022 3.52109C11.8519 3.52109 4.40092 10.9721 4.40092 20.1224C4.40092 24.1747 5.83883 27.8784 8.27892 30.7542L11.5469 27.1812C10.0654 25.3076 9.15038 22.8675 9.15038 20.166Z" fill="url(#paint0_linear_11_3265)"/>
<path d="M28.9761 28.9242C26.8846 30.8414 24.0959 32.0178 21.0022 32.0178C17.6907 32.0178 14.6841 30.6235 12.5055 28.4449L9.2811 31.9743C12.2876 34.9808 16.4271 36.8109 21.0022 36.8109C25.4467 36.8109 29.499 35.0679 32.4619 32.1921L28.9761 28.9242Z" fill="url(#paint1_linear_11_3265)"/>
<path d="M23.573 3.78254L22.5273 8.44485C25.0109 8.74986 27.2331 9.83919 28.9761 11.4514L32.8105 8.532C30.3704 6.04834 27.146 4.34899 23.573 3.78254Z" fill="url(#paint2_linear_11_3265)"/>
<path d="M16.6885 11.3207C13.377 12.9329 11.1112 16.3316 11.1112 20.2531C11.1112 24.1747 13.377 27.5734 16.6885 29.1856" stroke="url(#paint3_linear_11_3265)" stroke-miterlimit="10"/>
<path d="M16.6885 13.5429C17.9158 13.5429 18.9107 12.548 18.9107 11.3207C18.9107 10.0934 17.9158 9.09844 16.6885 9.09844C15.4612 9.09844 14.4663 10.0934 14.4663 11.3207C14.4663 12.548 15.4612 13.5429 16.6885 13.5429Z" fill="url(#paint4_radial_11_3265)"/>
<path d="M15.6427 11.3207C15.6427 11.8871 16.122 12.3664 16.6885 12.3664C17.2549 12.3664 17.7342 11.8871 17.7342 11.3207C17.7342 10.7542 17.2549 10.2749 16.6885 10.2749C16.0785 10.2749 15.6427 10.7542 15.6427 11.3207Z" fill="url(#paint5_linear_11_3265)"/>
<path d="M16.6885 30.8413C17.9158 30.8413 18.9107 29.8464 18.9107 28.6191C18.9107 27.3918 17.9158 26.3969 16.6885 26.3969C15.4612 26.3969 14.4663 27.3918 14.4663 28.6191C14.4663 29.8464 15.4612 30.8413 16.6885 30.8413Z" fill="url(#paint6_radial_11_3265)"/>
<path d="M15.6427 28.6191C15.6427 29.1856 16.122 29.6649 16.6885 29.6649C17.2549 29.6649 17.7342 29.1856 17.7342 28.6191C17.7342 28.0527 17.2549 27.5734 16.6885 27.5734C16.0785 27.5734 15.6427 28.0527 15.6427 28.6191Z" fill="url(#paint7_linear_11_3265)"/>
<path d="M32.9412 34.7193C29.6733 37.4209 25.5338 38.9895 21.0022 38.9895" stroke="url(#paint8_linear_11_3265)" stroke-miterlimit="10"/>
<path d="M7.40744 7.26838C10.8061 3.65182 15.6427 1.4296 21.0022 1.4296C25.5338 1.4296 29.7168 3.0418 32.9412 5.69975" stroke="url(#paint9_linear_11_3265)" stroke-miterlimit="10"/>
<path d="M2.22226 20.2096C2.22226 16.3751 3.39873 12.8022 5.35951 9.79562" stroke="url(#paint10_linear_11_3265)" stroke-miterlimit="10"/>
<path d="M17.6907 38.7281C9.84752 37.3337 3.70373 31.1028 2.44011 23.2161" stroke="url(#paint11_linear_11_3265)" stroke-miterlimit="10"/>
<path d="M32.9412 37.0287C34.1685 37.0287 35.1634 36.0338 35.1634 34.8065C35.1634 33.5792 34.1685 32.5843 32.9412 32.5843C31.7139 32.5843 30.719 33.5792 30.719 34.8065C30.719 36.0338 31.7139 37.0287 32.9412 37.0287Z" fill="url(#paint12_radial_11_3265)"/>
<path d="M32.9412 35.8522C33.5188 35.8522 33.987 35.384 33.987 34.8065C33.987 34.2289 33.5188 33.7607 32.9412 33.7607C32.3637 33.7607 31.8955 34.2289 31.8955 34.8065C31.8955 35.384 32.3637 35.8522 32.9412 35.8522Z" fill="url(#paint13_linear_11_3265)"/>
<path d="M21.5251 41.4296C22.7524 41.4296 23.7473 40.4347 23.7473 39.2074C23.7473 37.9801 22.7524 36.9852 21.5251 36.9852C20.2978 36.9852 19.3029 37.9801 19.3029 39.2074C19.3029 40.4347 20.2978 41.4296 21.5251 41.4296Z" fill="url(#paint14_radial_11_3265)"/>
<path d="M21.5251 40.2531C22.1026 40.2531 22.5708 39.7849 22.5708 39.2074C22.5708 38.6298 22.1026 38.1616 21.5251 38.1616C20.9475 38.1616 20.4793 38.6298 20.4793 39.2074C20.4793 39.7849 20.9475 40.2531 21.5251 40.2531Z" fill="url(#paint15_linear_11_3265)"/>
<path d="M17.3857 40.9503C18.613 40.9503 19.6079 39.9554 19.6079 38.7281C19.6079 37.5008 18.613 36.5058 17.3857 36.5058C16.1584 36.5058 15.1635 37.5008 15.1635 38.7281C15.1635 39.9554 16.1584 40.9503 17.3857 40.9503Z" fill="url(#paint16_radial_11_3265)"/>
<path d="M17.3857 39.7738C17.9632 39.7738 18.4314 39.3056 18.4314 38.728C18.4314 38.1505 17.9632 37.6823 17.3857 37.6823C16.8081 37.6823 16.3399 38.1505 16.3399 38.728C16.3399 39.3056 16.8081 39.7738 17.3857 39.7738Z" fill="url(#paint17_linear_11_3265)"/>
<path d="M2.61443 26.0483C3.84173 26.0483 4.83666 25.0534 4.83666 23.8261C4.83666 22.5988 3.84173 21.6039 2.61443 21.6039C1.38713 21.6039 0.392212 22.5988 0.392212 23.8261C0.392212 25.0534 1.38713 26.0483 2.61443 26.0483Z" fill="url(#paint18_radial_11_3265)"/>
<path d="M2.6144 24.8719C3.19195 24.8719 3.66015 24.4037 3.66015 23.8261C3.66015 23.2486 3.19195 22.7804 2.6144 22.7804C2.03685 22.7804 1.56865 23.2486 1.56865 23.8261C1.56865 24.4037 2.03685 24.8719 2.6144 24.8719Z" fill="url(#paint19_linear_11_3265)"/>
<path d="M2.22227 21.9089C3.44957 21.9089 4.44449 20.914 4.44449 19.6867C4.44449 18.4594 3.44957 17.4644 2.22227 17.4644C0.994968 17.4644 4.57764e-05 18.4594 4.57764e-05 19.6867C4.57764e-05 20.914 0.994968 21.9089 2.22227 21.9089Z" fill="url(#paint20_radial_11_3265)"/>
<path d="M2.22227 20.7324C2.79982 20.7324 3.26802 20.2642 3.26802 19.6867C3.26802 19.1091 2.79982 18.6409 2.22227 18.6409C1.64471 18.6409 1.17651 19.1091 1.17651 19.6867C1.17651 20.2642 1.64471 20.7324 2.22227 20.7324Z" fill="url(#paint21_linear_11_3265)"/>
<path d="M5.18523 12.4971C6.41253 12.4971 7.40746 11.5022 7.40746 10.2749C7.40746 9.04763 6.41253 8.0527 5.18523 8.0527C3.95794 8.0527 2.96301 9.04763 2.96301 10.2749C2.96301 11.5022 3.95794 12.4971 5.18523 12.4971Z" fill="url(#paint22_radial_11_3265)"/>
<path d="M5.18525 11.3207C5.7628 11.3207 6.231 10.8525 6.231 10.2749C6.231 9.69736 5.7628 9.22916 5.18525 9.22916C4.60769 9.22916 4.1395 9.69736 4.1395 10.2749C4.1395 10.8525 4.60769 11.3207 5.18525 11.3207Z" fill="url(#paint23_linear_11_3265)"/>
<path d="M5.53381 7.00694C5.53381 8.22699 6.53599 9.22916 7.75604 9.22916C8.97608 9.22916 9.97826 8.22699 9.97826 7.00694C9.97826 5.7869 8.97608 4.78472 7.75604 4.78472C6.49242 4.82829 5.53381 5.7869 5.53381 7.00694Z" fill="url(#paint24_radial_11_3265)"/>
<path d="M6.66672 7.00694C6.66672 7.57339 7.14602 8.05269 7.71247 8.05269C8.27892 8.05269 8.75822 7.57339 8.75822 7.00694C8.75822 6.44049 8.27892 5.96119 7.71247 5.96119C7.14602 6.00476 6.66672 6.44049 6.66672 7.00694Z" fill="url(#paint25_linear_11_3265)"/>
<path d="M33.1155 8.00911C34.3428 8.00911 35.3377 7.01419 35.3377 5.78689C35.3377 4.55959 34.3428 3.56467 33.1155 3.56467C31.8882 3.56467 30.8933 4.55959 30.8933 5.78689C30.8933 7.01419 31.8882 8.00911 33.1155 8.00911Z" fill="url(#paint26_radial_11_3265)"/>
<path d="M33.1155 6.83264C33.6931 6.83264 34.1613 6.36444 34.1613 5.78689C34.1613 5.20934 33.6931 4.74114 33.1155 4.74114C32.5379 4.74114 32.0697 5.20934 32.0697 5.78689C32.0697 6.36444 32.5379 6.83264 33.1155 6.83264Z" fill="url(#paint27_linear_11_3265)"/>
<path d="M37.1297 20.9816C37.1297 19.3176 37.4897 17.8376 38.2097 16.5416C38.9297 15.2296 39.9297 14.2136 41.2097 13.4936C42.5057 12.7576 43.9697 12.3896 45.6017 12.3896C47.6017 12.3896 49.3137 12.9176 50.7377 13.9736C52.1617 15.0296 53.1137 16.4696 53.5937 18.2936H49.0817C48.7457 17.5896 48.2657 17.0536 47.6417 16.6856C47.0337 16.3176 46.3377 16.1336 45.5537 16.1336C44.2897 16.1336 43.2657 16.5736 42.4817 17.4536C41.6977 18.3336 41.3057 19.5096 41.3057 20.9816C41.3057 22.4536 41.6977 23.6296 42.4817 24.5096C43.2657 25.3896 44.2897 25.8296 45.5537 25.8296C46.3377 25.8296 47.0337 25.6456 47.6417 25.2776C48.2657 24.9096 48.7457 24.3736 49.0817 23.6696H53.5937C53.1137 25.4936 52.1617 26.9336 50.7377 27.9896C49.3137 29.0296 47.6017 29.5496 45.6017 29.5496C43.9697 29.5496 42.5057 29.1896 41.2097 28.4696C39.9297 27.7336 38.9297 26.7176 38.2097 25.4216C37.4897 24.1256 37.1297 22.6456 37.1297 20.9816ZM60.2109 18.2696C60.6909 17.5336 61.2909 16.9576 62.0109 16.5416C62.7309 16.1096 63.5309 15.8936 64.4109 15.8936V20.2376H63.2829C62.2589 20.2376 61.4909 20.4616 60.9789 20.9096C60.4669 21.3416 60.2109 22.1096 60.2109 23.2136V29.4296H56.1069V16.0376H60.2109V18.2696ZM80.0526 16.0376L71.6526 35.7896H67.2366L70.3086 28.9736L64.8606 16.0376H69.4446L72.5406 24.4136L75.6126 16.0376H80.0526ZM85.6406 17.9336C86.0406 17.3096 86.5926 16.8056 87.2966 16.4216C88.0006 16.0376 88.8246 15.8456 89.7686 15.8456C90.8726 15.8456 91.8726 16.1256 92.7686 16.6856C93.6646 17.2456 94.3686 18.0456 94.8806 19.0856C95.4086 20.1256 95.6726 21.3336 95.6726 22.7096C95.6726 24.0856 95.4086 25.3016 94.8806 26.3576C94.3686 27.3976 93.6646 28.2056 92.7686 28.7816C91.8726 29.3416 90.8726 29.6216 89.7686 29.6216C88.8406 29.6216 88.0166 29.4296 87.2966 29.0456C86.5926 28.6616 86.0406 28.1656 85.6406 27.5576V35.8136H81.5366V16.0376H85.6406V17.9336ZM91.4966 22.7096C91.4966 21.6856 91.2086 20.8856 90.6326 20.3096C90.0726 19.7176 89.3766 19.4216 88.5446 19.4216C87.7286 19.4216 87.0326 19.7176 86.4566 20.3096C85.8966 20.9016 85.6166 21.7096 85.6166 22.7336C85.6166 23.7576 85.8966 24.5656 86.4566 25.1576C87.0326 25.7496 87.7286 26.0456 88.5446 26.0456C89.3606 26.0456 90.0566 25.7496 90.6326 25.1576C91.2086 24.5496 91.4966 23.7336 91.4966 22.7096ZM105.29 25.9496V29.4296H103.202C101.714 29.4296 100.554 29.0696 99.7217 28.3496C98.8897 27.6136 98.4737 26.4216 98.4737 24.7736V19.4456H96.8417V16.0376H98.4737V12.7736H102.578V16.0376H105.266V19.4456H102.578V24.8216C102.578 25.2216 102.674 25.5096 102.866 25.6856C103.058 25.8616 103.378 25.9496 103.826 25.9496H105.29ZM113.672 29.6216C112.36 29.6216 111.176 29.3416 110.12 28.7816C109.08 28.2216 108.256 27.4216 107.648 26.3816C107.056 25.3416 106.76 24.1256 106.76 22.7336C106.76 21.3576 107.064 20.1496 107.672 19.1096C108.28 18.0536 109.112 17.2456 110.168 16.6856C111.224 16.1256 112.408 15.8456 113.72 15.8456C115.032 15.8456 116.216 16.1256 117.272 16.6856C118.328 17.2456 119.16 18.0536 119.768 19.1096C120.376 20.1496 120.68 21.3576 120.68 22.7336C120.68 24.1096 120.368 25.3256 119.744 26.3816C119.136 27.4216 118.296 28.2216 117.224 28.7816C116.168 29.3416 114.984 29.6216 113.672 29.6216ZM113.672 26.0696C114.456 26.0696 115.12 25.7816 115.664 25.2056C116.224 24.6296 116.504 23.8056 116.504 22.7336C116.504 21.6616 116.232 20.8376 115.688 20.2616C115.16 19.6856 114.504 19.3976 113.72 19.3976C112.92 19.3976 112.256 19.6856 111.728 20.2616C111.2 20.8216 110.936 21.6456 110.936 22.7336C110.936 23.8056 111.192 24.6296 111.704 25.2056C112.232 25.7816 112.888 26.0696 113.672 26.0696ZM136.081 16.0376V29.4296H131.977V27.6056C131.561 28.1976 130.993 28.6776 130.273 29.0456C129.569 29.3976 128.785 29.5736 127.921 29.5736C126.897 29.5736 125.993 29.3496 125.209 28.9016C124.425 28.4376 123.817 27.7736 123.385 26.9096C122.953 26.0456 122.737 25.0296 122.737 23.8616V16.0376H126.817V23.3096C126.817 24.2056 127.049 24.9016 127.513 25.3976C127.977 25.8936 128.601 26.1416 129.385 26.1416C130.185 26.1416 130.817 25.8936 131.281 25.3976C131.745 24.9016 131.977 24.2056 131.977 23.3096V16.0376H136.081ZM144.477 29.6216C143.309 29.6216 142.269 29.4216 141.357 29.0216C140.445 28.6216 139.725 28.0776 139.197 27.3896C138.669 26.6856 138.373 25.9016 138.309 25.0376H142.365C142.413 25.5016 142.629 25.8776 143.013 26.1656C143.397 26.4536 143.869 26.5976 144.429 26.5976C144.941 26.5976 145.333 26.5016 145.605 26.3096C145.893 26.1016 146.037 25.8376 146.037 25.5176C146.037 25.1336 145.837 24.8536 145.437 24.6776C145.037 24.4856 144.389 24.2776 143.493 24.0536C142.533 23.8296 141.733 23.5976 141.093 23.3576C140.453 23.1016 139.901 22.7096 139.437 22.1816C138.973 21.6376 138.741 20.9096 138.741 19.9976C138.741 19.2296 138.949 18.5336 139.365 17.9096C139.797 17.2696 140.421 16.7656 141.237 16.3976C142.069 16.0296 143.053 15.8456 144.189 15.8456C145.869 15.8456 147.189 16.2616 148.149 17.0936C149.125 17.9256 149.685 19.0296 149.829 20.4056H146.037C145.973 19.9416 145.765 19.5736 145.413 19.3016C145.077 19.0296 144.629 18.8936 144.069 18.8936C143.589 18.8936 143.221 18.9896 142.965 19.1816C142.709 19.3576 142.581 19.6056 142.581 19.9256C142.581 20.3096 142.781 20.5976 143.181 20.7896C143.597 20.9816 144.237 21.1736 145.101 21.3656C146.093 21.6216 146.901 21.8776 147.525 22.1336C148.149 22.3736 148.693 22.7736 149.157 23.3336C149.637 23.8776 149.885 24.6136 149.901 25.5416C149.901 26.3256 149.677 27.0296 149.229 27.6536C148.797 28.2616 148.165 28.7416 147.333 29.0936C146.517 29.4456 145.565 29.6216 144.477 29.6216Z" fill="white"/>
<defs>
<linearGradient id="paint0_linear_11_3265" x1="13.2273" y1="14.4988" x2="13.2273" y2="41.0894" gradientUnits="userSpaceOnUse">
<stop offset="0.0873016" stop-color="#EB5757"/>
<stop offset="0.9709" stop-color="#3C53D7"/>
</linearGradient>
<linearGradient id="paint1_linear_11_3265" x1="20.8752" y1="31.8172" x2="20.8752" y2="39.9858" gradientUnits="userSpaceOnUse">
<stop offset="0.0873016" stop-color="#EB5757"/>
<stop offset="0.9709" stop-color="#3C53D7"/>
</linearGradient>
<linearGradient id="paint2_linear_11_3265" x1="27.6705" y1="6.87388" x2="27.6705" y2="14.3618" gradientUnits="userSpaceOnUse">
<stop offset="0.0873016" stop-color="#EB5757"/>
<stop offset="0.9709" stop-color="#3C53D7"/>
</linearGradient>
<linearGradient id="paint3_linear_11_3265" x1="13.9007" y1="18.5221" x2="13.9007" y2="35.9655" gradientUnits="userSpaceOnUse">
<stop offset="0.0873016" stop-color="#EB5757"/>
<stop offset="0.9709" stop-color="#3C53D7"/>
</linearGradient>
<radialGradient id="paint4_radial_11_3265" cx="0" cy="0" r="1" gradientUnits="userSpaceOnUse" gradientTransform="translate(16.7083 11.3198) scale(2.01651)">
<stop stop-color="#7F00FE"/>
<stop offset="1" stop-color="#450528" stop-opacity="0"/>
</radialGradient>
<linearGradient id="paint5_linear_11_3265" x1="16.6888" y1="11.118" x2="16.6888" y2="13.1602" gradientUnits="userSpaceOnUse">
<stop offset="0.0873016" stop-color="#EB5757"/>
<stop offset="0.9709" stop-color="#3C53D7"/>
</linearGradient>
<radialGradient id="paint6_radial_11_3265" cx="0" cy="0" r="1" gradientUnits="userSpaceOnUse" gradientTransform="translate(16.7083 28.6183) scale(2.01651)">
<stop stop-color="#7F00FE"/>
<stop offset="1" stop-color="#450528" stop-opacity="0"/>
</radialGradient>
<linearGradient id="paint7_linear_11_3265" x1="16.6888" y1="28.4165" x2="16.6888" y2="30.4586" gradientUnits="userSpaceOnUse">
<stop offset="0.0873016" stop-color="#EB5757"/>
<stop offset="0.9709" stop-color="#3C53D7"/>
</linearGradient>
<linearGradient id="paint8_linear_11_3265" x1="26.9737" y1="36.4407" x2="26.9737" y2="40.6101" gradientUnits="userSpaceOnUse">
<stop offset="0.0873016" stop-color="#EB5757"/>
<stop offset="0.9709" stop-color="#3C53D7"/>
</linearGradient>
<linearGradient id="paint9_linear_11_3265" x1="20.1784" y1="3.78323" x2="20.1784" y2="9.48425" gradientUnits="userSpaceOnUse">
<stop offset="0.0873016" stop-color="#EB5757"/>
<stop offset="0.9709" stop-color="#3C53D7"/>
</linearGradient>
<linearGradient id="paint10_linear_11_3265" x1="3.79139" y1="13.9935" x2="3.79139" y2="24.1618" gradientUnits="userSpaceOnUse">
<stop offset="0.0873016" stop-color="#EB5757"/>
<stop offset="0.9709" stop-color="#3C53D7"/>
</linearGradient>
<linearGradient id="paint11_linear_11_3265" x1="10.0678" y1="29.469" x2="10.0678" y2="44.615" gradientUnits="userSpaceOnUse">
<stop offset="0.0873016" stop-color="#EB5757"/>
<stop offset="0.9709" stop-color="#3C53D7"/>
</linearGradient>
<radialGradient id="paint12_radial_11_3265" cx="0" cy="0" r="1" gradientUnits="userSpaceOnUse" gradientTransform="translate(32.961 34.8057) scale(2.01651)">
<stop stop-color="#7F00FE"/>
<stop offset="1" stop-color="#450528" stop-opacity="0"/>
</radialGradient>
<linearGradient id="paint13_linear_11_3265" x1="32.9416" y1="34.6038" x2="32.9416" y2="36.646" gradientUnits="userSpaceOnUse">
<stop offset="0.0873016" stop-color="#EB5757"/>
<stop offset="0.9709" stop-color="#3C53D7"/>
</linearGradient>
<radialGradient id="paint14_radial_11_3265" cx="0" cy="0" r="1" gradientUnits="userSpaceOnUse" gradientTransform="translate(21.5449 39.2065) scale(2.01651)">
<stop stop-color="#7F00FE"/>
<stop offset="1" stop-color="#450528" stop-opacity="0"/>
</radialGradient>
<linearGradient id="paint15_linear_11_3265" x1="21.5254" y1="39.0047" x2="21.5254" y2="41.0469" gradientUnits="userSpaceOnUse">
<stop offset="0.0873016" stop-color="#EB5757"/>
<stop offset="0.9709" stop-color="#3C53D7"/>
</linearGradient>
<radialGradient id="paint16_radial_11_3265" cx="0" cy="0" r="1" gradientUnits="userSpaceOnUse" gradientTransform="translate(17.4055 38.7272) scale(2.01651)">
<stop stop-color="#7F00FE"/>
<stop offset="1" stop-color="#450528" stop-opacity="0"/>
</radialGradient>
<linearGradient id="paint17_linear_11_3265" x1="17.386" y1="38.5254" x2="17.386" y2="40.5675" gradientUnits="userSpaceOnUse">
<stop offset="0.0873016" stop-color="#EB5757"/>
<stop offset="0.9709" stop-color="#3C53D7"/>
</linearGradient>
<radialGradient id="paint18_radial_11_3265" cx="0" cy="0" r="1" gradientUnits="userSpaceOnUse" gradientTransform="translate(2.63426 23.8253) scale(2.01651)">
<stop stop-color="#7F00FE"/>
<stop offset="1" stop-color="#450528" stop-opacity="0"/>
</radialGradient>
<linearGradient id="paint19_linear_11_3265" x1="2.61474" y1="23.6235" x2="2.61474" y2="25.6656" gradientUnits="userSpaceOnUse">
<stop offset="0.0873016" stop-color="#EB5757"/>
<stop offset="0.9709" stop-color="#3C53D7"/>
</linearGradient>
<radialGradient id="paint20_radial_11_3265" cx="0" cy="0" r="1" gradientUnits="userSpaceOnUse" gradientTransform="translate(2.24209 19.6858) scale(2.01651)">
<stop stop-color="#7F00FE"/>
<stop offset="1" stop-color="#450528" stop-opacity="0"/>
</radialGradient>
<linearGradient id="paint21_linear_11_3265" x1="2.2226" y1="19.484" x2="2.2226" y2="21.5262" gradientUnits="userSpaceOnUse">
<stop offset="0.0873016" stop-color="#EB5757"/>
<stop offset="0.9709" stop-color="#3C53D7"/>
</linearGradient>
<radialGradient id="paint22_radial_11_3265" cx="0" cy="0" r="1" gradientUnits="userSpaceOnUse" gradientTransform="translate(5.20506 10.2741) scale(2.01651)">
<stop stop-color="#7F00FE"/>
<stop offset="1" stop-color="#450528" stop-opacity="0"/>
</radialGradient>
<linearGradient id="paint23_linear_11_3265" x1="5.18558" y1="10.0722" x2="5.18558" y2="12.1144" gradientUnits="userSpaceOnUse">
<stop offset="0.0873016" stop-color="#EB5757"/>
<stop offset="0.9709" stop-color="#3C53D7"/>
</linearGradient>
<radialGradient id="paint24_radial_11_3265" cx="0" cy="0" r="1" gradientUnits="userSpaceOnUse" gradientTransform="translate(7.77586 7.00611) scale(2.01651)">
<stop stop-color="#7F00FE"/>
<stop offset="1" stop-color="#450528" stop-opacity="0"/>
</radialGradient>
<linearGradient id="paint25_linear_11_3265" x1="7.7128" y1="6.80428" x2="7.7128" y2="8.84644" gradientUnits="userSpaceOnUse">
<stop offset="0.0873016" stop-color="#EB5757"/>
<stop offset="0.9709" stop-color="#3C53D7"/>
</linearGradient>
<radialGradient id="paint26_radial_11_3265" cx="0" cy="0" r="1" gradientUnits="userSpaceOnUse" gradientTransform="translate(33.1353 5.78606) scale(2.01651)">
<stop stop-color="#7F00FE"/>
<stop offset="1" stop-color="#450528" stop-opacity="0"/>
</radialGradient>
<linearGradient id="paint27_linear_11_3265" x1="33.1158" y1="5.58423" x2="33.1158" y2="7.62639" gradientUnits="userSpaceOnUse">
<stop offset="0.0873016" stop-color="#EB5757"/>
<stop offset="0.9709" stop-color="#3C53D7"/>
</linearGradient>
</defs>
</svg>
