<svg width="519" height="216" viewBox="0 0 519 216" fill="none" xmlns="http://www.w3.org/2000/svg">
<g filter="url(#filter0_d_11_1549)">
<path d="M100.97 44.3031H103.98C104.18 44.3031 104.34 44.1431 104.34 43.9531C104.34 43.7531 104.18 43.5931 103.98 43.5931H100.97C100.78 43.5931 100.61 43.7531 100.61 43.9531C100.61 44.1431 100.77 44.3031 100.97 44.3031ZM102.47 70.7131C101.61 70.7131 100.9 71.4231 100.9 72.2831C100.9 73.1431 101.6 73.8531 102.47 73.8531C103.34 73.8531 104.04 73.1531 104.04 72.2831C104.04 71.4131 103.34 70.7131 102.47 70.7131ZM94.79 69.3731H110.17V46.6231H94.79V69.3731ZM144.08 61.9031C143.35 61.9031 142.69 62.1431 142.1 62.6231C141.51 63.1131 141.12 63.7431 140.94 64.5331C140.85 64.9031 140.81 65.2031 140.81 65.4331V67.6431C140.81 68.6131 141.1 69.4331 141.7 70.0931C142.29 70.7531 143.06 71.0931 144.01 71.0931C145.12 71.0931 145.99 70.6631 146.61 69.8031C147.23 68.9431 147.54 67.8131 147.54 66.4031C147.54 65.1131 147.25 64.0431 146.67 63.2031C146.02 62.3431 145.16 61.9031 144.08 61.9031ZM198.01 61.7131C196.83 61.7131 195.92 62.2431 195.31 63.2931C194.77 64.1631 194.51 65.2231 194.51 66.4831C194.51 67.7031 194.77 68.7531 195.31 69.6231C195.94 70.6731 196.84 71.2031 197.99 71.2031C199.11 71.2031 200 70.6731 200.64 69.5931C201.19 68.7131 201.47 67.6531 201.47 66.4331C201.47 65.2131 201.21 64.1631 200.68 63.2931C200.04 62.2431 199.16 61.7131 198.01 61.7131ZM158.7 61.9031C157.97 61.9031 157.31 62.1431 156.72 62.6231C156.13 63.1131 155.74 63.7431 155.55 64.5331C155.46 64.9031 155.42 65.2031 155.42 65.4331V67.6431C155.42 68.6131 155.71 69.4331 156.31 70.0931C156.9 70.7531 157.67 71.0931 158.62 71.0931C159.74 71.0931 160.6 70.6631 161.23 69.8031C161.85 68.9431 162.16 67.8131 162.16 66.4031C162.16 65.1131 161.87 64.0431 161.28 63.2031C160.64 62.3431 159.78 61.9031 158.7 61.9031ZM128.16 57.1431H128.1C127.91 57.9331 127.63 59.0831 127.22 60.6231L125.69 65.4431H130.64L129.09 60.6231C128.92 60.1231 128.61 58.9631 128.16 57.1431ZM220.43 61.5731C219.47 61.5731 218.68 61.9831 218.08 62.7831C217.59 63.4231 217.29 64.1831 217.2 65.0731H223.36C223.38 64.2031 223.19 63.4431 222.79 62.8031C222.27 61.9931 221.48 61.5731 220.43 61.5731ZM141.19 48.4431C141.23 48.3131 141.23 48.1931 141.23 48.0631V47.1231C140.01 47.1131 138.84 47.3631 138.84 48.4031C138.84 49.0831 139.28 49.3931 139.82 49.3931C140.53 49.3831 141.02 48.9331 141.19 48.4431ZM125.06 44.1431C124.88 43.5631 124.72 42.9231 124.58 42.3731H124.55C124.41 42.9231 124.26 43.5831 124.1 44.1431L123.37 46.4831H125.8L125.06 44.1431ZM232.39 30.3331H86.72C83.02 30.3331 80 33.3531 80 37.0531V78.9131C80 82.6131 83.02 85.6231 86.72 85.6231H232.39C236.1 85.6231 239.11 82.6131 239.11 78.9131V37.0531C239.12 33.3531 236.1 30.3331 232.39 30.3331ZM223.16 43.4631C225.38 43.4631 226.12 45.2931 226.12 46.7931C226.12 47.1131 226.09 47.3731 226.06 47.5231H221.47C221.51 48.7631 222.47 49.2931 223.58 49.2931C224.38 49.2931 224.95 49.1631 225.48 48.9831L225.73 50.1631C225.14 50.4131 224.32 50.6031 223.34 50.6031C221.12 50.6031 219.81 49.2431 219.81 47.1431C219.81 45.2531 220.96 43.4631 223.16 43.4631ZM195.7 43.6231L195.78 44.6531H195.82C196.13 44.1131 196.87 43.4731 198.01 43.4731C199.21 43.4731 200.44 44.2431 200.44 46.4131V50.4831H198.71V46.6131C198.71 45.6331 198.34 44.8831 197.4 44.8831C196.71 44.8831 196.23 45.3731 196.05 45.8931C195.99 46.0331 195.97 46.2431 195.97 46.4431V50.4831H194.24V45.6731C194.24 44.8831 194.21 44.2231 194.18 43.6331H195.7V43.6231ZM177.52 43.4631C179.74 43.4631 180.48 45.2931 180.48 46.7931C180.48 47.1131 180.45 47.3731 180.42 47.5231H175.83C175.87 48.7631 176.83 49.2931 177.94 49.2931C178.74 49.2931 179.3 49.1631 179.84 48.9831L180.09 50.1631C179.5 50.4131 178.68 50.6031 177.7 50.6031C175.48 50.6031 174.17 49.2431 174.17 47.1431C174.17 45.2531 175.33 43.4631 177.52 43.4631ZM170.43 40.4831H172.16V50.4731H170.43V40.4831ZM156.71 44.6831C156.03 44.6831 155.33 44.8931 154.87 45.1931L154.53 44.0631C155.04 43.7531 155.92 43.4631 157.01 43.4631C159.21 43.4631 159.84 44.8531 159.84 46.3631V48.8231C159.84 49.4431 159.87 50.0431 159.95 50.4731H158.39L158.26 49.7131H158.22C157.81 50.2431 157.09 50.6331 156.19 50.6331C154.81 50.6331 154.04 49.6331 154.04 48.5931C154.04 46.8731 155.57 45.9931 158.11 46.0031V45.8931C158.1 45.4331 157.91 44.6831 156.71 44.6831ZM146.47 40.7631C147.06 40.7631 147.43 41.1731 147.44 41.7031C147.44 42.2131 147.06 42.6331 146.45 42.6331C145.87 42.6331 145.49 42.2131 145.49 41.7031C145.5 41.1731 145.9 40.7631 146.47 40.7631ZM147.33 43.6231V50.4731H145.6V43.6231H147.33ZM123.53 40.9831H125.74L128.82 50.4631H126.95L126.09 47.7731H123.09L122.27 50.4631H120.48L123.53 40.9831ZM112 72.4331C112 74.1031 110.64 75.4631 108.97 75.4631H95.97C94.3 75.4631 92.94 74.1131 92.94 72.4331V43.5531C92.94 41.8831 94.3 40.5231 95.97 40.5231H108.97C110.64 40.5231 112 41.8831 112 43.5531V72.4331ZM132.89 73.1231L131.17 67.7031H125.17L123.53 73.1231H120.47L126.4 54.6731H130.07L136.04 73.1231H132.89ZM133.56 50.4731H131.86L129.31 43.6231H131.18L132.29 47.1031C132.49 47.7031 132.63 48.2531 132.75 48.8231H132.79C132.92 48.2631 133.07 47.7231 133.25 47.1031L134.35 43.6231H136.17L133.56 50.4731ZM137.13 48.5831C137.13 46.8631 138.66 45.9831 141.2 45.9931V45.8831C141.2 45.4331 141.02 44.6831 139.81 44.6831C139.13 44.6831 138.43 44.8931 137.97 45.1931L137.63 44.0631C138.14 43.7531 139.02 43.4631 140.11 43.4631C142.3 43.4631 142.94 44.8531 142.94 46.3631V48.8231C142.94 49.4431 142.97 50.0431 143.05 50.4731H141.49L141.36 49.7131H141.32C140.91 50.2431 140.19 50.6331 139.29 50.6331C137.9 50.6231 137.13 49.6231 137.13 48.5831ZM148.7 71.6831C147.6 72.8431 146.23 73.4331 144.6 73.4331C142.83 73.4331 141.57 72.8031 140.8 71.5431V78.5331H137.85V64.1931C137.85 62.7731 137.81 61.3131 137.74 59.8231H140.34L140.5 61.9331H140.55C141.54 60.3531 143.03 59.5531 145.04 59.5531C146.61 59.5531 147.92 60.1731 148.97 61.4131C150.02 62.6531 150.54 64.2931 150.54 66.3131C150.55 68.5831 149.93 70.3631 148.7 71.6831ZM151.78 50.4731H150.05V40.4831H151.78V50.4731ZM163.32 71.6831C162.22 72.8431 160.85 73.4331 159.22 73.4331C157.46 73.4331 156.19 72.8031 155.43 71.5431V78.5331H152.47V64.1931C152.47 62.7731 152.43 61.3131 152.36 59.8231H154.95L155.12 61.9331H155.17C156.16 60.3531 157.65 59.5531 159.66 59.5531C161.23 59.5531 162.54 60.1731 163.59 61.4131C164.64 62.6531 165.17 64.2931 165.17 66.3131C165.16 68.5831 164.55 70.3631 163.32 71.6831ZM165.35 50.6231C164.46 50.6231 163.68 50.2831 163.18 49.4431H163.15L163.07 50.4731H161.59C161.62 50.0131 161.65 49.2531 161.65 48.5431V40.4831H163.38V44.5631H163.41C163.83 43.9031 164.58 43.4631 165.61 43.4631C167.28 43.4631 168.48 44.8531 168.47 46.9331C168.46 49.4031 166.89 50.6231 165.35 50.6231ZM180.23 71.7831C179.02 72.8631 177.35 73.3931 175.2 73.3931C173.21 73.3931 171.62 73.0131 170.42 72.2431L171.11 69.7831C172.4 70.5431 173.83 70.9331 175.37 70.9331C176.49 70.9331 177.35 70.6831 177.97 70.1831C178.59 69.6831 178.9 69.0131 178.9 68.1631C178.9 67.4231 178.64 66.7931 178.14 66.2831C177.62 65.7731 176.78 65.3031 175.6 64.8631C172.37 63.6631 170.76 61.9031 170.76 59.5831C170.76 58.0731 171.32 56.8231 172.47 55.8531C173.61 54.8931 175.12 54.4031 177 54.4031C178.68 54.4031 180.07 54.6931 181.19 55.2731L180.44 57.6831C179.4 57.1231 178.22 56.8331 176.9 56.8331C175.86 56.8331 175.04 57.0931 174.45 57.5931C173.96 58.0531 173.71 58.6131 173.71 59.2631C173.71 59.9831 173.99 60.5931 174.56 61.0731C175.05 61.5131 175.95 61.9831 177.24 62.4931C178.83 63.1231 180 63.8831 180.75 64.7431C181.5 65.6031 181.87 66.6631 181.87 67.9431C181.86 69.5231 181.31 70.8031 180.23 71.7831ZM190.65 62.0331H187.39V68.5031C187.39 70.1431 187.97 70.9631 189.12 70.9631C189.65 70.9631 190.08 70.9231 190.43 70.8331L190.51 73.0731C189.93 73.2931 189.16 73.4031 188.21 73.4031C187.05 73.4031 186.13 73.0531 185.47 72.3331C184.81 71.6231 184.48 70.4231 184.48 68.7531V62.0331H182.54V59.8231H184.48V57.3931L187.38 56.5131V59.8231H190.64V62.0331H190.65ZM188.98 50.6231C187.05 50.6231 185.55 49.3031 185.55 47.0931C185.55 44.8431 187.03 43.4631 189.1 43.4631C191.14 43.4631 192.51 44.9031 192.51 46.9831C192.5 49.5031 190.72 50.6231 188.98 50.6231ZM202.78 71.4031C201.55 72.7531 199.93 73.4231 197.91 73.4231C195.95 73.4231 194.39 72.7731 193.24 71.4831C192.08 70.1931 191.51 68.5531 191.51 66.5831C191.51 64.5231 192.11 62.8331 193.3 61.5231C194.5 60.2031 196.1 59.5531 198.13 59.5531C200.09 59.5531 201.66 60.1931 202.84 61.4931C203.97 62.7431 204.53 64.3731 204.53 66.3631C204.52 68.4131 203.94 70.0831 202.78 71.4031ZM205.83 43.6231H206.8V42.3331L208.5 41.8531V43.6131H210.15V44.9031H208.5V47.9331C208.5 48.7731 208.72 49.2031 209.39 49.2031C209.7 49.2031 209.87 49.1931 210.07 49.1331L210.1 50.4431C209.85 50.5431 209.38 50.6231 208.85 50.6231C208.2 50.6231 207.68 50.4131 207.36 50.0631C206.98 49.6731 206.81 49.0331 206.81 48.1331V44.9131H205.84V43.6231H205.83ZM213.42 62.4231C213.13 62.3731 212.82 62.3431 212.49 62.3431C211.45 62.3431 210.65 62.7331 210.08 63.5131C209.59 64.2131 209.34 65.0731 209.34 66.1431V73.1231H206.38V64.0031C206.38 62.4831 206.35 61.0831 206.3 59.8231H208.87L208.98 62.3731H209.06C209.37 61.5031 209.86 60.7931 210.54 60.2731C211.2 59.7931 211.91 59.5631 212.68 59.5631C212.95 59.5631 213.2 59.5731 213.41 59.6131V62.4231H213.42ZM213.87 46.3631V50.4731H212.14V40.4831H213.87V44.5531H213.9C214.11 44.2331 214.41 43.9631 214.76 43.7831C215.11 43.5831 215.52 43.4731 215.96 43.4731C217.13 43.4731 218.35 44.2431 218.35 46.4431V50.4831H216.62V46.6331C216.62 45.6431 216.25 44.8831 215.3 44.8831C214.62 44.8831 214.15 45.3331 213.95 45.8531C213.88 45.9931 213.87 46.1831 213.87 46.3631ZM226.07 67.1931H217.2C217.24 68.5031 217.66 69.5031 218.49 70.1931C219.24 70.8131 220.2 71.1231 221.39 71.1231C222.71 71.1231 223.9 70.9131 224.98 70.4931L225.45 72.5531C224.2 73.1031 222.7 73.3731 220.99 73.3731C218.93 73.3731 217.31 72.7731 216.14 71.5531C214.96 70.3431 214.37 68.7131 214.37 66.6731C214.37 64.6631 214.92 62.9931 216.01 61.6631C217.17 60.2431 218.72 59.5331 220.67 59.5331C222.59 59.5331 224.04 60.2431 225.02 61.6631C225.8 62.7931 226.2 64.1931 226.2 65.8531C226.17 66.3731 226.14 66.8231 226.07 67.1931ZM164.97 44.8131C164.27 44.8131 163.62 45.3231 163.44 46.0831C163.41 46.2131 163.38 46.3631 163.38 46.5331V47.6431C163.38 47.7831 163.39 47.9231 163.42 48.0531C163.6 48.7531 164.21 49.2631 164.95 49.2631C166.03 49.2631 166.7 48.4031 166.7 47.0131C166.7 45.8031 166.12 44.8131 164.97 44.8131ZM177.42 44.6431C176.35 44.6431 175.9 45.6131 175.83 46.3131H178.84C178.86 45.6831 178.58 44.6431 177.42 44.6431ZM189.05 44.7131C187.83 44.7131 187.33 45.9131 187.33 47.0531C187.33 48.3731 187.99 49.3731 189.03 49.3731C190.01 49.3731 190.7 48.4131 190.7 47.0231C190.71 45.9531 190.23 44.7131 189.05 44.7131ZM155.75 48.4031C155.75 49.0831 156.19 49.3931 156.73 49.3931C157.43 49.3931 157.93 48.9431 158.1 48.4531C158.14 48.3231 158.14 48.2031 158.14 48.0731V47.1331C156.92 47.1131 155.75 47.3631 155.75 48.4031ZM223.06 44.6431C221.99 44.6431 221.54 45.6131 221.47 46.3131H224.48C224.49 45.6831 224.21 44.6431 223.06 44.6431Z" fill="#D7C2FF"/>
<path d="M342.15 42.1129C341.8 42.1129 341.51 42.2629 341.27 42.5729C341.03 42.8829 340.91 43.2729 340.91 43.7429C340.91 44.2329 341.04 44.6329 341.29 44.9429C341.54 45.2529 341.86 45.4029 342.22 45.4029C342.57 45.4029 342.86 45.2429 343.1 44.9329C343.34 44.6229 343.46 44.2329 343.46 43.7629C343.46 43.2729 343.33 42.8629 343.08 42.5629C342.84 42.2629 342.53 42.1129 342.15 42.1129Z" fill="#D7C2FF"/>
<path d="M349.02 42.1432C348.92 42.1432 348.78 42.1532 348.6 42.1732C348.62 42.6432 348.64 43.1432 348.64 43.6532C348.64 44.2232 348.65 44.7832 348.68 45.3332C348.83 45.3632 348.99 45.3832 349.14 45.3832C349.65 45.3832 350.03 45.2232 350.27 44.9132C350.51 44.5932 350.64 44.2132 350.64 43.7632C350.64 43.3132 350.51 42.9232 350.24 42.6132C349.97 42.2932 349.56 42.1432 349.02 42.1432Z" fill="#D7C2FF"/>
<path d="M360.63 42.0934C360.46 42.0934 360.28 42.1134 360.1 42.1434C360.13 42.5934 360.14 43.0934 360.14 43.6634C360.2 43.6634 360.27 43.6734 360.35 43.6734C361.21 43.6734 361.64 43.4034 361.64 42.8534C361.64 42.3534 361.31 42.0934 360.63 42.0934Z" fill="#D7C2FF"/>
<path d="M356.12 42.0831C356.12 42.1731 355.91 42.8331 355.49 44.0631H356.78C356.38 42.8431 356.17 42.1831 356.17 42.0831H356.12Z" fill="#D7C2FF"/>
<path d="M322.61 42.0831C322.61 42.1731 322.4 42.8331 321.98 44.0631H323.27C322.87 42.8431 322.66 42.1831 322.66 42.0831H322.61Z" fill="#676099"/>
<path d="M337.13 42.1031C336.91 42.1031 336.71 42.1231 336.54 42.1531C336.57 42.5231 336.58 42.9931 336.58 43.5831C336.71 43.5831 336.82 43.5931 336.91 43.5931C337.66 43.5931 338.04 43.3331 338.04 42.8131C338.03 42.3331 337.73 42.1031 337.13 42.1031Z" fill="#D7C2FF"/>
<path d="M332.04 42.1432C331.94 42.1432 331.8 42.1532 331.62 42.1732C331.64 42.6432 331.66 43.1432 331.66 43.6532C331.66 44.2232 331.67 44.7832 331.7 45.3332C331.85 45.3632 332.01 45.3832 332.16 45.3832C332.67 45.3832 333.05 45.2232 333.29 44.9132C333.53 44.5932 333.66 44.2132 333.66 43.7632C333.66 43.3132 333.53 42.9232 333.26 42.6132C332.99 42.2932 332.59 42.1432 332.04 42.1432Z" fill="#D7C2FF"/>
<path d="M371.47 42.1129C371.12 42.1129 370.83 42.2629 370.59 42.5729C370.35 42.8829 370.23 43.2729 370.23 43.7429C370.23 44.2329 370.36 44.6329 370.61 44.9429C370.86 45.2529 371.18 45.4029 371.54 45.4029C371.89 45.4029 372.18 45.2429 372.42 44.9329C372.66 44.6229 372.78 44.2329 372.78 43.7629C372.78 43.2729 372.65 42.8629 372.4 42.5629C372.16 42.2629 371.84 42.1129 371.47 42.1129Z" fill="#D7C2FF"/>
<path d="M364.89 42.0934C364.72 42.0934 364.54 42.1134 364.36 42.1434C364.39 42.5934 364.4 43.0934 364.4 43.6634C364.46 43.6634 364.53 43.6734 364.61 43.6734C365.47 43.6734 365.9 43.4034 365.9 42.8534C365.9 42.3534 365.56 42.0934 364.89 42.0934Z" fill="#D7C2FF"/>
<path d="M355.64 58.733C354.65 58.733 353.79 59.103 353.06 59.843C352.33 60.583 351.97 61.563 351.97 62.793C351.97 64.013 352.33 64.993 353.06 65.743C353.79 66.483 354.65 66.853 355.64 66.853C356.63 66.853 357.49 66.483 358.22 65.743C358.95 65.003 359.31 64.023 359.31 62.793C359.31 61.573 358.95 60.593 358.22 59.843C357.49 59.103 356.63 58.733 355.64 58.733Z" fill="#D7C2FF"/>
<path d="M343.38 58.733C342.39 58.733 341.53 59.103 340.8 59.843C340.07 60.583 339.71 61.563 339.71 62.793C339.71 64.013 340.07 64.993 340.8 65.743C341.53 66.483 342.38 66.853 343.38 66.853C344.37 66.853 345.23 66.483 345.96 65.743C346.69 65.003 347.05 64.023 347.05 62.793C347.05 61.573 346.69 60.593 345.96 59.843C345.23 59.103 344.37 58.733 343.38 58.733Z" fill="#D7C2FF"/>
<path d="M401.58 54.0133H398.05V59.7433H401.58C402.47 59.7433 403.18 59.4433 403.71 58.8533C404.25 58.2533 404.51 57.6033 404.51 56.8833C404.51 56.1633 404.24 55.5033 403.71 54.9133C403.18 54.3133 402.46 54.0133 401.58 54.0133Z" fill="#D7C2FF"/>
<path d="M414.37 63.503C413.85 63.943 413.59 64.463 413.59 65.063C413.59 65.613 413.83 66.053 414.3 66.373C414.77 66.693 415.32 66.853 415.93 66.853C416.8 66.853 417.59 66.523 418.3 65.883C419.01 65.233 419.37 64.463 419.37 63.583C418.77 63.093 417.88 62.853 416.69 62.853C415.66 62.843 414.89 63.063 414.37 63.503Z" fill="#D7C2FF"/>
<path d="M384.2 58.733C383.42 58.733 382.74 58.973 382.17 59.463C381.6 59.953 381.2 60.613 380.99 61.433H387.5C387.45 60.793 387.16 60.183 386.62 59.603C386.08 59.023 385.27 58.733 384.2 58.733Z" fill="#D7C2FF"/>
<path d="M367.81 58.733C366.83 58.733 365.99 59.103 365.29 59.843C364.59 60.583 364.24 61.563 364.24 62.793C364.24 64.013 364.59 64.993 365.29 65.743C365.99 66.483 366.83 66.853 367.81 66.853C368.8 66.853 369.65 66.483 370.34 65.753C371.04 65.023 371.38 64.033 371.38 62.793C371.38 61.553 371.03 60.573 370.34 59.833C369.65 59.103 368.81 58.733 367.81 58.733Z" fill="#D7C2FF"/>
<path d="M430.56 30.3531H276.58C272.46 30.3531 269.11 33.6931 269.11 37.8231V78.1432C269.11 82.2631 272.45 85.6131 276.58 85.6131H430.56C434.68 85.6131 438.03 82.2732 438.03 78.1432V37.8231C438.02 33.7031 434.68 30.3531 430.56 30.3531ZM363.44 41.4531H364.06C364.15 41.4531 364.32 41.4531 364.56 41.4431C364.81 41.4331 365.02 41.4331 365.21 41.4331C365.66 41.4331 366.04 41.5331 366.35 41.7431C366.66 41.9431 366.81 42.2531 366.81 42.6731C366.81 43.2431 366.6 43.6531 366.18 43.9231C365.76 44.1931 365.25 44.3231 364.63 44.3231C364.52 44.3231 364.44 44.3231 364.39 44.3131C364.39 44.7531 364.4 45.3431 364.43 46.0731H363.43C363.46 45.3931 363.48 44.5831 363.48 43.6531C363.49 42.8031 363.47 42.0631 363.44 41.4531ZM354.75 43.8031C355.3 42.3831 355.58 41.6031 355.58 41.4531H356.92C356.92 41.5831 357.17 42.3631 357.67 43.7631C358.17 45.1731 358.42 45.9431 358.42 46.0631H357.28C357.28 45.9031 357.17 45.4631 356.96 44.7331H355.32C355.1 45.4531 354.99 45.8931 354.99 46.0631H353.92C353.92 45.9731 354.2 45.2231 354.75 43.8031ZM347.7 41.4531H348.32C348.42 41.4531 348.57 41.4531 348.77 41.4431C348.97 41.4331 349.1 41.4331 349.16 41.4331C350.01 41.4331 350.63 41.6431 351.02 42.0731C351.4 42.5031 351.6 43.0131 351.6 43.6031C351.6 44.2731 351.38 44.8631 350.95 45.3631C350.52 45.8631 349.92 46.1131 349.14 46.1131C348.79 46.1131 348.31 46.1031 347.69 46.0731C347.72 45.3631 347.74 44.5531 347.74 43.6531C347.74 42.7931 347.73 42.0531 347.7 41.4531ZM345.45 41.4531H346.45C346.42 42.0531 346.4 42.7831 346.4 43.6531C346.4 44.5431 346.42 45.3531 346.45 46.0731H345.45C345.48 45.3431 345.5 44.5331 345.5 43.6531C345.5 42.7931 345.48 42.0531 345.45 41.4531ZM340.6 42.0631C341.04 41.5831 341.59 41.3431 342.25 41.3431C342.87 41.3431 343.4 41.5631 343.82 42.0031C344.24 42.4431 344.45 43.0031 344.45 43.6731C344.45 44.4031 344.23 45.0031 343.78 45.4831C343.34 45.9631 342.79 46.2031 342.13 46.2031C341.51 46.2031 340.98 45.9831 340.56 45.5431C340.14 45.1031 339.93 44.5431 339.93 43.8731C339.93 43.1431 340.16 42.5331 340.6 42.0631ZM330.72 41.4531H331.34C331.44 41.4531 331.59 41.4531 331.79 41.4431C331.99 41.4331 332.12 41.4331 332.18 41.4331C333.03 41.4331 333.65 41.6431 334.04 42.0731C334.42 42.5031 334.62 43.0131 334.62 43.6031C334.62 44.2731 334.4 44.8631 333.97 45.3631C333.54 45.8631 332.94 46.1131 332.16 46.1131C331.81 46.1131 331.33 46.1031 330.71 46.0731C330.74 45.3631 330.76 44.5531 330.76 43.6531C330.77 42.7931 330.75 42.0531 330.72 41.4531ZM325.68 41.4531H326.73C326.73 41.5831 327.02 42.0831 327.61 42.9531C328.23 43.8831 328.59 44.5131 328.68 44.8431H328.73C328.67 44.3131 328.64 43.8431 328.64 43.4231C328.64 42.7831 328.62 42.1231 328.59 41.4531H329.48C329.45 42.0431 329.43 42.7731 329.43 43.6531C329.43 44.5431 329.45 45.3431 329.48 46.0731H328.6C328.6 45.9731 328.27 45.4631 327.62 44.5331C326.94 43.5531 326.55 42.8931 326.46 42.5331H326.4C326.46 43.0531 326.49 43.5231 326.49 43.9331C326.49 44.5131 326.51 45.2331 326.54 46.0731H325.67C325.71 45.3431 325.72 44.5331 325.72 43.6531C325.73 42.7931 325.71 42.0531 325.68 41.4531ZM321.24 43.8031C321.79 42.3831 322.07 41.6031 322.07 41.4531H323.41C323.41 41.5831 323.66 42.3631 324.16 43.7631C324.66 45.1731 324.91 45.9431 324.91 46.0631H323.77C323.77 45.9031 323.66 45.4631 323.45 44.7331H321.81C321.59 45.4531 321.48 45.8931 321.48 46.0631H320.41C320.41 45.9731 320.69 45.2231 321.24 43.8031ZM283.83 42.1631C291.01 46.1831 298.19 50.2131 305.37 54.2231C305.7 54.4031 305.69 54.5131 305.44 54.7631C303.83 56.3431 302.24 57.9331 300.65 59.5331C300.48 59.7031 300.37 59.8031 300.14 59.5731C294.43 53.7431 288.71 47.9331 282.99 42.1131C282.94 42.0631 282.9 42.0031 282.81 41.8831C283.24 41.8731 283.54 42.0031 283.83 42.1631ZM281.62 77.6432C281.02 77.1832 280.79 76.5632 280.79 75.8232C280.79 72.7132 280.79 69.6131 280.78 66.5031C280.78 64.3031 280.78 62.1131 280.78 59.9131H280.79C280.79 54.6731 280.79 49.4231 280.79 44.1831C280.79 43.5431 280.91 42.9531 281.37 42.4631C281.55 42.2731 281.67 42.2231 281.89 42.4431C285.42 46.0431 288.95 49.6331 292.49 53.2231C294.78 55.5531 297.07 57.8731 299.37 60.1931C299.59 60.4131 299.61 60.5331 299.38 60.7731C293.76 66.3632 288.14 71.9632 282.54 77.5732C282.19 77.9332 281.95 77.8932 281.62 77.6432ZM304.75 66.2531C298.06 69.9131 291.37 73.5931 284.69 77.2631C284.58 77.3232 284.48 77.4231 284.42 77.4632C289.63 72.1931 294.85 66.9331 300.05 61.6531C300.37 61.3231 300.52 61.3731 300.81 61.6731C302.13 63.0532 303.47 64.4031 304.82 65.7531C305.05 65.9831 305.07 66.0731 304.75 66.2531ZM313.46 61.3831C313.15 61.6131 312.8 61.8031 312.46 61.9931C310.44 63.1131 308.41 64.2231 306.39 65.3431C306.12 65.4931 305.96 65.4931 305.73 65.2531C304.29 63.7731 302.84 62.2931 301.39 60.8331C301.18 60.6231 301.17 60.5031 301.39 60.2931C303.09 58.6231 304.78 56.9331 306.46 55.2431C306.66 55.0431 306.8 55.0231 307.05 55.1631C309.05 56.2931 311.06 57.4131 313.06 58.5331C313.68 58.8832 314.16 59.3331 314.19 60.0631C314.16 60.6631 313.89 61.0731 313.46 61.3831ZM334.69 66.3431C333.15 67.9631 331.14 68.7731 328.66 68.7731C326.29 68.7731 324.28 67.9531 322.62 66.3131C320.96 64.6731 320.13 62.6331 320.13 60.2031C320.13 57.7731 320.96 55.7331 322.62 54.0931C324.28 52.4531 326.29 51.6331 328.66 51.6331C329.84 51.6331 330.96 51.8631 332.03 52.3231C333.1 52.7831 333.96 53.3931 334.6 54.1531L333.16 55.5931C332.07 54.2931 330.58 53.6431 328.67 53.6431C326.94 53.6431 325.45 54.2531 324.19 55.4631C322.93 56.6731 322.3 58.2531 322.3 60.1931C322.3 62.1332 322.93 63.7132 324.19 64.9231C325.45 66.1331 326.94 66.7431 328.67 66.7431C330.5 66.7431 332.03 66.1332 333.26 64.9132C334.05 64.1231 334.51 63.0131 334.64 61.5931H328.68V59.6331H336.64C336.72 60.0631 336.75 60.4732 336.75 60.8731C336.73 63.1632 336.05 64.9831 334.69 66.3431ZM336.58 44.2231C336.58 44.8331 336.59 45.4431 336.61 46.0631H335.62C335.65 45.3531 335.67 44.5431 335.67 43.6431C335.67 42.7831 335.65 42.0431 335.62 41.4431H336.23C336.3 41.4431 336.45 41.4431 336.68 41.4331C336.91 41.4231 337.11 41.4231 337.31 41.4231C338.4 41.4231 338.94 41.7931 338.94 42.5331C338.94 43.1231 338.63 43.5331 338.01 43.7631V43.8131C338.25 43.8831 338.46 44.0631 338.64 44.3731C338.82 44.6831 339.06 45.2431 339.37 46.0531H338.32C338.05 45.2131 337.84 44.7031 337.69 44.5031C337.54 44.3031 337.31 44.2131 336.98 44.2131C336.84 44.2231 336.71 44.2231 336.58 44.2231ZM347.52 67.0732C346.43 68.2132 345.05 68.7831 343.37 68.7831C341.69 68.7831 340.31 68.2132 339.22 67.0732C338.13 65.9332 337.59 64.5131 337.59 62.7931C337.59 61.0831 338.13 59.6531 339.22 58.5131C340.3 57.3731 341.69 56.8031 343.37 56.8031C345.05 56.8031 346.43 57.3731 347.52 58.5131C348.6 59.6531 349.15 61.0731 349.15 62.7931C349.15 64.5031 348.61 65.9332 347.52 67.0732ZM359.79 67.0732C358.7 68.2132 357.32 68.7831 355.64 68.7831C353.96 68.7831 352.58 68.2132 351.49 67.0732C350.4 65.9332 349.86 64.5131 349.86 62.7931C349.86 61.0831 350.4 59.6531 351.49 58.5131C352.57 57.3731 353.96 56.8031 355.64 56.8031C357.32 56.8031 358.7 57.3731 359.79 58.5131C360.87 59.6531 361.42 61.0731 361.42 62.7931C361.42 64.5031 360.87 65.9332 359.79 67.0732ZM360.38 44.3131C360.27 44.3131 360.19 44.3131 360.14 44.3031C360.14 44.7431 360.15 45.3331 360.18 46.0631H359.18C359.21 45.3831 359.23 44.5731 359.23 43.6431C359.23 42.7931 359.21 42.0531 359.18 41.4431H359.8C359.89 41.4431 360.06 41.4431 360.3 41.4331C360.55 41.4231 360.76 41.4231 360.95 41.4231C361.4 41.4231 361.78 41.5231 362.09 41.7331C362.4 41.9331 362.55 42.2431 362.55 42.6631C362.55 43.2331 362.34 43.6431 361.92 43.9131C361.51 44.1831 360.99 44.3131 360.38 44.3131ZM373.41 67.8331C373.41 69.7631 372.85 71.2231 371.74 72.2231C370.62 73.2231 369.26 73.7231 367.66 73.7231C366.33 73.7231 365.25 73.3931 364.4 72.7231C363.56 72.0532 362.96 71.2931 362.59 70.4431L364.52 69.6432C364.73 70.2532 365.13 70.7631 365.7 71.1831C366.27 71.5931 366.93 71.8032 367.66 71.8032C368.82 71.8032 369.73 71.4531 370.4 70.7631C371.07 70.0631 371.4 69.1231 371.4 67.9331V66.8531H371.31C370.94 67.4031 370.42 67.8632 369.75 68.2332C369.08 68.6031 368.32 68.7831 367.48 68.7831C366.03 68.7831 364.77 68.2132 363.72 67.0631C362.67 65.9131 362.14 64.4931 362.14 62.8032C362.14 61.1031 362.67 59.6831 363.72 58.5431C364.77 57.3931 366.03 56.8231 367.48 56.8231C368.32 56.8231 369.08 57.0031 369.75 57.3731C370.42 57.7432 370.94 58.2031 371.31 58.7531H371.4V57.1931H373.42V67.8331H373.41ZM373.1 45.4831C372.66 45.9631 372.11 46.2031 371.45 46.2031C370.83 46.2031 370.3 45.9831 369.88 45.5431C369.46 45.1031 369.25 44.5431 369.25 43.8731C369.25 43.1431 369.47 42.5431 369.92 42.0631C370.36 41.5831 370.91 41.3431 371.57 41.3431C372.19 41.3431 372.72 41.5631 373.14 42.0031C373.56 42.4431 373.77 43.0031 373.77 43.6731C373.77 44.4031 373.55 45.0031 373.1 45.4831ZM377.51 68.4132H375.4V51.9931H377.51V68.4132ZM378.58 46.0731H377.7C377.7 45.9731 377.37 45.4631 376.72 44.5331C376.04 43.5531 375.65 42.8931 375.56 42.5331H375.5C375.56 43.0531 375.59 43.5231 375.59 43.9331C375.59 44.5131 375.61 45.2331 375.64 46.0731H374.77C374.81 45.3431 374.82 44.5331 374.82 43.6531C374.82 42.7931 374.8 42.0531 374.77 41.4531H375.82C375.82 41.5831 376.11 42.0831 376.7 42.9531C377.32 43.8831 377.68 44.5131 377.77 44.8431H377.82C377.76 44.3131 377.73 43.8431 377.73 43.4231C377.73 42.7831 377.71 42.1231 377.68 41.4531H378.57C378.54 42.0431 378.52 42.7731 378.52 43.6531C378.53 44.5431 378.54 45.3431 378.58 46.0731ZM389.73 63.1831H380.86C380.92 64.3131 381.3 65.2131 381.99 65.8631C382.69 66.5231 383.5 66.8531 384.43 66.8531C385.94 66.8531 386.97 66.2132 387.5 64.9231L389.38 65.7031C389.01 66.5731 388.41 67.3032 387.57 67.8932C386.73 68.4832 385.7 68.7731 384.48 68.7731C382.78 68.7731 381.4 68.2032 380.34 67.0732C379.28 65.9431 378.75 64.5131 378.75 62.7831C378.75 61.1432 379.27 59.7431 380.3 58.5631C381.33 57.3831 382.65 56.8031 384.25 56.8031C385.92 56.8031 387.25 57.3431 388.25 58.4331C389.25 59.5131 389.75 60.9731 389.75 62.7931L389.73 63.1831ZM405.14 60.3731C404.12 61.2931 402.92 61.7631 401.53 61.7631H398.05V68.4132H395.94V51.9931H401.53C402.92 51.9931 404.12 52.4531 405.14 53.3831C406.16 54.3131 406.66 55.4731 406.66 56.8831C406.67 58.2831 406.16 59.4531 405.14 60.3731ZM410.15 68.4132H408.04V51.9931H410.15V68.4132ZM421.38 68.4132H419.36V66.8531H419.27C418.43 68.1331 417.2 68.7831 415.58 68.7831C414.39 68.7831 413.39 68.4431 412.59 67.7531C411.79 67.0631 411.39 66.1531 411.39 65.0231C411.39 63.8031 411.86 62.8431 412.81 62.1431C413.76 61.4431 414.93 61.1031 416.32 61.1031C417.56 61.1031 418.57 61.3331 419.37 61.7931V61.4731C419.37 60.6431 419.09 59.9831 418.52 59.4931C417.95 58.9931 417.26 58.7431 416.43 58.7431C415.82 58.7431 415.26 58.8931 414.77 59.1831C414.27 59.4732 413.93 59.8731 413.75 60.3731L411.82 59.5431C412.08 58.8731 412.59 58.2531 413.36 57.6731C414.12 57.1031 415.13 56.8131 416.39 56.8131C417.83 56.8131 419.02 57.2331 419.97 58.0731C420.92 58.9131 421.39 60.1031 421.39 61.6231V68.4132H421.38ZM425.97 73.3631H423.79L426.4 67.7031L421.77 57.1831H424.06L427.41 65.2531H427.46L430.71 57.1831H433L425.97 73.3631Z" fill="#D7C2FF"/>
</g>
<defs>
<filter id="filter0_d_11_1549" x="0" y="0.33313" width="518.03" height="215.29" filterUnits="userSpaceOnUse" color-interpolation-filters="sRGB">
<feFlood flood-opacity="0" result="BackgroundImageFix"/>
<feColorMatrix in="SourceAlpha" type="matrix" values="0 0 0 0 0 0 0 0 0 0 0 0 0 0 0 0 0 0 127 0" result="hardAlpha"/>
<feOffset dy="50"/>
<feGaussianBlur stdDeviation="40"/>
<feColorMatrix type="matrix" values="0 0 0 0 0.20694 0 0 0 0 0.163053 0 0 0 0 0.262796 0 0 0 0.1 0"/>
<feBlend mode="normal" in2="BackgroundImageFix" result="effect1_dropShadow_11_1549"/>
<feBlend mode="normal" in="SourceGraphic" in2="effect1_dropShadow_11_1549" result="shape"/>
</filter>
</defs>
</svg>
