<svg width="129" height="129" viewBox="0 0 129 129" fill="none" xmlns="http://www.w3.org/2000/svg">
<path opacity="0.2" d="M67.5292 69.0881H62.5341V87.1956H67.5292C75.0078 87.1956 77.3351 83.8182 77.3351 77.8439C77.3351 71.8695 75.0078 69.0881 67.5292 69.0881Z" stroke="white" stroke-miterlimit="10"/>
<path opacity="0.2" d="M64.9181 0.929689C52.3492 0.926882 40.0617 4.65143 29.6097 11.6323C19.1577 18.6132 11.0106 28.5368 6.19871 40.1481C1.38685 51.7595 0.126396 64.537 2.57675 76.8648C5.0271 89.1925 11.0782 100.517 19.9648 109.405C28.8513 118.294 40.1742 124.347 52.5014 126.801C64.8286 129.254 77.6064 127.996 89.2188 123.187C100.831 118.378 110.757 110.233 117.74 99.7821C124.723 89.3317 128.45 77.0451 128.45 64.4762C128.45 47.625 121.757 31.4639 109.843 19.547C97.9289 7.63017 81.7692 0.933452 64.9181 0.929689V0.929689ZM64.9181 118.713C54.1982 118.716 43.7182 115.54 34.8038 109.586C25.8893 103.632 18.9409 95.1681 14.8372 85.2647C10.7336 75.3613 9.65919 64.4634 11.7498 53.9493C13.8405 43.4353 19.0023 33.7774 26.5825 26.1973C34.1626 18.6172 43.8205 13.4553 54.3345 11.3647C64.8486 9.27399 75.7465 10.3484 85.6499 14.4521C95.5533 18.5557 104.017 25.5042 109.971 34.4186C115.925 43.3331 119.101 53.813 119.099 64.5329C119.065 78.8869 113.344 92.6424 103.189 102.787C93.0337 112.931 79.2721 118.638 64.9181 118.657V118.713Z" stroke="white" stroke-miterlimit="10"/>
<path opacity="0.2" d="M75.9018 52.0592C75.9018 46.7944 73.5887 44.2117 66.99 44.2117H62.5341V60.0912H66.99C73.5036 60.0912 75.9018 57.324 75.9018 52.0592Z" stroke="white" stroke-miterlimit="10"/>
<path opacity="0.2" d="M64.9179 14.0134C54.9368 14.0106 45.1789 16.9678 36.8786 22.511C28.5782 28.0542 22.1081 35.9344 18.2865 45.155C14.4649 54.3755 13.4636 64.5223 15.4091 74.312C17.3546 84.1017 22.1596 93.0946 29.2163 100.153C36.273 107.212 45.2646 112.02 55.0537 113.968C64.8429 115.916 74.99 114.918 84.2116 111.099C93.4333 107.28 101.315 100.812 106.861 92.5129C112.406 84.2141 115.366 74.4571 115.366 64.476C115.351 51.0995 110.032 38.2751 100.575 28.8152C91.1173 19.3553 78.2943 14.0322 64.9179 14.0134V14.0134ZM75.0218 94.0496V105.402H68.6075V94.5321H62.6474V105.388H56.2331V94.5179H41.9146V86.0034H44.7528C45.3699 85.9108 45.9394 85.6172 46.3729 85.1683C46.8065 84.7194 47.0799 84.1401 47.151 83.52V47.4754C47.0799 46.8553 46.8065 46.276 46.3729 45.8271C45.9394 45.3782 45.3699 45.0847 44.7528 44.992H41.9146V36.4775H56.2048V25.5506H62.619V36.4775H68.5791V25.6215H74.9934V36.9742C85.1115 38.3932 90.4472 43.133 90.4472 51.392C90.4472 58.6861 86.3035 62.248 78.683 63.8232V64.1496C87.5381 65.4835 92.4339 69.8259 92.4339 77.6592C92.4339 87.1103 85.8778 92.5312 74.9934 94.0496H75.0218Z" stroke="white" stroke-miterlimit="10"/>
</svg>
