<svg width="220" height="298" viewBox="0 0 220 298" fill="none" xmlns="http://www.w3.org/2000/svg">
<path opacity="0.2" d="M187.477 196.197L97.0497 39.1938L98.83 192.484L187.477 196.197Z" stroke="#329DE3" stroke-miterlimit="10"/>
<path opacity="0.2" d="M192.16 192.455L233.035 117.238L101.804 35.5314" stroke="#329DE3" stroke-miterlimit="10"/>
<path opacity="0.2" d="M234.181 117.261L148.374 120.834L97.2821 193.425" stroke="#329DE3" stroke-miterlimit="10"/>
<path opacity="0.2" d="M234.217 127.858L192.749 204.267L101.715 198.116L226.455 261.539L234.217 127.858Z" stroke="#329DE3" stroke-miterlimit="10"/>
<path opacity="0.2" d="M193.147 204.64L223.622 259.157" stroke="#329DE3" stroke-miterlimit="10"/>
<path opacity="0.2" d="M183.059 192.924C182.606 192.132 182.377 191.244 182.403 190.371C182.428 189.498 182.706 188.68 183.202 188.02C183.697 187.36 184.388 186.887 185.187 186.661C185.986 186.436 186.857 186.467 187.691 186.752C188.524 187.037 189.283 187.562 189.871 188.261C190.459 188.961 190.85 189.803 190.995 190.682C191.14 191.561 191.031 192.437 190.684 193.2C190.337 193.963 189.766 194.578 189.043 194.968C188.561 195.228 188.024 195.382 187.461 195.42C186.899 195.458 186.323 195.379 185.767 195.189C185.211 194.999 184.686 194.701 184.221 194.313C183.756 193.924 183.361 193.452 183.059 192.924V192.924Z" stroke="#329DE3" stroke-miterlimit="10"/>
<path opacity="0.2" d="M91.614 195.4C91.1489 194.605 90.9102 193.71 90.9283 192.829C90.9464 191.947 91.2205 191.119 91.7157 190.449C92.2108 189.779 92.9048 189.297 93.7094 189.066C94.514 188.834 95.3929 188.862 96.2345 189.147C97.0761 189.433 97.8424 189.961 98.4362 190.667C99.0299 191.372 99.4242 192.222 99.569 193.109C99.7138 193.996 99.6026 194.879 99.2495 195.647C98.8963 196.415 98.3172 197.033 97.5857 197.422C96.6156 197.946 95.4415 198.027 94.3216 197.648C93.2016 197.268 92.2277 196.46 91.614 195.4V195.4Z" stroke="#329DE3" stroke-miterlimit="10"/>
<path opacity="0.2" d="M98.9938 42.001C98.5292 41.2074 98.2906 40.3136 98.308 39.4331C98.3255 38.5525 98.5984 37.7247 99.092 37.0547C99.5856 36.3846 100.278 35.9025 101.081 35.6693C101.884 35.4361 102.762 35.4625 103.603 35.7449C104.444 36.0274 105.211 36.5533 105.806 37.256C106.401 37.9587 106.798 38.8065 106.946 39.6921C107.094 40.5776 106.987 41.461 106.638 42.2302C106.288 42.9995 105.713 43.62 104.985 44.0131C104.013 44.5378 102.838 44.6206 101.715 44.2436C100.592 43.8666 99.6138 43.0603 98.9938 42.001V42.001Z" stroke="#329DE3" stroke-miterlimit="10"/>
<path opacity="0.2" d="M189.33 203.604C188.87 202.809 188.636 201.916 188.658 201.037C188.679 200.158 188.955 199.333 189.451 198.666C189.947 197.999 190.64 197.52 191.444 197.29C192.247 197.06 193.124 197.089 193.963 197.374C194.803 197.658 195.568 198.185 196.161 198.888C196.754 199.591 197.149 200.438 197.296 201.323C197.442 202.208 197.334 203.09 196.985 203.858C196.636 204.626 196.062 205.245 195.334 205.638C194.852 205.902 194.314 206.059 193.75 206.099C193.186 206.14 192.609 206.063 192.05 205.874C191.492 205.685 190.964 205.387 190.497 204.997C190.03 204.608 189.634 204.134 189.33 203.604V203.604Z" stroke="#329DE3" stroke-miterlimit="10"/>
<path opacity="0.2" d="M145.29 124.821C144.83 124.026 144.596 123.133 144.617 122.254C144.639 121.375 144.915 120.55 145.411 119.883C145.907 119.216 146.6 118.737 147.403 118.507C148.207 118.277 149.083 118.306 149.923 118.591C150.763 118.875 151.528 119.402 152.121 120.105C152.714 120.808 153.109 121.655 153.256 122.54C153.402 123.424 153.294 124.307 152.945 125.075C152.596 125.843 152.021 126.462 151.294 126.855C150.812 127.119 150.274 127.276 149.71 127.316C149.146 127.357 148.568 127.28 148.01 127.091C147.452 126.902 146.924 126.604 146.457 126.214C145.99 125.825 145.593 125.351 145.29 124.821V124.821Z" stroke="#329DE3" stroke-miterlimit="10"/>
<path opacity="0.2" d="M97.8651 204.784C97.4094 203.988 97.1798 203.095 97.2054 202.217C97.2309 201.34 97.5104 200.517 98.0085 199.854C98.5067 199.19 99.2012 198.715 100.004 198.488C100.808 198.261 101.684 198.292 102.522 198.579C103.36 198.865 104.123 199.393 104.714 200.097C105.305 200.8 105.699 201.647 105.844 202.53C105.989 203.414 105.881 204.295 105.531 205.062C105.182 205.829 104.608 206.447 103.882 206.839C103.397 207.101 102.857 207.255 102.291 207.293C101.726 207.332 101.147 207.253 100.588 207.062C100.029 206.871 99.5008 206.571 99.0334 206.181C98.5661 205.79 98.169 205.315 97.8651 204.784Z" stroke="#329DE3" stroke-miterlimit="10"/>
<path opacity="0.2" d="M220.424 260.929C219.959 260.135 219.72 259.24 219.739 258.358C219.757 257.477 220.031 256.649 220.526 255.978C221.021 255.308 221.715 254.827 222.52 254.595C223.324 254.364 224.203 254.392 225.045 254.677C225.886 254.962 226.653 255.491 227.246 256.196C227.84 256.902 228.234 257.752 228.379 258.638C228.524 259.525 228.413 260.409 228.06 261.177C227.706 261.945 227.127 262.563 226.396 262.952C225.426 263.476 224.252 263.557 223.132 263.177C222.012 262.798 221.038 261.989 220.424 260.929V260.929Z" stroke="#329DE3" stroke-miterlimit="10"/>
</svg>
