<svg width="222" height="335" viewBox="0 0 222 335" fill="none" xmlns="http://www.w3.org/2000/svg">
<g opacity="0.6">
<path opacity="0.6" d="M80.8421 4.18384L-9.60263 19.1269L-83.007 66.9708L-119.906 167.115L-75.5355 282.203L19.3659 330.964L104.174 318.25L182.756 268.177L220.573 166.263L176.595 52.9453L80.8421 4.18384Z" stroke="#0071BC" stroke-width="0.8601" stroke-miterlimit="10"/>
<path opacity="0.6" d="M19.3659 330.964L-12.683 298.457L-16.2221 193.921L9.27276 88.9264L-9.60264 19.1267L-83.859 113.569L-119.906 167.115L-85.6286 222.037L-12.683 298.457L104.174 318.25L172.204 226.887L176.595 118.354V52.9452" stroke="#0071BC" stroke-width="0.8601" stroke-miterlimit="10"/>
<path opacity="0.6" d="M80.8421 4.18384L100.176 41.4759L98.0135 149.551L74.2881 253.234L104.174 318.25" stroke="#0071BC" stroke-width="0.8601" stroke-miterlimit="10"/>
<path opacity="0.6" d="M-9.93035 19.1267L100.504 41.6723L176.595 52.9452" stroke="#0071BC" stroke-width="0.8601" stroke-miterlimit="10"/>
<path opacity="0.6" d="M-83.7279 113.963L8.81402 88.7956L100.504 41.6726L176.333 118.092L220.245 166.132L172.204 226.888" stroke="#0071BC" stroke-width="0.8601" stroke-miterlimit="10"/>
<path opacity="0.6" d="M-84.0556 113.963L-16.6809 193.921L73.8294 253.234" stroke="#0071BC" stroke-width="0.8601" stroke-miterlimit="10"/>
<path opacity="0.6" d="M182.756 268.571L172.204 226.429L97.5546 149.092L9.27275 88.5332" stroke="#0071BC" stroke-width="0.8601" stroke-miterlimit="10"/>
<path opacity="0.6" d="M176.595 118.812L98.0134 149.551L-16.681 193.921L-86.0874 222.496" stroke="#0071BC" stroke-width="0.8601" stroke-miterlimit="10"/>
<path opacity="0.6" d="M-75.5354 282.203L-13.1417 297.998L73.3706 253.234L172.204 226.887" stroke="#0071BC" stroke-width="0.8601" stroke-miterlimit="10"/>
<g opacity="0.6">
<path opacity="0.6" d="M179.872 53.2074C179.872 55.108 178.365 56.6155 176.464 56.6155C174.564 56.6155 173.056 55.108 173.056 53.2074C173.056 51.3067 174.564 49.7993 176.464 49.7993C178.365 49.7338 179.872 51.3067 179.872 53.2074Z" fill="#0071BC"/>
<path opacity="0.6" d="M180.069 118.354C180.069 120.255 178.562 121.762 176.661 121.762C174.76 121.762 173.253 120.255 173.253 118.354C173.253 116.453 174.76 114.946 176.661 114.946C178.496 114.946 180.069 116.453 180.069 118.354Z" fill="#0071BC"/>
<path opacity="0.6" d="M101.422 149.551C101.422 151.451 99.9141 152.959 98.0134 152.959C96.1128 152.959 94.6054 151.451 94.6054 149.551C94.6054 147.65 96.1128 146.143 98.0134 146.143C99.9141 146.143 101.422 147.65 101.422 149.551Z" fill="#0071BC"/>
<path opacity="0.6" d="M175.678 226.429C175.678 228.329 174.17 229.837 172.27 229.837C170.369 229.837 168.862 228.329 168.862 226.429C168.862 224.528 170.369 223.021 172.27 223.021C174.105 223.021 175.678 224.528 175.678 226.429Z" fill="#0071BC"/>
<path opacity="0.6" d="M186.23 268.177C186.23 270.078 184.722 271.585 182.822 271.585C180.921 271.585 179.414 270.078 179.414 268.177C179.414 266.277 180.921 264.769 182.822 264.769C184.657 264.704 186.23 266.277 186.23 268.177Z" fill="#0071BC"/>
<path opacity="0.6" d="M107.582 317.987C107.582 319.888 106.075 321.395 104.174 321.395C102.274 321.395 100.766 319.822 100.766 317.987C100.766 316.087 102.274 314.579 104.174 314.579C106.009 314.579 107.582 316.087 107.582 317.987Z" fill="#0071BC"/>
<path opacity="0.6" d="M77.6961 252.775C77.6961 254.676 76.1887 256.184 74.288 256.184C72.3874 256.184 70.88 254.676 70.88 252.775C70.88 250.875 72.3874 249.367 74.288 249.367C76.1887 249.367 77.6961 250.875 77.6961 252.775Z" fill="#0071BC"/>
<path opacity="0.6" d="M21.922 330.768C21.922 332.668 20.4146 334.176 18.5139 334.176C16.6133 334.176 15.1058 332.603 15.1058 330.768C15.1058 328.867 16.6133 327.36 18.5139 327.36C20.4146 327.294 21.922 328.867 21.922 330.768Z" fill="#0071BC"/>
<path opacity="0.6" d="M12.6808 88.7299C12.6808 90.6305 11.1734 92.1379 9.27273 92.1379C7.37208 92.1379 5.86467 90.6305 5.86467 88.7299C5.86467 86.8292 7.37208 85.3218 9.27273 85.3218C11.1734 85.2563 12.6808 86.8292 12.6808 88.7299Z" fill="#0071BC"/>
<path opacity="0.6" d="M104.109 41.9999C104.109 43.9005 102.601 45.4079 100.701 45.4079C98.7999 45.4079 97.2925 43.9005 97.2925 41.9999C97.2925 40.0992 98.7999 38.5918 100.701 38.5918C102.601 38.5263 104.109 40.0992 104.109 41.9999Z" fill="#0071BC"/>
<path opacity="0.6" d="M84.3156 4.18372C84.3156 6.08437 82.8082 7.59178 80.9076 7.59178C79.0069 7.59178 77.4995 6.08437 77.4995 4.18372C77.4995 2.28307 79.0069 0.775658 80.9076 0.775658C82.7427 0.710119 84.3156 2.28307 84.3156 4.18372Z" fill="#0071BC"/>
</g>
</g>
</svg>
