<svg width="11" height="11" viewBox="0 0 11 11" fill="none" xmlns="http://www.w3.org/2000/svg">
<path d="M5.09799 10.3921C4.10909 10.3921 3.14239 10.0988 2.32014 9.54944C1.4979 9.00003 0.857035 8.21914 0.478596 7.30551C0.100158 6.39188 0.00114171 5.38654 0.194068 4.41664C0.386994 3.44674 0.863198 2.55582 1.56246 1.85656C2.26172 1.1573 3.15264 0.681092 4.12254 0.488166C5.09245 0.29524 6.09778 0.394256 7.01141 0.772694C7.92504 1.15113 8.70593 1.79199 9.25534 2.61424C9.80475 3.43649 10.098 4.40318 10.098 5.39209C10.098 6.71817 9.57121 7.98994 8.63353 8.92762C7.69584 9.8653 6.42408 10.3921 5.09799 10.3921ZM5.09799 1.10638C4.25036 1.10638 3.42176 1.35773 2.71698 1.82865C2.0122 2.29957 1.46289 2.96891 1.13851 3.75202C0.814135 4.53513 0.729263 5.39684 0.894629 6.22819C1.05999 7.05954 1.46817 7.82318 2.06754 8.42255C2.6669 9.02192 3.43055 9.43009 4.26189 9.59546C5.09324 9.76082 5.95495 9.67595 6.73806 9.35157C7.52118 9.0272 8.19051 8.47789 8.66143 7.77311C9.13235 7.06832 9.38371 6.23973 9.38371 5.39209C9.38371 4.25545 8.93218 3.16536 8.12845 2.36163C7.32472 1.55791 6.23463 1.10638 5.09799 1.10638Z" fill="#616161"/>
<path d="M6.73727 7.53488L4.74084 5.53845V2.17773H5.45513V5.24202L7.24084 7.03131L6.73727 7.53488Z" fill="#616161"/>
</svg>
