<svg width="14" height="12" viewBox="0 0 14 12" fill="none" xmlns="http://www.w3.org/2000/svg">
<path d="M13.0759 1.78926C12.5906 2.01236 12.0756 2.15896 11.5483 2.22415C12.1039 1.87923 12.52 1.33771 12.7195 0.699801C12.196 1.02142 11.623 1.24736 11.0254 1.36772C10.6604 0.965692 10.187 0.686442 9.66669 0.566191C9.14638 0.44594 8.60315 0.49024 8.10747 0.693341C7.61179 0.896442 7.18652 1.24897 6.88682 1.70521C6.58712 2.16145 6.42682 2.70035 6.42671 3.25201C6.42698 3.46301 6.44983 3.67333 6.49484 3.87912C5.43678 3.82458 4.40164 3.54036 3.45664 3.04492C2.51165 2.54948 1.67793 1.85389 1.00964 1.00334C0.669152 1.60899 0.564693 2.3262 0.717547 3.00878C0.870401 3.69137 1.26906 4.28795 1.83228 4.67692C1.41047 4.66428 0.997844 4.5464 0.629518 4.33331V4.3667C0.629815 5.00196 0.841884 5.61768 1.22994 6.10994C1.618 6.6022 2.15828 6.94088 2.75963 7.06882C2.53116 7.13104 2.29588 7.16247 2.05963 7.16233C1.89119 7.16256 1.7231 7.14641 1.55758 7.11409C1.72823 7.66067 2.0593 8.1386 2.50471 8.48138C2.95013 8.82416 3.48773 9.01473 4.04271 9.02658C3.0994 9.79036 1.93559 10.2043 0.737817 10.2021C0.526696 10.2019 0.315752 10.1895 0.105957 10.165C1.24937 10.9227 2.56873 11.3481 3.92569 11.3966C5.28265 11.4451 6.62722 11.1149 7.81843 10.4406C9.00963 9.76638 10.0036 8.77291 10.696 7.5644C11.3885 6.35588 11.754 4.97684 11.7541 3.57187L11.7462 3.21565C12.2688 2.82695 12.7195 2.34403 13.0767 1.79L13.0759 1.78926Z" fill="white"/>
</svg>
